<?xml version="1.0" encoding="utf-8"?>
<!-- Generator: Adobe Illustrator 17.0.0, SVG Export Plug-In . SVG Version: 6.00 Build 0)  -->
<!DOCTYPE svg PUBLIC "-//W3C//DTD SVG 1.1//EN" "http://www.w3.org/Graphics/SVG/1.1/DTD/svg11.dtd">
<svg version="1.1" xmlns="http://www.w3.org/2000/svg" xmlns:xlink="http://www.w3.org/1999/xlink" x="0px" y="0px" width="30px"
	 height="30px" viewBox="0 0 30 30" enable-background="new 0 0 30 30" xml:space="preserve">
<g id="Layer_1" display="none">
	<radialGradient id="SVGID_1_" cx="14.8089" cy="3.5444" r="61.1219" gradientUnits="userSpaceOnUse">
		<stop  offset="0.1342" style="stop-color:#FFFFFF"/>
		<stop  offset="1" style="stop-color:#232020"/>
	</radialGradient>
	<path display="inline" fill="url(#SVGID_1_)" d="M28.508,5.24c-1.276-1.895-3.917-3.106-6.73-3.087
		c-0.199,0.001-0.397,0.009-0.594,0.023c-2.773,0.196-4.827,1.474-5.98,3.705c-1.185-2.214-3.256-3.464-6.031-3.621
		C8.976,2.25,8.777,2.245,8.579,2.246c-2.814,0.02-5.438,1.268-6.686,3.18C0.799,7.102,0.475,9.141,0.93,11.485
		c1.235,6.35,6.962,12.435,14.427,16.297l0,0c0,0,0,0,0-0.001l0,0l0,0c7.41-3.965,13.051-10.13,14.197-16.496
		C29.977,8.935,29.625,6.901,28.508,5.24z"/>
</g>
<g id="Layer_2">
	<g>
		
			<linearGradient id="SVGID_2_" gradientUnits="userSpaceOnUse" x1="-134.3228" y1="162.2869" x2="-134.0858" y2="162.2869" gradientTransform="matrix(-3.8267 -22.2644 -22.2644 3.8267 3115.6694 -3605.5884)">
			<stop  offset="0" style="stop-color:#A3A3A2"/>
			<stop  offset="0.0056" style="stop-color:#A3A3A2"/>
			<stop  offset="0.1437" style="stop-color:#969595"/>
			<stop  offset="0.3981" style="stop-color:#7A7978"/>
			<stop  offset="0.738" style="stop-color:#525050"/>
			<stop  offset="1" style="stop-color:#333333"/>
		</linearGradient>
		<path fill="url(#SVGID_2_)" d="M17.454,2.271c0.006,0.013,0.009,0.018,0.009,0.018c0,0-0.002-0.006-0.005-0.011L17.454,2.271
			L17.454,2.271 M17.22,1.889c0.003,0.005,0.004,0.006,0.004,0.006S17.222,1.892,17.22,1.889L17.22,1.889 M17.215,1.884
			c0,0,0.002,0.003,0.005,0.005c-0.001,0-0.001-0.001-0.001-0.002C17.216,1.885,17.215,1.884,17.215,1.884 M16.998,1.682
			c-0.002,0,0.001,0.001,0.004,0.003L16.998,1.682L16.998,1.682 M16.32,1.477c0.001,0,0.003,0.001,0.004,0.001
			c0.002,0,0.003,0,0.005,0C16.324,1.477,16.322,1.477,16.32,1.477 M16.316,1.476c0,0,0.001,0,0.004,0.001
			C16.318,1.476,16.317,1.476,16.316,1.476 M16.114,1.191c-0.081,0-0.162,0.005-0.244,0.016c-0.785,0.1-1.199,0.785-1.386,1.435
			c-0.205,0.699-0.228,1.446-0.196,2.165c0.012,0.267,0.03,0.533,0.068,0.797c0.011,0.073,0.058,0.137,0.147,0.137
			c0.073,0,0.158-0.064,0.147-0.137c-0.057-0.401-0.077-0.81-0.079-1.213c0-0.179,0.004-0.358,0.015-0.537
			c0.004-0.094,0.013-0.186,0.021-0.279c0.004-0.045,0.008-0.09,0.015-0.134c0.002-0.023,0.006-0.047,0.009-0.068l0.004-0.034
			c0-0.005,0.005-0.032,0.005-0.032s-0.001,0.003-0.003,0.013c0.028-0.186,0.064-0.369,0.113-0.55
			c0.023-0.088,0.051-0.175,0.081-0.26c0.015-0.04,0.03-0.079,0.047-0.119l0.026-0.058c0.001-0.004,0.009-0.02,0.009-0.02
			s-0.002,0.004-0.007,0.014l0.017-0.038C14.959,2.211,15,2.137,15.047,2.064c0.019-0.034,0.043-0.066,0.066-0.098l0.036-0.047
			l0.015-0.02c0.001-0.001,0.005-0.005,0.011-0.012c0.051-0.062,0.109-0.117,0.171-0.168l0.045-0.036
			c0.004-0.003,0.017-0.011,0.017-0.011c0,0-0.003,0.003-0.015,0.011l0.023-0.017c0.034-0.023,0.071-0.045,0.107-0.064
			c0.034-0.019,0.068-0.036,0.104-0.051c0.002-0.001,0.006-0.003,0.01-0.005l0.019-0.006c0.021-0.009,0.045-0.017,0.066-0.023
			c0.04-0.011,0.079-0.021,0.119-0.03l0.064-0.011l0.032-0.004c-0.013,0.002-0.018,0.003-0.017,0.003
			c0.002,0,0.026-0.004,0.032-0.005c0.052-0.005,0.103-0.007,0.156-0.007c0.045,0,0.09,0.002,0.134,0.004
			c0.026,0.002,0.051,0.006,0.075,0.009c0.014,0.001,0.014,0.002,0.011,0.002c0,0,0.001,0,0.002,0l0.038,0.004
			c0.058,0.009,0.117,0.021,0.173,0.034c0.028,0.006,0.052,0.009,0.078,0.012c0.008,0.001,0.032,0.004,0.044,0.005
			c0.024,0.006,0.045,0.011,0.068,0.017c0.028,0.008,0.053,0.017,0.081,0.028C16.796,1.572,16.79,1.57,16.79,1.57
			c0,0,0.02,0.008,0.034,0.015l0.049,0.023c0.036,0.017,0.068,0.036,0.102,0.058l0.023,0.017l0,0
			c0.003,0.002,0.005,0.003,0.006,0.004c-0.001,0-0.001-0.001-0.002-0.001l0.051,0.04c0.038,0.032,0.075,0.066,0.109,0.1
			l0.053,0.058c0.001,0.002,0.002,0.003,0.003,0.005c0.001,0.001,0.002,0.002,0.003,0.004l0.03,0.038
			c0.081,0.107,0.147,0.222,0.202,0.341l0,0l0,0c0.001,0.001,0.002,0.004,0.003,0.006l0.009,0.017l0.021,0.053
			c0.015,0.038,0.03,0.079,0.045,0.119c0.03,0.083,0.056,0.171,0.077,0.256c0.058,0.22,0.085,0.405,0.106,0.614
			c0.086,0.855-0.012,1.725-0.155,2.569c-0.013,0.072,0.019,0.147,0.102,0.168c0.011,0.003,0.022,0.004,0.034,0.004
			c0.065,0,0.136-0.038,0.145-0.1c0.122-0.702,0.205-1.414,0.196-2.124c-0.007-0.366-0.037-0.737-0.118-1.095
			c-0.012-0.045-0.025-0.09-0.04-0.135c-0.075-0.237-0.151-0.431-0.279-0.642c-0.049-0.083-0.102-0.164-0.164-0.241L17.41,1.708
			c-0.002-0.002-0.003-0.003-0.004-0.004c0.005,0.006,0.006,0.009,0.006,0.009c0,0-0.003-0.003-0.006-0.007
			C17.403,1.704,17.4,1.7,17.401,1.7c0,0,0.002,0.001,0.004,0.004c0,0,0,0,0,0l-0.04-0.047c-0.028-0.028-0.053-0.057-0.083-0.083
			c-0.053-0.053-0.111-0.1-0.17-0.145c0,0,0,0,0,0c0,0,0.001,0.001,0.001,0.001s-0.002-0.001-0.004-0.003
			C17.102,1.423,17.1,1.422,17.1,1.422s0.003,0.002,0.005,0.003c0.001,0.001,0.002,0.002,0.003,0.002
			c0.001,0,0.002,0.001,0.003,0.002c0-0.001-0.002-0.002-0.004-0.004l-0.019-0.013l-0.041-0.026c-0.005-0.003-0.01-0.007-0.016-0.01
			c-0.015-0.007-0.029-0.015-0.044-0.022c-0.111-0.051-0.224-0.085-0.345-0.098l-0.009-0.001c-0.002-0.001-0.006-0.002-0.012-0.004
			c-0.032-0.006-0.064-0.013-0.094-0.019C16.39,1.206,16.252,1.191,16.114,1.191"/>
		
			<linearGradient id="SVGID_3_" gradientUnits="userSpaceOnUse" x1="-133.9144" y1="164.1167" x2="-133.6774" y2="164.1167" gradientTransform="matrix(21.9502 -43.2144 -43.2144 -21.9502 10046.666 -2177.9497)">
			<stop  offset="0" style="stop-color:#A3A3A2"/>
			<stop  offset="0.0056" style="stop-color:#A3A3A2"/>
			<stop  offset="0.1437" style="stop-color:#969595"/>
			<stop  offset="0.3981" style="stop-color:#7A7978"/>
			<stop  offset="0.738" style="stop-color:#525050"/>
			<stop  offset="1" style="stop-color:#333333"/>
		</linearGradient>
		<path fill="url(#SVGID_3_)" d="M15.281,1.292c-0.003,0.001-0.006,0.002-0.009,0.004C15.274,1.295,15.277,1.294,15.281,1.292
			 M16.812,1.264c0,0,0.001,0,0.002,0.001C16.813,1.265,16.812,1.264,16.812,1.264 M16.811,1.264
			C16.811,1.264,16.812,1.264,16.811,1.264L16.811,1.264 M16.572,1.203c0.005,0.001,0.011,0.002,0.012,0.002
			C16.585,1.204,16.582,1.204,16.572,1.203 M15.758,1.174c-0.001,0-0.003,0-0.006,0.001c0.001,0,0.002,0,0.003,0
			C15.756,1.175,15.757,1.174,15.758,1.174 M15.763,1.173c-0.001,0-0.003,0-0.006,0.001C15.762,1.174,15.764,1.173,15.763,1.173
			 M16.819,1.267L16.819,1.267c-0.001,0-0.002-0.001-0.003-0.001C16.817,1.266,16.818,1.266,16.819,1.267L16.819,1.267
			 M16.059,0.888c-0.317,0-0.629,0.053-0.927,0.169c-0.377,0.147-0.699,0.403-0.953,0.697c-0.527,0.608-0.817,1.369-1,2.12
			c-0.115,0.463-0.196,0.938-0.226,1.414l-0.002,0.023c-0.004,0.087,0.067,0.131,0.141,0.131c0.074,0,0.149-0.044,0.154-0.131
			c0.004-0.111,0.017-0.22,0.03-0.328c0.006-0.058,0.013-0.113,0.021-0.168l0.006-0.045c0-0.009,0.004-0.038,0.004-0.038
			c0,0,0,0.005-0.002,0.019c0.004-0.034,0.011-0.07,0.015-0.104c0.025-0.154,0.053-0.305,0.085-0.457
			c0.077-0.36,0.177-0.714,0.309-1.06c0.034-0.092,0.073-0.181,0.111-0.271l0.015-0.034c-0.004,0.009-0.005,0.012-0.005,0.012
			c0,0,0.009-0.019,0.009-0.022l0.032-0.064c0.022-0.045,0.045-0.092,0.068-0.136c0.092-0.175,0.194-0.343,0.311-0.503
			C14.283,2.073,14.311,2.036,14.341,2l0.021-0.028c0.002-0.002,0.003-0.004,0.004-0.005c-0.001,0.001-0.002,0.002-0.002,0.003
			c-0.002,0.002-0.003,0.004-0.003,0.004c0,0,0.003-0.003,0.01-0.01l0.053-0.062c0.064-0.073,0.132-0.141,0.205-0.205
			c0.034-0.032,0.07-0.062,0.107-0.092l0.055-0.043l0.028-0.019c0.002-0.002,0.003-0.003,0.003-0.003
			c0.002-0.001,0.006-0.004,0.014-0.009C14.915,1.476,15,1.424,15.085,1.38c0.043-0.021,0.085-0.043,0.13-0.06
			c0.018-0.009,0.037-0.017,0.057-0.024c-0.003,0.001-0.005,0.002-0.005,0.002c0,0,0.019-0.008,0.022-0.009l0.047-0.017
			c0.098-0.032,0.198-0.058,0.298-0.079c0.025-0.004,0.051-0.009,0.077-0.013l0.038-0.004c0,0,0.001,0,0.001,0
			c-0.005,0-0.006,0,0.012-0.002c0.058-0.006,0.115-0.011,0.173-0.013c0.038-0.002,0.076-0.003,0.114-0.003
			c0.08,0,0.16,0.004,0.24,0.011c0.072,0.006,0.088,0.009,0.156,0.019c0.03,0.004,0.06,0.011,0.09,0.011l0.036,0.004l0,0l0,0
			C16.564,1.201,16.555,1.2,16.558,1.2c0.001,0,0.004,0,0.01,0.001l0.043,0.009c0.036,0.006,0.072,0.015,0.106,0.023l0.06,0.019
			l0.032,0.011c0.003,0.001,0.005,0.002,0.007,0.003c0,0-0.001,0-0.001,0c0,0,0,0,0.001,0c0.007,0.003,0.01,0.004,0.01,0.004v0
			c0.049,0.021,0.098,0.045,0.146,0.07c0.02,0.012,0.041,0.024,0.061,0.037c0.435,0.226,0.683,0.686,0.817,1.117
			C17.876,2.581,17.9,2.67,17.92,2.76c0.071,0.258,0.117,0.523,0.146,0.788c0.021,0.184,0.024,0.369,0.058,0.55
			c0.124,0.663,0.249,1.326,0.373,1.99V6.09c0.011,0.061,0.081,0.1,0.145,0.1c0.012,0,0.023-0.001,0.034-0.004
			c0.083-0.021,0.117-0.096,0.102-0.168c-0.121-0.655-0.243-1.309-0.367-1.966c-0.006-0.036-0.013-0.075-0.021-0.113V3.93
			c0.001,0.006,0.001,0.008,0.002,0.008c0.001,0-0.002-0.041-0.002-0.046c-0.006-0.1-0.015-0.2-0.026-0.301
			c-0.034-0.329-0.089-0.655-0.181-0.975c-0.124-0.427-0.322-0.844-0.64-1.181c-0.186-0.196-0.422-0.354-0.689-0.446
			c-0.068-0.024-0.139-0.041-0.211-0.051c-0.032-0.004-0.062-0.009-0.094-0.011h-0.015h-0.002c0.045,0,0.008,0-0.009-0.002
			C16.369,0.901,16.213,0.888,16.059,0.888"/>
		<g>
			<defs>
				<path id="SVGID_4_" d="M17.401,1.7c-0.001,0,0.002,0.003,0.004,0.005c0.004,0.004,0.006,0.007,0.006,0.007
					c0.001,0-0.001-0.002-0.006-0.009C17.403,1.702,17.401,1.7,17.401,1.7 M17.108,1.427c0.002,0.001,0.003,0.003,0.003,0.003
					c0,0,0,0-0.001-0.001C17.11,1.428,17.109,1.427,17.108,1.427 M17.1,1.422c0,0,0.002,0.001,0.008,0.005
					c-0.001-0.001-0.002-0.002-0.003-0.002C17.102,1.423,17.1,1.422,17.1,1.422 M17.031,1.376c0.005,0.003,0.01,0.007,0.016,0.01
					l0.041,0.026l0.019,0.013c0.002,0.002,0.004,0.003,0.004,0.004c0,0,0,0,0,0c0.06,0.045,0.117,0.092,0.17,0.145
					c0.03,0.026,0.056,0.056,0.083,0.083l0.04,0.047c0,0,0,0,0,0c0.001,0.001,0.002,0.002,0.004,0.004l0.028,0.034
					c0.062,0.077,0.115,0.158,0.164,0.241c0.128,0.211,0.205,0.405,0.279,0.642c0.014,0.045,0.027,0.09,0.04,0.135
					c-0.02-0.09-0.044-0.179-0.071-0.267C17.715,2.061,17.466,1.602,17.031,1.376"/>
			</defs>
			<clipPath id="SVGID_5_">
				<use xlink:href="#SVGID_4_"  overflow="visible"/>
			</clipPath>
			<g transform="matrix(1 0 0 1 7.066301e-007 -4.427875e-009)" clip-path="url(#SVGID_5_)">
				
					<image overflow="visible" width="11" height="15" xlink:href="512ACA6A.jpg"  transform="matrix(0.1137 0 0 -0.1137 16.8751 2.9129)">
				</image>
			</g>
		</g>
		
			<linearGradient id="SVGID_6_" gradientUnits="userSpaceOnUse" x1="-135.1124" y1="165.7041" x2="-134.8755" y2="165.7041" gradientTransform="matrix(17.386 97.1832 97.1832 -17.386 -13740.6816 16016.9512)">
			<stop  offset="0" style="stop-color:#F4F4F4"/>
			<stop  offset="0.5" style="stop-color:#F0EFEF"/>
			<stop  offset="0.6907" style="stop-color:#EAEAEB"/>
			<stop  offset="0.9308" style="stop-color:#DBDEDF"/>
			<stop  offset="1" style="stop-color:#D5D9DB"/>
		</linearGradient>
		<polygon fill="url(#SVGID_6_)" points="8.416,4.629 23.164,6.577 25.27,26.514 9.119,29.112 		"/>
		
			<linearGradient id="SVGID_7_" gradientUnits="userSpaceOnUse" x1="-129.7531" y1="168.3125" x2="-129.5162" y2="168.3125" gradientTransform="matrix(18.1133 0 0 -18.1133 2355.1221 3065.5654)">
			<stop  offset="0" style="stop-color:#848E91"/>
			<stop  offset="0.0056" style="stop-color:#848E91"/>
			<stop  offset="0.6189" style="stop-color:#90989A"/>
			<stop  offset="1" style="stop-color:#9BA1A3"/>
			<stop  offset="1" style="stop-color:#9BA1A3"/>
		</linearGradient>
		<polygon fill="url(#SVGID_7_)" points="8.416,4.629 6.433,4.64 4.827,27.164 9.119,29.112 		"/>
		
			<linearGradient id="SVGID_8_" gradientUnits="userSpaceOnUse" x1="-125.0431" y1="171.4675" x2="-124.8062" y2="171.4675" gradientTransform="matrix(9.3181 0.3727 0.3727 -9.3181 1106.1761 1660.1987)">
			<stop  offset="0" style="stop-color:#E3E4E5"/>
			<stop  offset="0.0056" style="stop-color:#E3E4E5"/>
			<stop  offset="0.1973" style="stop-color:#DDDFE0"/>
			<stop  offset="0.4482" style="stop-color:#CED0D1"/>
			<stop  offset="0.7306" style="stop-color:#B6B9BB"/>
			<stop  offset="1" style="stop-color:#9BA1A3"/>
		</linearGradient>
		<polygon fill="url(#SVGID_8_)" points="7.075,25.661 7.631,4.622 6.374,4.64 4.686,27.165 		"/>
		
			<linearGradient id="SVGID_9_" gradientUnits="userSpaceOnUse" x1="-127.1101" y1="163.3283" x2="-126.8732" y2="163.3283" gradientTransform="matrix(8.3874 -14.2896 -14.2896 -8.3874 3406.4136 -417.4489)">
			<stop  offset="0" style="stop-color:#FAFAFB"/>
			<stop  offset="0.2228" style="stop-color:#E5E4E5"/>
			<stop  offset="0.672" style="stop-color:#B8B8BA"/>
			<stop  offset="1" style="stop-color:#97999C"/>
		</linearGradient>
		<polygon fill="url(#SVGID_9_)" points="4.686,27.165 7.075,25.661 9.119,29.112 		"/>
		<polygon fill="#F6F6F6" points="8.416,4.629 9.175,29.036 25.314,26.391 9.355,28.827 		"/>
		<polygon fill="#E0E1E0" points="8.416,4.629 23.164,6.577 25.231,26.334 23.022,6.675 		"/>
	</g>
</g>
<g id="Layer_3">
	<g>
		<path d="M16.318,20.436l-1.454,0.019l-0.04-3.087l-2.315,0.03l0.04,3.087l-1.46,0.019l-0.097-7.454l1.46-0.019l0.042,3.205
			l2.315-0.03l-0.042-3.205l1.454-0.019L16.318,20.436z"/>
		<path d="M18.87,17.725l0.035,2.678l-1.46,0.019l-0.097-7.454l2.591-0.034c0.744-0.01,1.334,0.203,1.77,0.637
			c0.436,0.434,0.658,1.008,0.668,1.72c0.009,0.716-0.199,1.296-0.625,1.739c-0.426,0.444-1.01,0.67-1.751,0.68L18.87,17.725z
			 M18.855,16.563l1.132-0.015c0.311-0.004,0.546-0.122,0.707-0.353c0.161-0.231,0.239-0.523,0.235-0.875
			c-0.005-0.355-0.089-0.649-0.255-0.882c-0.165-0.232-0.405-0.346-0.719-0.342l-1.132,0.015L18.855,16.563z"/>
	</g>
</g>
</svg>
