<?xml version="1.0" standalone="no"?><!DOCTYPE svg PUBLIC "-//W3C//DTD SVG 1.1//EN" "http://www.w3.org/Graphics/SVG/1.1/DTD/svg11.dtd"><svg width="100%" height="100%" viewBox="0 0 18 21" version="1.1" xmlns="http://www.w3.org/2000/svg" xmlns:xlink="http://www.w3.org/1999/xlink" xml:space="preserve" style="fill-rule:evenodd;clip-rule:evenodd;stroke-linejoin:round;stroke-miterlimit:1.41421;"><path id="Forma 1" d="M6.674,3.396c0.164,-1.347 1.368,-2.396 2.826,-2.396c1.459,0 2.663,1.049 2.826,2.396l3.272,0c1.325,0 2.402,1.025 2.402,2.285l0,0.117c0,0.963 -0.63,1.787 -1.518,2.123l0,10.794c0,1.259 -1.077,2.284 -2.401,2.285l-9.162,0c-1.324,0 -2.401,-1.026 -2.401,-2.285l0,-10.794c-0.888,-0.336 -1.518,-1.16 -1.518,-2.123l0,-0.117c0,-1.26 1.077,-2.285 2.402,-2.285l3.272,0ZM14.081,19.916c0.696,0 1.262,-0.539 1.262,-1.201l0,-10.632l-11.686,0l0,10.632c0,0.662 0.566,1.201 1.262,1.201l9.162,0ZM6.447,18.53c0.314,0 0.569,-0.242 0.569,-0.541l0,-6.101c0,-0.299 -0.255,-0.542 -0.569,-0.542c-0.315,0 -0.57,0.243 -0.57,0.542l0,6.101c0,0.299 0.255,0.541 0.57,0.541ZM9.5,18.53c0.315,0 0.569,-0.242 0.569,-0.541l0,-6.101c0,-0.299 -0.255,-0.542 -0.569,-0.542c-0.315,0 -0.57,0.243 -0.57,0.542l0,6.101c0,0.299 0.255,0.541 0.57,0.541ZM12.553,18.53c0.315,0 0.57,-0.242 0.57,-0.541l0,-6.101c0,-0.299 -0.255,-0.542 -0.57,-0.542c-0.314,0 -0.569,0.243 -0.569,0.542l0,6.101c0,0.299 0.255,0.541 0.569,0.541ZM15.598,6.999c0.697,0 1.263,-0.539 1.263,-1.201l0,-0.117c0,-0.663 -0.567,-1.202 -1.263,-1.202l-12.196,0c-0.697,0 -1.263,0.539 -1.263,1.202l0,0.117c0,0.662 0.566,1.201 1.263,1.201l12.196,0ZM11.175,3.396c-0.154,-0.748 -0.846,-1.313 -1.675,-1.313c-0.829,0 -1.522,0.566 -1.675,1.313l3.35,0Z" style="fill:#000;"/></svg>