<?xml version="1.0" encoding="utf-8"?>
<!-- Generator: Adobe Illustrator 17.0.0, SVG Export Plug-In . SVG Version: 6.00 Build 0)  -->
<!DOCTYPE svg PUBLIC "-//W3C//DTD SVG 1.1//EN" "http://www.w3.org/Graphics/SVG/1.1/DTD/svg11.dtd">
<svg version="1.1" id="Layer_1" xmlns="http://www.w3.org/2000/svg" xmlns:xlink="http://www.w3.org/1999/xlink" x="0px" y="0px"
	 width="22px" height="22px" viewBox="0 0 22 22" enable-background="new 0 0 22 22" xml:space="preserve">
<g>
	<path fill="#010101" d="M16.751,9.449c0-0.004-0.001-0.008-0.001-0.012c-0.003-0.02-0.007-0.04-0.012-0.059c0,0,0,0,0-0.001
		c-0.005-0.018-0.011-0.036-0.019-0.054c-0.002-0.005-0.004-0.01-0.007-0.015C16.707,9.295,16.7,9.282,16.694,9.27
		c-0.003-0.005-0.006-0.011-0.009-0.016c-0.002-0.003-0.003-0.006-0.005-0.009c-0.007-0.012-0.015-0.022-0.023-0.033
		c-0.002-0.002-0.003-0.004-0.004-0.006c-0.012-0.016-0.026-0.031-0.04-0.045c-0.003-0.003-0.005-0.005-0.008-0.008
		C16.592,9.141,16.58,9.13,16.566,9.12c-0.003-0.003-0.007-0.005-0.01-0.008c-0.018-0.013-0.036-0.025-0.054-0.036l-7.248-4.12
		l4.173-2.628l6.997,3.977l-2.947,1.855c-0.23,0.145-0.299,0.449-0.154,0.678c0.145,0.23,0.449,0.299,0.678,0.154L21.643,6.7
		c0.146-0.092,0.234-0.254,0.23-0.427c-0.004-0.173-0.098-0.331-0.249-0.417l-7.967-4.529c-0.158-0.09-0.352-0.085-0.505,0.011
		L8.037,4.559C8.036,4.56,8.035,4.561,8.034,4.561L5.478,6.171C5.477,6.172,5.476,6.172,5.475,6.173L0.357,9.396
		C0.21,9.488,0.123,9.65,0.127,9.823c0.004,0.173,0.098,0.331,0.249,0.417l7.967,4.529c0.075,0.043,0.159,0.064,0.243,0.064
		c0.091,0,0.182-0.025,0.262-0.076l3.642-2.293c0.23-0.145,0.299-0.449,0.154-0.678c-0.145-0.23-0.449-0.299-0.678-0.154
		l-3.393,2.136L1.576,9.791L5.75,7.163l7.462,4.242v5.618c0,0.179,0.097,0.344,0.254,0.431c0.074,0.041,0.156,0.061,0.238,0.061
		c0.091,0,0.182-0.025,0.262-0.076l2.559-1.611c0.143-0.09,0.23-0.247,0.23-0.416V9.507c0-0.003,0-0.006-0.001-0.009
		C16.754,9.482,16.753,9.465,16.751,9.449z M14.196,16.131v-5.013c0-0.177-0.095-0.34-0.249-0.428L6.695,6.568l1.614-1.017
		l6.997,3.977l-0.613,0.386c-0.23,0.145-0.299,0.449-0.154,0.678c0.093,0.149,0.253,0.23,0.417,0.23c0.09,0,0.18-0.024,0.262-0.076
		l0.554-0.349v4.741L14.196,16.131z"/>
	<path fill="#010101" d="M21.119,7.835l-3.642,2.293c-0.23,0.145-0.299,0.449-0.154,0.678c0.093,0.149,0.253,0.23,0.417,0.23
		c0.09,0,0.18-0.024,0.262-0.076l3.642-2.293c0.23-0.145,0.299-0.449,0.154-0.678C21.653,7.76,21.349,7.691,21.119,7.835z"/>
	<path fill="#010101" d="M11.966,13.599l-3.393,2.136l-7.711-4.383c-0.236-0.134-0.537-0.052-0.671,0.185
		c-0.134,0.236-0.052,0.537,0.185,0.671l7.967,4.529c0.075,0.043,0.159,0.064,0.243,0.064c0.091,0,0.182-0.025,0.262-0.076
		l3.642-2.293c0.23-0.145,0.299-0.449,0.154-0.678C12.5,13.523,12.196,13.454,11.966,13.599z"/>
	<path fill="#010101" d="M21.119,9.803l-3.642,2.293c-0.23,0.145-0.299,0.449-0.154,0.678c0.093,0.149,0.253,0.23,0.417,0.23
		c0.09,0,0.18-0.024,0.262-0.076l3.642-2.293c0.23-0.145,0.299-0.449,0.154-0.678C21.653,9.728,21.349,9.659,21.119,9.803z"/>
	<path fill="#010101" d="M11.966,15.567l-3.393,2.136l-7.711-4.383c-0.236-0.134-0.537-0.052-0.671,0.185
		c-0.134,0.236-0.052,0.537,0.185,0.671l7.967,4.529c0.075,0.043,0.159,0.064,0.243,0.064c0.091,0,0.182-0.025,0.262-0.076
		L12.49,16.4c0.23-0.145,0.299-0.449,0.154-0.678C12.5,15.491,12.196,15.422,11.966,15.567z"/>
	<path fill="#010101" d="M21.119,11.771l-3.642,2.293c-0.23,0.145-0.299,0.449-0.154,0.678c0.093,0.149,0.253,0.23,0.417,0.23
		c0.09,0,0.18-0.024,0.262-0.076l3.642-2.293c0.23-0.145,0.299-0.449,0.154-0.678C21.653,11.696,21.349,11.627,21.119,11.771z"/>
	<path fill="#010101" d="M11.966,17.535l-3.393,2.136l-7.711-4.383c-0.236-0.134-0.537-0.052-0.671,0.185
		c-0.134,0.236-0.052,0.537,0.185,0.671l7.967,4.529c0.075,0.043,0.159,0.064,0.243,0.064c0.091,0,0.182-0.025,0.262-0.076
		l3.642-2.293c0.23-0.145,0.299-0.449,0.154-0.678C12.5,17.459,12.196,17.39,11.966,17.535z"/>
</g>
</svg>
