<?xml version="1.0" encoding="utf-8"?>
<!-- Generator: Adobe Illustrator 17.0.0, SVG Export Plug-In . SVG Version: 6.00 Build 0)  -->
<!DOCTYPE svg PUBLIC "-//W3C//DTD SVG 1.1//EN" "http://www.w3.org/Graphics/SVG/1.1/DTD/svg11.dtd">
<svg version="1.1" id="Layer_1" xmlns="http://www.w3.org/2000/svg" xmlns:xlink="http://www.w3.org/1999/xlink" x="0px" y="0px"
	 width="34px" height="34px" viewBox="0 0 34 34" enable-background="new 0 0 34 34" xml:space="preserve">
<g>
	<g>
		<path d="M13.912,8.193C6.781,8.193,1,12.639,1,18.126c0,2.69,1.392,5.135,3.653,6.923c-0.131,1.824-0.57,4.054-1.841,5.256
			c2.531,0,5.117-1.585,6.752-2.825c1.359,0.373,2.821,0.578,4.348,0.578c7.131,0,12.912-4.444,12.912-9.932
			C26.824,12.639,21.043,8.193,13.912,8.193z"/>
		<path d="M31.075,19.093c1.087-1.452,1.708-3.141,1.708-4.94c0-5.487-5.781-9.932-12.912-9.932c-3.139,0-6.015,0.862-8.252,2.292
			c1.053-0.199,2.153-0.306,3.286-0.306c7.68,0,13.905,4.893,13.905,10.925c0,2.378-0.963,4.581-2.606,6.371
			c1.631,1.24,4.221,2.829,6.752,2.829C31.156,24.623,31.027,20.837,31.075,19.093z"/>
	</g>
</g>
</svg>
