<?xml version="1.0" encoding="utf-8"?>
<!-- Generator: Adobe Illustrator 17.0.0, SVG Export Plug-In . SVG Version: 6.00 Build 0)  -->
<!DOCTYPE svg PUBLIC "-//W3C//DTD SVG 1.1//EN" "http://www.w3.org/Graphics/SVG/1.1/DTD/svg11.dtd">
<svg version="1.1" id="Layer_1" xmlns="http://www.w3.org/2000/svg" xmlns:xlink="http://www.w3.org/1999/xlink" x="0px" y="0px"
	 width="32px" height="22px" viewBox="0 0 32 22" enable-background="new 0 0 32 22" xml:space="preserve">
<g>
	<path d="M9.902,15.768c-0.858,0-1.556,0.698-1.556,1.556c0,0.858,0.698,1.556,1.556,1.556c0.858,0,1.556-0.698,1.556-1.556
		C11.458,16.466,10.76,15.768,9.902,15.768L9.902,15.768z M9.902,17.887c-0.31,0-0.563-0.253-0.563-0.563s0.252-0.563,0.563-0.563
		c0.31,0,0.563,0.253,0.563,0.563S10.213,17.887,9.902,17.887L9.902,17.887z M9.902,17.887"/>
	<path d="M24.736,15.768c-0.858,0-1.556,0.698-1.556,1.556c0,0.858,0.698,1.556,1.556,1.556c0.858,0,1.556-0.698,1.556-1.556
		C26.292,16.466,25.594,15.768,24.736,15.768L24.736,15.768z M24.736,17.887c-0.31,0-0.563-0.253-0.563-0.563
		s0.253-0.563,0.563-0.563c0.31,0,0.563,0.253,0.563,0.563S25.046,17.887,24.736,17.887L24.736,17.887z M24.736,17.887"/>
	<path d="M31.06,14.837V11.01c0-0.463-0.123-0.918-0.356-1.318l-2.806-4.811c-0.467-0.8-1.333-1.298-2.26-1.298h-3.551
		c-0.566,0-1.027,0.46-1.027,1.027v9.039h-1.126V3.55c0-0.858-0.698-1.556-1.556-1.556H2.485c-0.858,0-1.556,0.698-1.556,1.556
		v12.715c0,0.858,0.698,1.556,1.556,1.556h3.776C6.505,19.614,8.044,21,9.902,21c1.858,0,3.398-1.386,3.641-3.179h7.552
		C21.339,19.614,22.878,21,24.736,21c1.858,0,3.398-1.386,3.641-3.179h2.187c0.566,0,1.026-0.46,1.026-1.026v-1.06
		C31.59,15.349,31.376,15.013,31.06,14.837L31.06,14.837z M29.504,14.709c-0.566,0-1.026,0.46-1.026,1.026v1.093h-0.101
		c-0.243-1.792-1.783-3.179-3.641-3.179c-1.057,0-2.011,0.449-2.682,1.166v-3.881h4.143c0.292,0,0.567,0.113,0.773,0.32l0.658,0.658
		c0.394,0.394,0.918,0.611,1.475,0.611h0.964v2.186H29.504z M30.067,11.01v0.52h-0.964c-0.292,0-0.566-0.113-0.772-0.32
		l-0.658-0.658c-0.394-0.394-0.918-0.611-1.475-0.611h-4.143V6.696h5.752l2.04,3.497C29.991,10.441,30.067,10.723,30.067,11.01
		L30.067,11.01z M22.087,4.577h3.551c0.575,0,1.112,0.309,1.401,0.805l0.187,0.321h-5.173V4.61
		C22.054,4.591,22.069,4.577,22.087,4.577L22.087,4.577z M21.061,14.643v2.185h-1.126v-2.185H21.061z M1.922,12.523h1.126v1.623
		c0,0.31-0.253,0.563-0.563,0.563H1.922V12.523z M1.922,16.265v-0.563h0.563c0.858,0,1.556-0.698,1.556-1.556v-2.119
		c0-0.274-0.223-0.497-0.497-0.497H1.922V3.55c0-0.31,0.253-0.563,0.563-0.563h15.893c0.31,0,0.563,0.253,0.563,0.563v13.277h-5.399
		c-0.244-1.792-1.783-3.179-3.641-3.179c-1.858,0-3.397,1.386-3.641,3.179H2.485C2.175,16.828,1.922,16.575,1.922,16.265
		L1.922,16.265z M9.902,20.007c-1.478,0-2.681-1.203-2.682-2.68c0-0.001,0-0.001,0-0.002s0-0.001,0-0.002
		c0.001-1.478,1.204-2.68,2.682-2.68c1.479,0,2.682,1.203,2.682,2.682C12.584,18.803,11.381,20.007,9.902,20.007L9.902,20.007z
		 M24.736,20.007c-1.479,0-2.682-1.203-2.682-2.682c0-1.479,1.203-2.682,2.682-2.682c1.479,0,2.682,1.203,2.682,2.682
		C27.418,18.803,26.215,20.007,24.736,20.007L24.736,20.007z M30.597,16.795c0,0.018-0.014,0.033-0.033,0.033h-1.093v-1.093
		c0-0.018,0.015-0.033,0.033-0.033h1.06c0.018,0,0.033,0.014,0.033,0.033V16.795z M30.597,16.795"/>
	<path d="M15.061,8.285l-1.801,1.801c-0.194,0.194-0.194,0.508,0,0.702c0.097,0.097,0.224,0.146,0.351,0.146
		c0.127,0,0.254-0.049,0.351-0.146l2.649-2.649c0.01-0.01,0.019-0.02,0.028-0.031c0.002-0.002,0.003-0.004,0.005-0.005
		c0.014-0.017,0.026-0.035,0.038-0.054c0.002-0.004,0.005-0.007,0.007-0.011C16.699,8.019,16.71,8,16.718,7.979l0-0.001v0
		c0.009-0.021,0.016-0.042,0.021-0.064c0.001-0.005,0.002-0.009,0.003-0.013c0.005-0.021,0.009-0.043,0.011-0.065
		c0,0,0-0.001,0-0.001c0.002-0.021,0.002-0.042,0.002-0.063c0-0.005,0-0.01-0.001-0.016c-0.001-0.021-0.004-0.043-0.008-0.064
		c0,0,0-0.001,0-0.001c-0.004-0.021-0.01-0.042-0.017-0.062c-0.001-0.004-0.003-0.008-0.004-0.012
		C16.71,7.576,16.69,7.537,16.664,7.5c-0.003-0.004-0.006-0.008-0.009-0.012c-0.014-0.017-0.028-0.035-0.044-0.051l-2.649-2.649
		c-0.194-0.194-0.508-0.194-0.702,0c-0.194,0.194-0.194,0.508,0,0.702l1.801,1.801H4.604c-0.274,0-0.497,0.222-0.497,0.497
		c0,0.274,0.223,0.497,0.497,0.497H15.061z M15.061,8.285"/>
</g>
</svg>
