<?xml version="1.0" encoding="utf-8"?>
<!-- Generator: Adobe Illustrator 17.0.0, SVG Export Plug-In . SVG Version: 6.00 Build 0)  -->
<!DOCTYPE svg PUBLIC "-//W3C//DTD SVG 1.1//EN" "http://www.w3.org/Graphics/SVG/1.1/DTD/svg11.dtd">
<svg version="1.1" id="Layer_1" xmlns="http://www.w3.org/2000/svg" xmlns:xlink="http://www.w3.org/1999/xlink" x="0px" y="0px"
	 width="34px" height="34px" viewBox="0 0 34 34" enable-background="new 0 0 34 34" xml:space="preserve">
<g>
	<path id="Facebook" fill="#010101" d="M13.888,7.416c0,0.793,0,4.333,0,4.333h-3.174v5.298h3.174v15.745h6.521V17.048h4.376
		c0,0,0.41-2.541,0.608-5.318c-0.57,0-4.96,0-4.96,0s0-3.082,0-3.623c0-0.541,0.711-1.27,1.414-1.27c0.701,0,2.182,0,3.553,0
		c0-0.721,0-3.214,0-5.516c-1.83,0-3.913,0-4.831,0C13.727,1.321,13.888,6.625,13.888,7.416z"/>
</g>
</svg>
