<?xml version="1.0" encoding="utf-8"?>
<!-- Generator: Adobe Illustrator 17.0.0, SVG Export Plug-In . SVG Version: 6.00 Build 0)  -->
<!DOCTYPE svg PUBLIC "-//W3C//DTD SVG 1.1//EN" "http://www.w3.org/Graphics/SVG/1.1/DTD/svg11.dtd">
<svg version="1.1" id="Layer_1" xmlns="http://www.w3.org/2000/svg" xmlns:xlink="http://www.w3.org/1999/xlink" x="0px" y="0px"
	 width="20px" height="20px" viewBox="0 0 20 20" enable-background="new 0 0 20 20" xml:space="preserve">
<path fill="#FFFFFF" d="M13.466,2.33c-1.368,0-2.649,0.619-3.502,1.657C9.112,2.95,7.831,2.33,6.463,2.33
	c-2.5,0-4.534,2.034-4.534,4.534c0,1.958,1.167,4.222,3.47,6.73c1.772,1.93,3.699,3.425,4.248,3.837l0.318,0.239l0.318-0.239
	c0.549-0.412,2.476-1.907,4.248-3.837C16.833,11.087,18,8.822,18,6.864C18,4.364,15.966,2.33,13.466,2.33z M13.75,12.878
	c-1.457,1.588-3.025,2.871-3.785,3.463c-0.76-0.592-2.328-1.875-3.785-3.463c-2.087-2.274-3.191-4.354-3.191-6.014
	c0-1.916,1.559-3.475,3.475-3.475c1.261,0,2.425,0.687,3.038,1.793l0.463,0.836l0.463-0.836c0.613-1.106,1.777-1.793,3.038-1.793
	c1.916,0,3.475,1.559,3.475,3.475C16.94,8.525,15.837,10.604,13.75,12.878z"/>
</svg>
