<?xml version="1.0" encoding="utf-8"?>
<!-- Generator: Adobe Illustrator 17.0.0, SVG Export Plug-In . SVG Version: 6.00 Build 0)  -->
<!DOCTYPE svg PUBLIC "-//W3C//DTD SVG 1.1//EN" "http://www.w3.org/Graphics/SVG/1.1/DTD/svg11.dtd">
<svg version="1.1" id="Layer_1" xmlns="http://www.w3.org/2000/svg" xmlns:xlink="http://www.w3.org/1999/xlink" x="0px" y="0px"
	 width="22px" height="22px" viewBox="0 0 22 22" enable-background="new 0 0 22 22" xml:space="preserve">
<g>
	<path fill="#010101" d="M20.455,2.914c-0.05-0.166-0.214-0.272-0.385-0.251c-0.015,0.002-1.494,0.182-3.325-0.048
		c-1.67-0.209-3.976-0.812-5.474-2.497C11.2,0.04,11.103,0,11.004,0c-0.003,0-0.006,0-0.009,0c-0.098,0-0.196,0.04-0.266,0.12
		C9.235,1.8,6.937,2.404,5.272,2.614C3.438,2.846,1.945,2.666,1.93,2.664C1.758,2.642,1.595,2.748,1.545,2.914
		c-0.555,1.84-0.658,5.432,0.427,8.969c0.643,2.098,1.633,3.977,2.942,5.585c1.551,1.905,3.548,3.419,5.936,4.5
		C10.895,21.989,10.945,22,10.995,22h0.009c0.051,0,0.101-0.011,0.147-0.032c2.387-1.081,4.384-2.594,5.936-4.5
		c1.309-1.607,2.299-3.487,2.942-5.585C21.113,8.346,21.01,4.755,20.455,2.914z M19.348,11.675c-0.616,2.01-1.563,3.808-2.813,5.344
		c-1.45,1.781-3.311,3.205-5.534,4.235c-2.223-1.03-4.084-2.454-5.534-4.235c-1.25-1.536-2.197-3.334-2.813-5.344
		C1.608,8.266,1.765,4.988,2.151,3.401c0.547,0.044,1.758,0.102,3.193-0.078C7.747,3.022,9.693,2.177,11,0.871
		c1.307,1.306,3.253,2.152,5.656,2.453c1.437,0.18,2.65,0.122,3.195,0.077C20.529,6.041,19.935,9.758,19.348,11.675z"/>
	<path fill="#010101" d="M13.68,8.909c0,0.197,0.16,0.356,0.356,0.356c0.197,0,0.356-0.16,0.356-0.356
		c0-0.679-0.371-1.309-1.045-1.772c-0.357-0.245-0.778-0.429-1.236-0.542V6.058c0-0.197-0.16-0.356-0.356-0.356
		c-0.197,0-0.356,0.16-0.356,0.356V6.48c-0.133-0.011-0.268-0.018-0.404-0.018s-0.271,0.006-0.404,0.018V6.058
		c0-0.197-0.16-0.356-0.356-0.356c-0.197,0-0.356,0.16-0.356,0.356v0.537C9.421,6.709,9,6.892,8.643,7.137
		C7.969,7.601,7.598,8.23,7.598,8.909c0,0.679,0.371,1.309,1.045,1.772C9,10.927,9.421,11.11,9.879,11.223v3.439
		c-0.916-0.28-1.568-0.886-1.568-1.571c0-0.197-0.16-0.356-0.356-0.356c-0.197,0-0.356,0.16-0.356,0.356
		c0,0.679,0.371,1.309,1.045,1.772C9,15.108,9.421,15.291,9.879,15.404v0.537c0,0.197,0.16,0.356,0.356,0.356
		c0.197,0,0.356-0.16,0.356-0.356V15.52c0.133,0.011,0.268,0.018,0.404,0.018s0.271-0.006,0.404-0.018v0.421
		c0,0.197,0.16,0.356,0.356,0.356c0.197,0,0.356-0.16,0.356-0.356v-0.537c0.458-0.113,0.879-0.296,1.236-0.542
		c0.674-0.463,1.045-1.093,1.045-1.772c0-0.679-0.371-1.309-1.045-1.772c-0.357-0.245-0.778-0.429-1.236-0.542V7.338
		C13.028,7.618,13.68,8.225,13.68,8.909z M8.311,8.909c0-0.684,0.652-1.291,1.568-1.571v3.142C8.963,10.2,8.311,9.594,8.311,8.909z
		 M10.995,14.825c-0.137,0-0.272-0.007-0.404-0.021v-3.466c0.133,0.011,0.268,0.018,0.404,0.018c0.137,0,0.272,0.007,0.404,0.021
		v3.428C11.267,14.818,11.132,14.825,10.995,14.825z M13.68,13.091c0,0.684-0.652,1.291-1.568,1.571V11.52
		C13.028,11.8,13.68,12.406,13.68,13.091z M11.399,10.661c-0.133-0.011-0.268-0.018-0.404-0.018c-0.137,0-0.272-0.007-0.404-0.021
		V7.196c0.132-0.014,0.267-0.021,0.404-0.021s0.272,0.007,0.404,0.021V10.661z"/>
	<path fill="#010101" d="M18.882,4.252c-0.073,0.001-0.148,0.001-0.226,0.001c-1.736,0-5.011-0.276-7.44-2.124
		c-0.128-0.097-0.304-0.097-0.432,0C8.355,3.977,5.08,4.253,3.344,4.253c-0.078,0-0.153,0-0.226-0.001c-0.002,0-0.003,0-0.005,0
		c-0.179,0-0.331,0.133-0.354,0.312c-0.126,1.003-0.314,3.681,0.665,6.874c1.229,4.008,3.724,6.983,7.415,8.841
		c0.05,0.025,0.105,0.038,0.16,0.038c0.055,0,0.11-0.013,0.16-0.038c3.691-1.858,6.186-4.833,7.415-8.841
		c0.979-3.194,0.791-5.871,0.665-6.874C19.217,4.384,19.064,4.249,18.882,4.252z M17.894,11.229
		c-1.152,3.757-3.47,6.559-6.894,8.332c-3.423-1.772-5.742-4.575-6.894-8.332C3.247,8.426,3.337,5.993,3.433,4.966
		c0.887-0.005,2.205-0.08,3.601-0.401C8.571,4.213,9.903,3.638,11,2.855c1.097,0.783,2.429,1.358,3.966,1.71
		c1.396,0.32,2.714,0.396,3.601,0.401C18.663,5.993,18.753,8.426,17.894,11.229z"/>
</g>
</svg>
