<?xml version="1.0" encoding="utf-8"?>
<!-- Generator: Adobe Illustrator 17.0.0, SVG Export Plug-In . SVG Version: 6.00 Build 0)  -->
<!DOCTYPE svg PUBLIC "-//W3C//DTD SVG 1.1//EN" "http://www.w3.org/Graphics/SVG/1.1/DTD/svg11.dtd">
<svg version="1.1" xmlns="http://www.w3.org/2000/svg" xmlns:xlink="http://www.w3.org/1999/xlink" x="0px" y="0px" width="34px"
	 height="34px" viewBox="0 0 34 34" enable-background="new 0 0 34 34" xml:space="preserve">
<g id="Layer_1">
	<g display="none">
		<path id="Facebook" display="inline" fill="#010101" d="M13.888,7.416c0,0.793,0,4.333,0,4.333h-3.174v5.298h3.174v15.745h6.521
			V17.048h4.376c0,0,0.41-2.541,0.608-5.318c-0.57,0-4.96,0-4.96,0s0-3.082,0-3.623c0-0.541,0.711-1.27,1.414-1.27
			c0.701,0,2.182,0,3.553,0c0-0.721,0-3.214,0-5.516c-1.83,0-3.913,0-4.831,0C13.727,1.321,13.888,6.625,13.888,7.416z"/>
	</g>
	<g>
		<g>
			<path d="M30.177,1.917H4.99c-1.603,0-2.906,1.303-2.906,2.906V30.01c0,1.603,1.303,2.906,2.906,2.906h25.188
				c1.603,0,2.906-1.303,2.906-2.906V4.823C33.083,3.22,31.78,1.917,30.177,1.917z M23.275,6.656c0-1.065,0.872-1.938,1.938-1.938
				h2.421c1.066,0,1.938,0.872,1.938,1.938V9.59c0,1.065-0.872,1.937-1.938,1.937h-2.421c-1.066,0-1.938-0.872-1.938-1.938V6.656z
				 M17.583,10.583c3.768,0,6.834,3.066,6.834,6.834s-3.066,6.834-6.834,6.834s-6.834-3.066-6.834-6.834
				S13.815,10.583,17.583,10.583z M30.177,30.979H4.99c-0.534,0-0.969-0.434-0.969-0.969V15.063H4.99h3.216h0.942
				c-0.211,0.751-0.336,1.537-0.336,2.354c0,4.837,3.935,8.772,8.772,8.772s8.772-3.935,8.772-8.772
				c0-0.817-0.125-1.603-0.336-2.354h0.942h3.216h0.969V30.01C31.146,30.545,30.711,30.979,30.177,30.979z"/>
		</g>
	</g>
</g>
<g id="Layer_2" display="none">
	<g display="inline">
		<g>
			<path fill="#040305" d="M33.667,6.872c-1.202,0.533-2.492,0.894-3.848,1.055c1.384-0.829,2.443-2.143,2.946-3.705
				c-1.298,0.768-2.731,1.325-4.258,1.627c-1.223-1.304-2.962-2.117-4.891-2.117c-3.701,0-6.702,3.001-6.702,6.699
				c0,0.525,0.059,1.037,0.174,1.527c-5.569-0.28-10.506-2.948-13.811-7.002C2.698,5.945,2.37,7.097,2.37,8.326
				c0,2.325,1.184,4.377,2.98,5.577c-1.098-0.037-2.131-0.339-3.035-0.841v0.084c0,3.246,2.311,5.954,5.375,6.571
				c-0.561,0.151-1.153,0.235-1.766,0.235c-0.433,0-0.851-0.043-1.262-0.125c0.853,2.664,3.327,4.601,6.259,4.654
				c-2.292,1.796-5.183,2.864-8.322,2.864c-0.541,0-1.074-0.033-1.598-0.092c2.966,1.905,6.487,3.015,10.272,3.015
				c12.327,0,19.066-10.211,19.066-19.066l-0.022-0.868C31.631,9.395,32.77,8.215,33.667,6.872z"/>
		</g>
	</g>
</g>
</svg>
