<?xml version="1.0" standalone="no"?><!DOCTYPE svg PUBLIC "-//W3C//DTD SVG 1.1//EN" "http://www.w3.org/Graphics/SVG/1.1/DTD/svg11.dtd"><svg width="100%" height="100%" viewBox="0 0 21 21" version="1.1" xmlns="http://www.w3.org/2000/svg" xmlns:xlink="http://www.w3.org/1999/xlink" xml:space="preserve" style="fill-rule:evenodd;clip-rule:evenodd;stroke-linejoin:round;stroke-miterlimit:1.41421;"><path id="Shape 1" d="M19.703,2.276c-1.722,-1.728 -4.522,-1.728 -6.244,0l-11.449,11.455c-0.09,0.089 -0.145,0.204 -0.162,0.328l-0.848,6.288c-0.026,0.179 0.038,0.359 0.161,0.482c0.107,0.107 0.256,0.171 0.405,0.171c0.026,0 0.052,0 0.077,-0.004l3.785,-0.512c0.316,-0.043 0.537,-0.333 0.495,-0.649c-0.043,-0.315 -0.333,-0.537 -0.648,-0.495l-3.035,0.41l0.592,-4.386l4.612,4.616c0.107,0.107 0.256,0.171 0.405,0.171c0.149,0 0.299,-0.06 0.405,-0.171l11.449,-11.454c0.836,-0.836 1.296,-1.945 1.296,-3.127c0,-1.182 -0.46,-2.291 -1.296,-3.123ZM13.68,3.684l1.923,1.924l-10.448,10.456l-1.922,-1.924l10.447,-10.456ZM7.854,18.76l-1.88,-1.881l10.447,-10.456l1.88,1.881l-10.447,10.456ZM19.102,7.481l-4.599,-4.603c0.584,-0.482 1.313,-0.747 2.08,-0.747c0.874,0 1.692,0.341 2.31,0.956c0.618,0.614 0.955,1.437 0.955,2.312c0,0.772 -0.264,1.497 -0.746,2.082Z" style="fill:#000;fill-rule:nonzero;"/></svg>