<?xml version="1.0" encoding="utf-8"?>
<!-- Generator: Adobe Illustrator 17.0.0, SVG Export Plug-In . SVG Version: 6.00 Build 0)  -->
<!DOCTYPE svg PUBLIC "-//W3C//DTD SVG 1.1//EN" "http://www.w3.org/Graphics/SVG/1.1/DTD/svg11.dtd">
<svg version="1.1" xmlns="http://www.w3.org/2000/svg" xmlns:xlink="http://www.w3.org/1999/xlink" x="0px" y="0px" width="34px"
	 height="34px" viewBox="0 0 34 34" enable-background="new 0 0 34 34" xml:space="preserve">
<g id="Layer_1" display="none">
	<g>
		<path id="Facebook" display="inline" fill="#010101" d="M13.888,7.416c0,0.793,0,4.333,0,4.333h-3.174v5.298h3.174v15.745h6.521
			V17.048h4.376c0,0,0.41-2.541,0.608-5.318c-0.57,0-4.96,0-4.96,0s0-3.082,0-3.623c0-0.541,0.711-1.27,1.414-1.27
			c0.701,0,2.182,0,3.553,0c0-0.721,0-3.214,0-5.516c-1.83,0-3.913,0-4.831,0C13.727,1.321,13.888,6.625,13.888,7.416z"/>
	</g>
	<g display="inline">
		<g>
			<path d="M30.177,1.917H4.99c-1.603,0-2.906,1.303-2.906,2.906V30.01c0,1.603,1.303,2.906,2.906,2.906h25.188
				c1.603,0,2.906-1.303,2.906-2.906V4.823C33.083,3.22,31.78,1.917,30.177,1.917z M23.275,6.656c0-1.065,0.872-1.938,1.938-1.938
				h2.421c1.066,0,1.938,0.872,1.938,1.938V9.59c0,1.065-0.872,1.937-1.938,1.937h-2.421c-1.066,0-1.938-0.872-1.938-1.938V6.656z
				 M17.583,10.583c3.768,0,6.834,3.066,6.834,6.834s-3.066,6.834-6.834,6.834s-6.834-3.066-6.834-6.834
				S13.815,10.583,17.583,10.583z M30.177,30.979H4.99c-0.534,0-0.969-0.434-0.969-0.969V15.063H4.99h3.216h0.942
				c-0.211,0.751-0.336,1.537-0.336,2.354c0,4.837,3.935,8.772,8.772,8.772s8.772-3.935,8.772-8.772
				c0-0.817-0.125-1.603-0.336-2.354h0.942h3.216h0.969V30.01C31.146,30.545,30.711,30.979,30.177,30.979z"/>
		</g>
	</g>
</g>
<g id="Layer_3" display="none">
	<g display="inline">
		<path id="YouTube" fill="#010101" d="M26.518,24.009h-1.701l0.008-0.988c0-0.439,0.361-0.798,0.801-0.798h0.109
			c0.442,0,0.803,0.359,0.803,0.798L26.518,24.009z M20.137,21.891c-0.432,0-0.785,0.29-0.785,0.645v4.806
			c0,0.354,0.353,0.644,0.785,0.644c0.433,0,0.787-0.289,0.787-0.644v-4.806C20.923,22.181,20.57,21.891,20.137,21.891z
			 M30.5,19.203v9.143c0,2.193-1.902,3.988-4.226,3.988H8.893c-2.325,0-4.227-1.795-4.227-3.988v-9.143
			c0-2.193,1.901-3.988,4.227-3.988h17.38C28.598,15.215,30.5,17.01,30.5,19.203z M10.053,29.338l-0.001-9.631l2.155,0.001v-1.427
			l-5.743-0.009v1.403l1.793,0.005v9.658H10.053z M16.511,21.142h-1.796v5.143c0,0.744,0.045,1.116-0.003,1.247
			c-0.146,0.399-0.803,0.823-1.058,0.043c-0.043-0.136-0.005-0.548-0.006-1.255l-0.007-5.178h-1.786l0.006,5.097
			c0.001,0.781-0.018,1.364,0.006,1.629c0.044,0.467,0.028,1.012,0.462,1.324c0.808,0.582,2.357-0.087,2.745-0.919l-0.003,1.062
			l1.443,0.002L16.511,21.142L16.511,21.142z M22.257,27.031l-0.004-4.28c-0.001-1.631-1.222-2.608-2.878-1.288l0.007-3.182
			l-1.794,0.003L17.58,29.267l1.476-0.021l0.134-0.684C21.075,30.291,22.26,29.106,22.257,27.031z M27.879,26.464l-1.347,0.007
			c-0.001,0.053-0.003,0.115-0.003,0.182v0.752c0,0.402-0.332,0.73-0.736,0.73h-0.264c-0.404,0-0.737-0.328-0.737-0.73v-0.083
			v-0.827v-1.067h3.084v-1.161c0-0.848-0.022-1.696-0.092-2.181c-0.221-1.534-2.374-1.778-3.462-0.992
			c-0.341,0.245-0.602,0.573-0.754,1.014c-0.153,0.441-0.229,1.044-0.229,1.81v2.552C23.34,30.713,28.494,30.113,27.879,26.464z
			 M20.97,12.608c0.093,0.225,0.237,0.408,0.432,0.546c0.193,0.136,0.44,0.204,0.735,0.204c0.259,0,0.488-0.07,0.688-0.214
			c0.199-0.144,0.367-0.358,0.504-0.644l-0.034,0.705h2.002V4.688h-1.576v6.627c0,0.359-0.296,0.653-0.657,0.653
			c-0.359,0-0.656-0.294-0.656-0.653V4.688h-1.645v5.743c0,0.732,0.013,1.219,0.035,1.467C20.821,12.144,20.878,12.379,20.97,12.608
			z M14.903,7.799c0-0.817,0.068-1.456,0.204-1.916c0.136-0.458,0.381-0.827,0.736-1.105c0.354-0.279,0.807-0.419,1.357-0.419
			c0.463,0,0.86,0.091,1.191,0.269c0.333,0.179,0.59,0.412,0.768,0.699c0.182,0.288,0.305,0.584,0.371,0.887
			c0.067,0.307,0.1,0.77,0.1,1.394v2.153c0,0.79-0.032,1.371-0.093,1.74c-0.061,0.37-0.192,0.713-0.395,1.035
			c-0.2,0.318-0.458,0.556-0.771,0.708c-0.316,0.153-0.678,0.228-1.086,0.228c-0.456,0-0.841-0.063-1.158-0.195
			c-0.318-0.131-0.564-0.328-0.738-0.59c-0.177-0.262-0.301-0.582-0.376-0.955c-0.075-0.372-0.111-0.932-0.111-1.679L14.903,7.799
			L14.903,7.799z M16.471,11.181c0,0.482,0.359,0.876,0.796,0.876c0.437,0,0.795-0.394,0.795-0.876V6.648
			c0-0.482-0.358-0.875-0.795-0.875c-0.437,0-0.796,0.394-0.796,0.875V11.181z M10.929,13.47h1.889l0.002-6.531l2.232-5.594h-2.066
			L11.8,5.5l-1.203-4.167H8.552l2.375,5.609L10.929,13.47z"/>
	</g>
</g>
<g id="Layer_4">
	<g>
		<g>
			<g>
				<path fill="#040305" d="M29.663,10.477c-0.864-6.254-7.096-9.438-13.745-8.692C10.661,2.374,5.42,6.625,5.202,12.702
					c-0.133,3.71,0.92,6.493,4.45,7.276c1.529-2.705-0.492-3.297-0.809-5.257c-1.295-8.01,9.24-13.48,14.758-7.883
					c3.821,3.876,1.303,15.794-4.851,14.554c-5.896-1.183,2.887-10.67-1.818-12.531c-3.825-1.515-5.856,4.628-4.042,7.681
					c-1.064,5.251-3.354,10.195-2.427,16.779c3.006-2.183,4.021-6.358,4.851-10.715c1.511,0.92,2.32,1.871,4.246,2.019
					C26.665,25.177,30.638,17.534,29.663,10.477z"/>
			</g>
		</g>
	</g>
</g>
<g id="Layer_2" display="none">
	<g display="inline">
		<g>
			<path fill="#040305" d="M33.667,6.872c-1.202,0.533-2.492,0.894-3.848,1.055c1.384-0.829,2.443-2.143,2.946-3.705
				c-1.298,0.768-2.731,1.325-4.258,1.627c-1.223-1.304-2.962-2.117-4.891-2.117c-3.701,0-6.702,3.001-6.702,6.699
				c0,0.525,0.059,1.037,0.174,1.527c-5.569-0.28-10.506-2.948-13.811-7.002C2.698,5.945,2.37,7.097,2.37,8.326
				c0,2.325,1.184,4.377,2.98,5.577c-1.098-0.037-2.131-0.339-3.035-0.841v0.084c0,3.246,2.311,5.954,5.375,6.571
				c-0.561,0.151-1.153,0.235-1.766,0.235c-0.433,0-0.851-0.043-1.262-0.125c0.853,2.664,3.327,4.601,6.259,4.654
				c-2.292,1.796-5.183,2.864-8.322,2.864c-0.541,0-1.074-0.033-1.598-0.092c2.966,1.905,6.487,3.015,10.272,3.015
				c12.327,0,19.066-10.211,19.066-19.066l-0.022-0.868C31.631,9.395,32.77,8.215,33.667,6.872z"/>
		</g>
	</g>
</g>
</svg>
