<?xml version="1.0" encoding="utf-8"?>
<!-- Generator: Adobe Illustrator 17.0.0, SVG Export Plug-In . SVG Version: 6.00 Build 0)  -->
<!DOCTYPE svg PUBLIC "-//W3C//DTD SVG 1.1//EN" "http://www.w3.org/Graphics/SVG/1.1/DTD/svg11.dtd">
<svg version="1.1" id="Layer_1" xmlns="http://www.w3.org/2000/svg" xmlns:xlink="http://www.w3.org/1999/xlink" x="0px" y="0px"
	 width="22px" height="22px" viewBox="0 0 22 22" enable-background="new 0 0 22 22" xml:space="preserve">
<g>
	<path d="M19.999,17.461l-1.4,0.548c1.605-1.894,2.479-4.267,2.479-6.782c0-2.808-1.093-5.448-3.079-7.434
		c-1.986-1.985-4.626-3.079-7.434-3.079S5.117,1.807,3.131,3.792c-1.985,1.986-3.079,4.626-3.079,7.434s1.094,5.448,3.079,7.434
		c1.986,1.986,4.626,3.079,7.434,3.079c2.163,0,4.24-0.651,6.008-1.884c0.154-0.108,0.192-0.32,0.085-0.474
		c-0.108-0.154-0.32-0.192-0.474-0.085c-1.653,1.153-3.595,1.762-5.618,1.762c-2.626,0-5.095-1.023-6.952-2.88
		c-1.857-1.857-2.88-4.326-2.88-6.952c0-2.626,1.023-5.095,2.88-6.952c1.857-1.857,4.326-2.88,6.952-2.88
		c2.626,0,5.095,1.023,6.952,2.88c1.857,1.857,2.88,4.326,2.88,6.952c0,2.436-0.877,4.729-2.481,6.53l0.282-1.749
		c0.03-0.186-0.096-0.361-0.282-0.39c-0.186-0.03-0.361,0.096-0.39,0.282l-0.365,2.264c-0.041,0.253,0.054,0.499,0.253,0.66
		c0.128,0.104,0.283,0.157,0.44,0.157c0.087,0,0.174-0.016,0.259-0.049l2.136-0.835c0.175-0.069,0.262-0.266,0.193-0.441
		C20.372,17.479,20.174,17.392,19.999,17.461L19.999,17.461z M19.999,17.461"/>
	<g>
		<path d="M8.345,8.733V7.428h4.807v1.021c-0.396,0.39-0.8,0.95-1.21,1.681c-0.41,0.73-0.724,1.506-0.938,2.328
			c-0.215,0.822-0.321,1.557-0.317,2.203H9.33c0.023-1.014,0.232-2.047,0.628-3.101c0.395-1.054,0.923-1.996,1.583-2.826H8.345z"/>
	</g>
</g>
</svg>
