<?xml version="1.0" encoding="utf-8"?>
<!-- Generator: Adobe Illustrator 17.0.0, SVG Export Plug-In . SVG Version: 6.00 Build 0)  -->
<!DOCTYPE svg PUBLIC "-//W3C//DTD SVG 1.1//EN" "http://www.w3.org/Graphics/SVG/1.1/DTD/svg11.dtd">
<svg version="1.1" id="Layer_1" xmlns="http://www.w3.org/2000/svg" xmlns:xlink="http://www.w3.org/1999/xlink" x="0px" y="0px"
	 width="17px" height="17px" viewBox="0 0 17 17" enable-background="new 0 0 17 17" xml:space="preserve">
<g transform="translate(2025)">
	<path fill="#020202" d="M-2008.096,15.703l-4.553-4.613c0.892-1.156,1.428-2.609,1.428-4.199c0-3.772-2.986-6.797-6.706-6.797
		c-3.721,0-6.708,3.025-6.708,6.796c0,3.772,2.986,6.796,6.708,6.796c1.68,0,3.206-0.623,4.38-1.644l4.531,4.59L-2008.096,15.703
		L-2008.096,15.703z M-2017.927,1.321c3.028,0,5.495,2.5,5.495,5.569s-2.467,5.569-5.495,5.569c-3.029,0-5.496-2.5-5.496-5.569
		C-2023.423,3.82-2020.956,1.321-2017.927,1.321z"/>
</g>
</svg>
