<?xml version="1.0" encoding="utf-8"?>
<!-- Generator: Adobe Illustrator 17.0.0, SVG Export Plug-In . SVG Version: 6.00 Build 0)  -->
<!DOCTYPE svg PUBLIC "-//W3C//DTD SVG 1.1//EN" "http://www.w3.org/Graphics/SVG/1.1/DTD/svg11.dtd">
<svg version="1.1" id="Layer_1" xmlns="http://www.w3.org/2000/svg" xmlns:xlink="http://www.w3.org/1999/xlink" x="0px" y="0px"
	 width="34px" height="34px" viewBox="0 0 34 34" enable-background="new 0 0 34 34" xml:space="preserve">
<g display="none">
	<path id="Facebook" display="inline" fill="#010101" d="M13.888,7.416c0,0.793,0,4.333,0,4.333h-3.174v5.298h3.174v15.745h6.521
		V17.048h4.376c0,0,0.41-2.541,0.608-5.318c-0.57,0-4.96,0-4.96,0s0-3.082,0-3.623c0-0.541,0.711-1.27,1.414-1.27
		c0.701,0,2.182,0,3.553,0c0-0.721,0-3.214,0-5.516c-1.83,0-3.913,0-4.831,0C13.727,1.321,13.888,6.625,13.888,7.416z"/>
</g>
<g>
	<g>
		<path fill="#040305" d="M33.333,6.622c-1.202,0.533-2.492,0.894-3.848,1.055c1.384-0.829,2.443-2.143,2.946-3.705
			C31.133,4.74,29.7,5.297,28.173,5.6c-1.223-1.304-2.962-2.117-4.891-2.117c-3.701,0-6.702,3.001-6.702,6.699
			c0,0.525,0.059,1.037,0.174,1.527c-5.569-0.28-10.506-2.948-13.811-7.002C2.365,5.695,2.036,6.847,2.036,8.076
			c0,2.325,1.184,4.377,2.98,5.577c-1.098-0.037-2.131-0.339-3.035-0.841v0.084c0,3.246,2.311,5.954,5.375,6.571
			c-0.561,0.151-1.153,0.235-1.766,0.235c-0.433,0-0.851-0.043-1.262-0.125c0.853,2.664,3.327,4.601,6.259,4.654
			c-2.292,1.796-5.183,2.864-8.322,2.864c-0.541,0-1.074-0.033-1.598-0.092c2.966,1.905,6.487,3.015,10.272,3.015
			c12.327,0,19.066-10.211,19.066-19.066l-0.022-0.868C31.298,9.145,32.437,7.965,33.333,6.622z"/>
	</g>
</g>
</svg>
