<?xml version="1.0" encoding="utf-8"?>
<!-- Generator: Adobe Illustrator 17.0.0, SVG Export Plug-In . SVG Version: 6.00 Build 0)  -->
<!DOCTYPE svg PUBLIC "-//W3C//DTD SVG 1.1//EN" "http://www.w3.org/Graphics/SVG/1.1/DTD/svg11.dtd">
<svg version="1.1" id="Layer_1" xmlns="http://www.w3.org/2000/svg" xmlns:xlink="http://www.w3.org/1999/xlink" x="0px" y="0px"
	 width="30px" height="30px" viewBox="0 0 30 30" enable-background="new 0 0 30 30" xml:space="preserve">
<radialGradient id="SVGID_1_" cx="14.8089" cy="3.5444" r="61.1219" gradientUnits="userSpaceOnUse">
	<stop  offset="0.1342" style="stop-color:#FFFFFF"/>
	<stop  offset="1" style="stop-color:#232020"/>
</radialGradient>
<path fill="url(#SVGID_1_)" d="M28.508,5.24c-1.276-1.895-3.917-3.106-6.73-3.087c-0.199,0.001-0.397,0.009-0.594,0.023
	c-2.773,0.196-4.827,1.474-5.98,3.705c-1.185-2.214-3.256-3.464-6.031-3.621C8.976,2.25,8.777,2.245,8.579,2.246
	c-2.814,0.02-5.438,1.268-6.686,3.18C0.799,7.102,0.475,9.141,0.93,11.485c1.235,6.35,6.962,12.435,14.427,16.297l0,0
	c0,0,0,0,0-0.001l0,0l0,0c7.41-3.965,13.051-10.13,14.197-16.496C29.977,8.935,29.625,6.901,28.508,5.24z"/>
</svg>
