<?xml version="1.0" encoding="utf-8"?>
<!-- Generator: Adobe Illustrator 17.0.0, SVG Export Plug-In . SVG Version: 6.00 Build 0)  -->
<!DOCTYPE svg PUBLIC "-//W3C//DTD SVG 1.1//EN" "http://www.w3.org/Graphics/SVG/1.1/DTD/svg11.dtd">
<svg version="1.1" xmlns="http://www.w3.org/2000/svg" xmlns:xlink="http://www.w3.org/1999/xlink" x="0px" y="0px" width="180px"
	 height="60px" viewBox="0 0 180 60" enable-background="new 0 0 180 60" xml:space="preserve">
<g id="Layer_1" display="none">
	<polygon display="inline" fill-rule="evenodd" clip-rule="evenodd" fill="#E13A3E" points="2.067,15.324 36.39,15.324 36.39,39.2 
		2.067,39.2 2.067,15.324 	"/>
	<path display="inline" fill-rule="evenodd" clip-rule="evenodd" fill="#FFFFFF" d="M16.904,29.81
		c0.031,0.157-0.041,0.273-0.116,0.385c-0.14,0.121-0.273,0.244-0.482,0.191c-0.086-0.047-0.175-0.14-0.14-0.26
		c0.164-0.228,0.414-0.334,0.669-0.386L16.904,29.81L16.904,29.81z"/>
	<path display="inline" fill-rule="evenodd" clip-rule="evenodd" fill="#FFFFFF" d="M24.637,28.496
		c0.28,0.198,0.088,0.558,0.075,0.814c-0.256,0.419-0.947,0.553-0.814,1.176c-0.308,0.443-0.961,0.164-1.391,0.14
		c-0.14-0.048-0.349-0.075-0.359-0.262c0.045-0.314,0.441-0.332,0.574-0.622c0.243-0.372-0.109-1.016,0.314-1.29
		C23.584,28.432,24.107,28.477,24.637,28.496L24.637,28.496z"/>
	<path display="inline" fill-rule="evenodd" clip-rule="evenodd" fill="#FFFFFF" d="M17.144,28.329c0.041,0.278,0.146,0.603,0,0.859
		c-0.052,0.046-0.127,0.018-0.185,0.052c-0.157-0.33-0.321-0.661-0.553-0.958c-0.024-0.11,0.024-0.202,0.116-0.239
		C16.765,28.053,17.027,28.072,17.144,28.329L17.144,28.329z"/>
	<path display="inline" fill-rule="evenodd" clip-rule="evenodd" fill="#FFFFFF" d="M28.562,25.96
		c0.502,0.465,0.922,0.971,0.908,1.651c0.297,0.441-0.25,0.722-0.452,1.053c-0.228,0.228-0.646,0.147-0.933,0.093
		c-0.116-0.069-0.151-0.203-0.099-0.306c0.28-0.59,1.449-0.922,0.861-1.677c-0.127-0.302-0.592-0.424-0.499-0.791
		C28.417,25.978,28.493,25.895,28.562,25.96L28.562,25.96z"/>
	<path display="inline" fill-rule="evenodd" clip-rule="evenodd" fill="#FFFFFF" d="M21.454,23.424
		c1.21-0.401,2.85-0.618,3.974,0.116c0.801,0.417,1.535,1.006,2.25,1.651c0.479,0.379,0.349,1.005,0.407,1.559
		c-0.168,0.612-0.64,1.094-0.698,1.746c-0.444,0.39,0.11,1.053-0.308,1.46c-0.228,0.42,0.372,0.844-0.146,1.124
		c-0.441,0.25-1.141,0.463-1.6,0.1c-0.104-0.084-0.121-0.228-0.076-0.341c0.179-0.189,0.362-0.389,0.383-0.644
		c-0.052-0.646-0.424-1.158-0.452-1.821c-0.129-0.379-0.478-0.162-0.745-0.187c-0.693,0.03-1.565-0.226-2.082,0.31
		c-0.769,0.355-1.821,0.377-2.583-0.024c-0.138,0.013-0.233,0.168-0.308,0.263c-0.291,0.678-0.78,1.279-0.792,2.082
		c-0.086,0.233-0.332,0.278-0.551,0.284c-0.396-0.086-0.775-0.127-1.199-0.069c-0.106-0.037-0.175-0.104-0.216-0.215
		c0.175-0.495,0.601-0.896,0.676-1.439c0.11-0.417,0.11-0.964-0.099-1.337c-0.235-0.256-0.594-0.204-0.885-0.314
		c-0.209-0.065-0.407-0.158-0.623-0.216c-0.32,0.157-0.325,0.635-0.715,0.7c-0.239,0.128-0.256,0.476-0.553,0.452
		c-0.896-0.376-1.466,0.612-2.276,0.739c-0.971-0.086-1.755,0.267-2.489,0.769c-0.1,0.045-0.239,0.019-0.332-0.024
		c-0.18-0.14-0.279-0.314-0.267-0.53c0.004-0.314,0.187-0.588,0.12-0.906c-0.364-0.392-0.51-0.961-0.336-1.484
		c0.076-0.157,0.127-0.385,0.314-0.433c0.291-0.009,0.222,0.34,0.331,0.502c0.1,0.123,0.216,0.291,0.383,0.291
		c0.541-0.12,0.868-0.702,0.961-1.197c-0.041-0.513,0.657-0.659,0.667-1.152c0.024-0.409,0.194-0.825,0.526-1.053
		c0.271,0.041,0.465,0.489,0.767,0.216c0.187-0.147,0.355,0.093,0.553-0.024c1.186-0.964,2.513-1.617,4.043-1.767
		C18.931,22.58,19.936,23.912,21.454,23.424L21.454,23.424z"/>
	<path display="inline" fill-rule="evenodd" clip-rule="evenodd" fill="#FFFFFF" d="M32.967,27.512c0.064-0.035,0.174-0.035,0.239,0
		c0.301,0.116,0.133,0.495,0.144,0.722c-0.26,2.823-2.216,5.561-4.858,6.795c-1.135,0.558-2.403,0.797-3.757,0.816l-4.933-0.026
		l-0.146-0.168c0.006-0.906-0.015-1.74,0.03-2.629c0.086-0.109,0.186-0.187,0.332-0.168l5.004,0.022c2-0.082,3.901-1.256,4.81-3.114
		c0.338-0.633,0.469-1.348,0.575-2.08c0.052-0.112,0.17-0.14,0.262-0.194L32.967,27.512L32.967,27.512z"/>
	<path display="inline" fill-rule="evenodd" clip-rule="evenodd" fill="#FFFFFF" d="M7.691,27.512
		c0.093-0.028,0.168-0.017,0.237,0.052c0.256,0.204,0.112,0.57,0.216,0.839c0.303,1.888,2.036,3.74,3.882,4.233
		c0.401,0.106,0.814,0.181,1.243,0.217l5.505,0.022c0.093-0.035,0.22-0.035,0.315,0l0.168,0.192l-0.031,1.869
		c-0.017,0.284,0.177,0.743-0.161,0.908l-6.225-0.026c-3.048-0.233-6.033-2.424-7.157-5.309c-0.332-0.903-0.582-1.863-0.575-2.875
		c0.058-0.071,0.133-0.123,0.215-0.146L7.691,27.512L7.691,27.512z"/>
	<path display="inline" fill-rule="evenodd" clip-rule="evenodd" fill="#FFFFFF" d="M25.573,18.706
		c3.124,0.203,6.218,2.547,7.271,5.531c0.28,0.868,0.553,1.757,0.506,2.728l-0.191,0.14l-2.321-0.021
		c-0.069,0.034-0.175,0.034-0.239,0c-0.342-0.183-0.175-0.611-0.291-0.909c-0.325-1.89-2.018-3.794-3.897-4.287
		c-0.407-0.106-0.831-0.176-1.268-0.215l-4.188-0.026l-1.083,0.026c-0.093-0.061-0.151-0.119-0.215-0.215v-2.584l0.192-0.192
		L25.573,18.706L25.573,18.706z"/>
	<path display="inline" fill-rule="evenodd" clip-rule="evenodd" fill="#FFFFFF" d="M19.088,18.706
		c0.288,0.121,0.116,0.476,0.168,0.722c-0.048,0.678-0.024,1.419-0.031,2.082c-0.151,0.273-0.488,0.122-0.738,0.164l-4.957-0.026
		c-2.065,0.041-4.013,1.257-4.926,3.161c-0.325,0.663-0.482,1.384-0.577,2.134c-0.075,0.089-0.168,0.164-0.284,0.164l-2.157-0.021
		c-0.093,0.034-0.239,0.034-0.334,0c-0.301-0.129-0.134-0.525-0.144-0.765c0.228-3.094,2.706-6.207,5.671-7.161
		c0.78-0.233,1.572-0.424,2.42-0.476L19.088,18.706L19.088,18.706z"/>
	<path display="inline" fill-rule="evenodd" clip-rule="evenodd" d="M92.019,27.076c0.005-4.026,1.576-6.821,5.943-6.819
		c4.368,0.008,5.945,2.808,5.936,6.838l-0.008,5.396c-0.004,4.03-1.583,6.83-5.95,6.825c-4.373-0.008-5.936-2.81-5.929-6.842
		L92.019,27.076L92.019,27.076z M100.072,26.408c0.004-2.118-0.745-3.008-2.114-3.01c-1.363-0.002-2.115,0.887-2.119,3.006
		l-0.006,6.759c-0.004,2.116,0.745,3.006,2.112,3.006c1.363,0.002,2.112-0.883,2.117-3L100.072,26.408L100.072,26.408z"/>
	<polygon display="inline" fill-rule="evenodd" clip-rule="evenodd" points="102.919,18.588 93.3,18.579 93.3,15.457 102.92,15.473 
		102.919,18.588 	"/>
	<polygon display="inline" fill-rule="evenodd" clip-rule="evenodd" points="50.198,19.55 48.105,19.587 50.015,20.864 
		50.583,21.617 49.102,22.875 48.445,22.033 47.452,20.091 46.337,22.061 45.819,22.836 44.233,21.611 44.841,20.771 46.761,19.77 
		44.624,19.432 43.536,19.038 44.404,17.225 45.573,17.679 47.088,18.837 46.329,16.335 46.331,15.373 48.467,15.376 48.465,16.312 
		47.732,18.874 49.653,17.572 50.558,17.249 51.246,19.204 50.198,19.55 	"/>
	<polygon display="inline" fill-rule="evenodd" clip-rule="evenodd" points="91.36,38.963 87.091,26.085 90.941,20.588 
		86.843,20.584 82.636,27.065 82.565,27.065 82.584,15.418 78.762,15.414 78.728,38.943 82.55,38.952 82.559,32.527 84.571,29.674 
		87.556,38.963 91.36,38.963 	"/>
	<path display="inline" fill-rule="evenodd" clip-rule="evenodd" d="M62.713,30.455l-8.065-0.008l-0.002,2.663
		c-0.003,2.121,0.749,3.012,2.11,3.014c1.374,0,2.123-0.887,2.123-3.003V32.71l3.834,0.004c-0.073,3.897-1.681,6.563-5.96,6.559
		c-4.377-0.009-5.945-2.814-5.938-6.847l0.006-5.404c0.007-4.036,1.582-6.836,5.96-6.832c4.38,0.006,5.947,2.812,5.939,6.847
		L62.713,30.455L62.713,30.455z M58.888,27.308l0.002-0.958c0-2.121-0.745-3.01-2.112-3.014c-1.364,0-2.121,0.887-2.123,3.01
		l-0.003,0.956L58.888,27.308L58.888,27.308z"/>
	<path display="inline" fill-rule="evenodd" clip-rule="evenodd" d="M72.747,27.338l3.818,0.004v-0.489
		c-0.059-3.927-1.632-6.629-5.93-6.631c-4.37-0.008-5.943,2.788-5.949,6.817l-0.011,5.398c-0.004,4.028,1.561,6.834,5.93,6.838
		c4.284,0.004,5.878-2.678,5.944-6.573l-3.813-0.004v0.434c0,2.117-0.756,3.002-2.123,2.997c-1.367,0-2.117-0.887-2.117-3.003
		l0.011-6.763c0.005-2.117,0.758-3.003,2.12-3.003c1.374,0.002,2.121,0.894,2.121,3.01v0.48L72.747,27.338L72.747,27.338z"/>
	<polygon display="inline" fill-rule="evenodd" clip-rule="evenodd" points="176.606,42.489 173.403,42.488 173.462,39.291 
		176.606,39.292 176.606,42.489 	"/>
	<path display="inline" fill-rule="evenodd" clip-rule="evenodd" d="M124.219,20.411l-0.056,18.683l-3.791-0.015l0.004-1.869
		c-1.688,1.38-2.543,2.209-4.87,2.205c-2.112-0.009-3.363-1.505-3.35-3.936l0.043-15.106l4.009,0.013l-0.048,14.482
		c-0.005,0.939,0.571,1.356,1.426,1.356c0.861,0.004,1.649-0.512,2.583-1.171l0.043-14.651L124.219,20.411L124.219,20.411z"/>
	<path display="inline" fill-rule="evenodd" clip-rule="evenodd" d="M127.194,39.104l0.05-18.684l3.796,0.013l-0.004,1.873
		c1.686-1.385,2.547-2.214,4.87-2.209c2.114,0.007,3.363,1.507,3.352,3.936l-0.045,15.106l-4.007-0.013l0.045-14.482
		c0-0.939-0.571-1.354-1.425-1.359c-0.864-0.003-1.649,0.514-2.584,1.173l-0.043,14.652L127.194,39.104L127.194,39.104z"/>
	<polygon display="inline" fill-rule="evenodd" clip-rule="evenodd" points="142.276,39.145 142.35,15.222 146.355,15.235 
		146.286,39.161 142.276,39.145 	"/>
	<path display="inline" fill-rule="evenodd" clip-rule="evenodd" d="M148.536,23.68l0.013-3.197l2.217,0.008l0.018-5.036
		l4.008,0.013l-0.019,5.036l2.687,0.008l-0.013,3.193l-2.683-0.008l-0.032,10.766c-0.005,0.973,0.426,1.528,1.354,1.528l1.322,0.004
		l-0.013,3.34c-0.532,0.135-0.999,0.202-2,0.198c-3.003-0.008-4.683-1.365-4.675-4.215l0.032-11.631L148.536,23.68L148.536,23.68z"
		/>
	<path display="inline" fill-rule="evenodd" clip-rule="evenodd" d="M167.321,35.406c-0.788,0.551-1.507,0.964-2.29,0.964
		c-1.074-0.002-1.925-0.562-1.923-3.027l0.017-6.948c0.006-2.463,0.872-3.014,1.944-3.014c0.789,0.002,1.501,0.422,2.287,0.979
		L167.321,35.406L167.321,35.406z M171.317,39.236l0.073-23.924l-4.007-0.013l-0.019,6.841c-1.572-1.255-2.392-1.953-4.149-1.959
		c-2.504-0.007-4.083,1.793-4.091,5.198l-0.024,8.959c-0.015,3.404,1.555,5.21,4.057,5.223c2.007,0.003,2.973-0.654,4.297-2.28
		h0.077l-0.006,1.945L171.317,39.236L171.317,39.236z"/>
</g>
<g id="Layer_5" display="none">
	<path display="inline" fill-rule="evenodd" clip-rule="evenodd" d="M15.954,54.732c-23.506-6.812,9.082-33.122,15.76-38.865
		c7.479-4.808,17.496-14.024,27.112-7.079c0,7.079-5.476,2.938-9.082,2.938c-8.815,4.407-36.194,24.842-34.858,35.526
		c3.339,5.075,28.715-2.27,34.725-3.473c7.212-0.801,7.212-0.801,13.222-0.801c2.003,3.339,2.003,3.339,2.805,6.01
		c-0.267,0.134-0.534,0.401-0.668,0.668C48.007,50.458,31.981,53.664,15.954,54.732L15.954,54.732z M151.882,52.122
		c-3.423-3.821-5.337-7.026-7.341-10.365c-2.31,1.185-3.352,2.741-4.828,3.999c-0.467,1.587-0.421,4.057-0.753,5.882
		c-1.603,0.134-3.076-0.163-4.679-0.029c-0.133-4.14,0.081-8.754,0.081-12.894c-4.942,8.014-7.288,12.546-17.172,9.073
		c-1.469-3.74-2.003-5.877-2.137-8.548c-0.401,0-0.801,0-1.202,0.134c-4.274,6.411-10.685,16.027-18.297,7.479
		c-6.945,4.942-10.685,6.01-15.493-0.267c-8.681,5.743-11.753,4.407-14.157-4.407c0.401-9.349,1.603-23.506,6.811-30.318
		c0.668,0,1.336,0,2.137,0c1.069,1.202,2.137,2.404,3.205,3.606c-0.668,5.476-8.681,25.242-4.674,29.249
		c8.681,0,11.473-15.505,26.031-11.365c0.983,2.622-1.346,11.543,3.934,11.403c3.546-0.094,7.106-10.913,8.099-13.795
		c3.032-0.684,5.61,2.538,8.815,4.808c0.134,2.404,0.134,4.14,1.736,7.346c7.479,0,10.952-12.821,13.489-18.297
		c0.668-3.072,1.469-6.144,2.271-9.082c1.87-0.267,3.339-1.603,4.808,2.003c-0.534,5.877-2.639,13.962-2.261,21.265
		c3.205-2.671,13.613-13.385,18.555-12.45c0.134,2.805,0.134,2.805-0.267,5.209c-4.883,1.809-7.794,4.381-9.478,6.169
		c-0.171,3.501,6.66,7.714,6.658,11.039c-0.001,1.056-0.875,1.973-2.122,3.226C153.263,52.584,152.288,52.576,151.882,52.122
		L151.882,52.122z M158.459,51.26c-1.202-1.603-1.202-1.87-0.935-2.938c2.671-0.935,6.544-1.603,8.681-4.407
		c-1.336-4.274-7.613-1.202-7.613-8.147c2.805-4.808,7.613-6.811,13.356-5.209c0.133,0.801,0.267,1.603,0.401,2.538
		c-3.339,0.935-5.209-0.134-7.479,1.603c0,2.671,3.873,2.404,7.079,4.675C174.887,48.322,164.87,50.191,158.459,51.26L158.459,51.26
		z M89.358,45.918c-1.838,0.061-2.963-1.479-2.938-2.671c0.082-3.749,5.99-6.64,7.492-5.89c0.134,2.003-0.014,3.766,0.12,5.903
		C93.366,43.776,91.361,45.851,89.358,45.918L89.358,45.918z"/>
</g>
<g id="Layer_6">
	<path fill-rule="evenodd" clip-rule="evenodd" fill="#019648" d="M102.957,50.334V38.82c0-2.583-2.364-4.582-4.86-4.582
		c-2.495,0-4.874,1.999-4.874,4.582v11.514h-3.765V38.82c0-4.597,4.101-8.377,8.639-8.377c4.524,0,8.625,3.78,8.625,8.377v11.514
		H102.957L102.957,50.334z"/>
	<polygon fill-rule="evenodd" clip-rule="evenodd" fill="#019648" points="127.284,50.334 127.284,9.005 131.049,9.005 
		131.049,15.397 133.72,15.397 133.72,19.308 131.049,19.308 131.049,50.334 127.284,50.334 	"/>
	<polygon fill-rule="evenodd" clip-rule="evenodd" fill="#019648" points="134.202,50.334 134.202,9.005 137.967,9.005 
		137.967,15.397 140.623,15.397 140.623,19.308 137.967,19.308 137.967,50.334 134.202,50.334 	"/>
	<path fill-rule="evenodd" clip-rule="evenodd" fill="#019648" d="M173.823,50.334V38.82c0-2.583-2.379-4.582-4.874-4.582
		c-2.496,0-4.874,1.999-4.874,4.582v11.514h-3.765V38.82c0-4.597,4.101-8.377,8.639-8.377c4.524,0,8.639,3.78,8.639,8.377v11.514
		H173.823L173.823,50.334z"/>
	<polygon fill-rule="evenodd" clip-rule="evenodd" fill="#019648" points="21.555,38.82 19.293,37.506 17.031,38.82 19.293,40.104 
		21.555,38.82 	"/>
	<path fill-rule="evenodd" clip-rule="evenodd" fill="#019648" d="M85.431,45.489v4.188c-1.357,0.686-2.758,0.992-4.29,0.992
		c-5.619,0-10.201-4.699-10.201-10.303c0-5.648,4.612-10.216,10.274-10.216c3.298,0,6.29,1.664,8.245,4.261L76.966,45.445
		c1.211,1.095,2.7,1.664,4.349,1.664C82.847,47.109,84.278,46.467,85.431,45.489L85.431,45.489z M75.055,42.687l9.121-8.128
		c-0.919-0.54-2.014-0.701-3.065-0.701c-3.517,0-6.29,2.86-6.479,6.348C74.588,41.082,74.763,41.87,75.055,42.687L75.055,42.687z"/>
	<path fill-rule="evenodd" clip-rule="evenodd" fill="#019648" d="M122.352,45.489v4.188c-1.372,0.686-2.758,0.992-4.29,0.992
		c-5.618,0-10.201-4.699-10.201-10.303c0-5.648,4.612-10.216,10.274-10.216c3.298,0,6.29,1.664,8.231,4.261l-12.477,11.033
		c1.211,1.095,2.685,1.664,4.334,1.664C119.754,47.109,121.199,46.467,122.352,45.489L122.352,45.489z M111.961,42.687l9.135-8.128
		c-0.919-0.54-2.014-0.701-3.064-0.701c-3.532,0-6.305,2.86-6.48,6.348C111.509,41.082,111.669,41.87,111.961,42.687L111.961,42.687
		z"/>
	<path fill-rule="evenodd" clip-rule="evenodd" fill="#019648" d="M49.954,9.005h3.765v23.627c1.591-1.795,3.853-2.627,6.261-2.627
		c5.692,0,10.245,4.655,10.245,10.288c0,5.764-4.539,10.172-10.303,10.172c-5.837,0-9.967-4.276-9.967-10.07V9.005L49.954,9.005z
		 M60.067,33.814c-3.517,0-6.348,3.021-6.348,6.494c0,3.473,2.831,6.494,6.348,6.494c3.517,0,6.333-3.021,6.333-6.494
		C66.401,36.835,63.599,33.814,60.067,33.814L60.067,33.814z"/>
	<path fill-rule="evenodd" clip-rule="evenodd" fill="#019648" d="M149.189,29.976c5.575,0,10.245,4.67,10.245,10.245
		c0,5.575-4.655,10.245-10.245,10.245c-5.575,0-10.23-4.67-10.23-10.245C138.959,34.646,143.629,29.976,149.189,29.976
		L149.189,29.976z M149.218,33.683c-3.561,0-6.538,2.977-6.538,6.538c0,3.561,2.977,6.552,6.538,6.552
		c3.561,0,6.553-2.977,6.553-6.552C155.771,36.66,152.794,33.683,149.218,33.683L149.218,33.683z"/>
</g>
<g id="Layer_7">
	<path fill-rule="evenodd" clip-rule="evenodd" fill="#019648" d="M24.736,50.334c-0.16-2.962-2.364-5.297-5.443-5.297
		c-3.065,0-5.268,2.335-5.429,5.297h-3.59c0.234-3.006,1.474-6.275,4.393-7.661l0.861-0.409l0.19-0.102l-2.233-1.284L1.168,47.999
		v-4.539l8.318-4.787l-8.318-4.684v-4.51l12.04,7.107l2.145-1.255c-5.371-3.138-9.88-6.786-9.88-13.645
		c0-7.603,6.275-13.601,13.82-13.601c7.545,0,13.82,5.998,13.82,13.601c0,6.859-4.509,10.507-9.88,13.645l2.145,1.255l12.039-7.107
		v4.51l-8.303,4.684l8.303,4.787v4.539l-12.317-7.122l-2.218,1.284l0.175,0.102l0.875,0.409c2.904,1.386,4.145,4.655,4.378,7.661
		H24.736L24.736,50.334z M19.293,33.114c4.772-2.306,10.055-5.312,10.055-11.31c0-5.473-4.582-9.953-10.04-9.953
		c-5.472,0-10.07,4.48-10.07,9.953c0,3.006,1.314,5.356,3.546,7.282C13.412,29.64,18.724,33.391,19.293,33.114L19.293,33.114z"/>
</g>
<g id="Layer_4" display="none">
	<g display="inline">
		<path d="M89.11,12.76c11.709,0,21.277,9.137,21.277,20.329s-9.568,20.329-21.277,20.329c-11.723,0-21.277-9.137-21.277-20.329
			S77.387,12.76,89.11,12.76z"/>
		<path fill="#FFF200" d="M89.11,13.449c11.335,0,20.573,8.821,20.573,19.639s-9.238,19.639-20.573,19.639
			s-20.587-8.821-20.587-19.639S77.775,13.449,89.11,13.449z"/>
		<path d="M115.315,36.048c-1.092,12.901-12.6,23.102-26.55,23.102c-12.556,0-23.13-8.261-25.917-19.294l3.074-0.23
			c3.606,9.295,12.499,15.89,22.843,15.89c11.565,0,21.306-8.246,23.892-19.266L115.315,36.048z"/>
		<path d="M61.383,18.779v-1.968h1.552v1.968H61.383L61.383,18.779z M61.383,13.708v-2.83c0.259,0.172,0.488,0.445,0.488,0.876
			v1.954H61.383z M45.996,15.03h0.115c2.27,0.057,1.753-1.681,1.753-5.043c0-3.319,0.46-4.985-1.868-5V1.338h2.184
			c2.974,0,5.028,2.026,5.028,3.046l-0.057,11.407c0,1.681-1.796,2.988-4.64,2.988h-2.514V15.03L45.996,15.03z M61.383,10.878v2.83
			l-1.25,0.014c-0.014-1.293-0.33-1.394-0.761-1.394c-0.431,0.014-0.761,0.316-0.761,1.379v3.189h0.718v1.882h-4.195v-1.882h0.503
			v-4.195h-0.503v-1.896h3.347v0.977c0.158-0.388,1.006-1.149,2.098-1.192C60.664,10.59,61.052,10.662,61.383,10.878L61.383,10.878z
			 M61.383,16.811h-0.488v1.968h0.488V16.811z M44.071,14.987l1.925,0.043v3.75h-8.534v-3.491h0.56
			c0.517,0.029,0.718-0.302,0.718-0.661V5.49c0.014-0.46-0.287-0.589-0.79-0.632l-0.488-0.029V1.338h8.534v3.649
			c-0.014,0-0.029,0-0.029,0h-1.896V14.987z"/>
		<path d="M109.382,36.537c-1.681,8.893-9.87,15.688-19.654,15.688c-7.226,0-13.576-3.692-17.082-9.195
			c3.175,2.485,8.864,9.295,20.961,7.255c-4.669-1.192-10.401-1.781-16.148-7.528C90.992,42.915,100.791,39.783,109.382,36.537z"/>
		<g>
			<path fill="#FFF200" d="M99.426,11.409h0.072c-0.029,0.158-0.043,0.302-0.072,0.46V11.409L99.426,11.409z M99.426,12.674
				l0.761,0.776c-0.201,1.523-0.402,3.031-0.603,4.554l2.256,0.129c0.603-0.503,1.207-1.02,1.81-1.523l2.083,1.58
				c0.632-0.575,1.25-1.164,1.882-1.753c-0.273-0.431-0.56-0.848-0.848-1.279c0.072-0.388,0.158-0.79,0.244-1.178l0.316,0.359
				l1.667,0.144c0.129-0.761,0.273-1.537,0.402-2.299c-0.776-0.374-1.537-0.733-2.313-1.106c-1.063-0.029-2.126-0.072-3.189-0.101
				c0.101,0.56,0.201,1.106,0.316,1.667l0.014,0.144l-0.503,2.572c-0.273-0.043-0.546-0.101-0.819-0.144
				c0.115-0.56,0.215-1.135,0.33-1.695l0.23-1.537l-3.319-1.149c-0.244,0.532-0.488,1.049-0.718,1.58V12.674L99.426,12.674z
				 M101.566,7.717l0.905-0.215l0.144-0.014l0.172,0.014l0.172,0.043l0.158,0.072l0.144,0.101l0.115,0.129l0.086,0.158
				c0.072,0.187,0.115,0.374,0.158,0.575l0.115,0.575v0.172l-0.057,0.172l-0.072,0.158l-0.101,0.129l-0.129,0.115l-0.158,0.101
				c-0.388,0.129-0.805,0.201-1.192,0.302l-0.144,0.014h-0.187l-0.172-0.057l-0.144-0.072l-0.144-0.101l-0.115-0.129L101.02,9.8
				c-0.101-0.316-0.172-0.661-0.244-1.006l-0.029-0.129l0.014-0.187l0.043-0.172l0.086-0.158l0.101-0.129l0.129-0.115l0.144-0.101
				L101.566,7.717z M78.68,12.717c0.402,0.144,0.805,0.287,1.207,0.417l-0.215,1.537c-0.115,0.575-0.23,1.149-0.345,1.71
				l1.092,0.172l0.517-2.615l-0.029-0.129l-0.302-1.681l3.189,0.101c0.761,0.374,1.523,0.747,2.299,1.106l-0.101-2.011l-0.905-1.911
				c1.121-1.006,2.256-2.011,3.376-3.017l0.201,3.778c1.063-0.661,2.141-1.336,3.189-1.997c0.086,1.192,0.158,2.37,0.244,3.563
				l2.212-4.166l3.003,0.115v1.796l-1.25,0.805c-0.287,0.215-0.56,0.417-0.848,0.618l-1.609,4.224
				c0.776-0.546,1.552-1.092,2.327-1.638l-0.46-0.172l0.172-1.911h3.778v0.46c-0.244,1.293-0.474,2.586-0.718,3.865l0.532,0.977
				c-0.474,1.049-0.963,2.083-1.451,3.132l-1.408-1.408l-1.523,0.603c-0.575-0.474-1.149-0.963-1.724-1.437l-0.23-1.006
				l-2.514,2.442L89.8,16.61l-0.101,0.072v0.963l-1.58,0.79c-0.632-0.819-1.279-1.638-1.911-2.457l-0.115-2.586l-0.402,2.256
				l-1.667-0.144l-0.316-0.374c-0.086,0.402-0.158,0.805-0.244,1.192l0.862,1.279l-1.882,1.753l-2.227-1.695l-1.537,1.293V12.717
				L78.68,12.717z M99.426,12.415c-0.029,0.057-0.057,0.115-0.086,0.187l0.086,0.072V12.415L99.426,12.415z M78.68,11.409
				l0.977-0.244l0.144-0.101l0.129-0.115l0.115-0.144l0.072-0.158l0.043-0.158l0.014-0.172l-0.129-0.589
				c-0.043-0.187-0.086-0.388-0.158-0.575L79.801,9.01l-0.115-0.129L79.557,8.78l-0.158-0.086l-0.172-0.043l-0.172-0.014
				L78.91,8.665l-0.23,0.057V11.409z M76.066,18.837c0.172-1.408,0.359-2.816,0.546-4.224l-0.848-0.862l0.805-1.753
				c0.704,0.244,1.408,0.474,2.112,0.718v6.235l-0.417,0.345l-1.767-0.101l0.23,0.187c-1.207,0.819-2.414,1.638-3.606,2.457
				c-0.345-0.948-0.69-1.911-1.034-2.859c-0.172,0-0.345-0.014-0.517-0.014l-1.034,3.204l-3.017-2.557l0.675-1.695l1.034,0.215
				l1.207-2.931l1.02-2.615l0.833-1.609l0.79-1.178l1.896-0.158v8.275L76.066,18.837L76.066,18.837z M78.68,8.723l-0.675,0.158
				l-0.302,0.086l-0.158,0.086l-0.129,0.115l-0.101,0.144L77.244,9.47l-0.057,0.172v0.172l0.014,0.144
				c0.072,0.33,0.144,0.69,0.259,1.006l0.086,0.158l0.115,0.129l0.144,0.101l0.158,0.072l0.172,0.043l0.172,0.014l0.144-0.014
				l0.23-0.057V8.723z"/>
			<path d="M95.058,18.219v-1.322c0.23,0.014,0.445,0.029,0.675,0.043c0.23-0.388,0.46-0.761,0.69-1.149
				c-0.115-0.101-0.23-0.187-0.345-0.273c-0.345,0.23-0.675,0.474-1.02,0.718v-1.279c0.546-0.388,1.092-0.761,1.638-1.149
				c0.014-0.244,0.043-0.503,0.057-0.747c-0.172-0.072-0.359-0.144-0.546-0.201c0.029-0.259,0.057-0.503,0.072-0.747
				c0.805,0,1.595,0,2.385,0c-0.23,1.236-0.445,2.485-0.675,3.735c0.158,0.302,0.316,0.603,0.474,0.891
				c-0.302,0.632-0.589,1.279-0.891,1.911c-0.33-0.345-0.675-0.675-1.02-1.02C96.05,17.817,95.561,18.018,95.058,18.219
				L95.058,18.219z M95.058,10.174V8.306c0.517,0.014,1.049,0.029,1.566,0.057c0,0.244,0,0.488,0,0.747
				c-0.316,0.201-0.632,0.402-0.948,0.603C95.461,9.872,95.259,10.016,95.058,10.174L95.058,10.174z M100.503,11.697
				c0.733,0.244,1.465,0.503,2.184,0.747c-0.043,0.316-0.086,0.646-0.129,0.963c-0.158,0.79-0.316,1.58-0.474,2.385
				c0.402,0.057,0.805,0.129,1.221,0.201c-0.575,0.474-1.135,0.948-1.71,1.437c-0.402-0.029-0.819-0.057-1.221-0.072
				c0.187-1.394,0.359-2.773,0.546-4.166c-0.259-0.244-0.503-0.488-0.747-0.747C100.288,12.199,100.388,11.941,100.503,11.697
				L100.503,11.697z M101.609,8.421c0.33-0.072,0.661-0.158,0.991-0.23c0.115-0.029,0.215,0.043,0.244,0.144
				c0.072,0.273,0.129,0.532,0.187,0.805c0.029,0.101-0.029,0.215-0.144,0.244c-0.33,0.072-0.661,0.158-0.991,0.23
				c-0.115,0.029-0.23-0.043-0.244-0.144c-0.072-0.273-0.129-0.532-0.201-0.79C101.423,8.565,101.495,8.45,101.609,8.421
				L101.609,8.421z M104.741,11.697c0.718,0.029,1.451,0.043,2.169,0.072c0.575,0.273,1.135,0.546,1.71,0.819
				c-0.072,0.388-0.144,0.761-0.201,1.149c-0.259-0.014-0.503-0.043-0.747-0.057c-0.187-0.215-0.374-0.417-0.546-0.618
				c-0.23,0.072-0.46,0.129-0.69,0.201c-0.129,0.69-0.273,1.365-0.402,2.054c0.23,0.33,0.445,0.675,0.675,1.02
				c-0.345,0.316-0.675,0.632-1.02,0.948c-0.474-0.359-0.948-0.733-1.437-1.092c0.23-1.135,0.46-2.27,0.69-3.405
				C104.871,12.429,104.799,12.056,104.741,11.697z M72.273,12.487c0.345-0.704,0.733-1.379,1.192-2.011
				c0.273-0.029,0.546-0.057,0.819-0.072c0,2.615,0,5.229,0,7.844c0.431,0.359,0.862,0.718,1.293,1.077
				c-0.704,0.488-1.408,0.963-2.112,1.437c-0.302-0.819-0.589-1.638-0.891-2.457c-0.101,0-0.201,0-0.302-0.014v-1.724
				c0.187,0.043,0.388,0.072,0.575,0.101c-0.115-0.589-0.23-1.178-0.345-1.767c-0.072,0.158-0.158,0.302-0.23,0.46V12.487
				L72.273,12.487z M95.058,8.306v1.868c-0.144,0.101-0.273,0.201-0.417,0.302c-0.704,1.839-1.408,3.678-2.112,5.517
				c-0.589,0.56-1.164,1.135-1.753,1.71c-0.187-0.761-0.359-1.508-0.546-2.256c-0.402,0.302-0.819,0.589-1.221,0.891
				c0,0.287,0,0.589,0,0.876c-0.23,0.115-0.46,0.23-0.69,0.345c-0.474-0.618-0.948-1.221-1.437-1.839
				c-0.057-1.523-0.129-3.046-0.201-4.569c-0.244-0.517-0.503-1.049-0.747-1.566c0.632-0.575,1.279-1.135,1.911-1.71
				c0.086,1.71,0.187,3.419,0.273,5.115c0.158,0,0.316,0,0.474,0c0.273-0.359,0.546-0.718,0.819-1.092
				c-0.115-0.388-0.23-0.761-0.345-1.149c0.733-0.46,1.465-0.919,2.184-1.365c0.086,1.336,0.172,2.672,0.259,4.023
				c0.115,0.086,0.23,0.172,0.345,0.273c0.948-1.796,1.911-3.592,2.859-5.387C94.828,8.292,94.943,8.292,95.058,8.306L95.058,8.306z
				 M95.058,14.958c-0.532,0.374-1.049,0.733-1.566,1.106c0.086,0.388,0.172,0.761,0.273,1.149c0.402,0.345,0.819,0.69,1.221,1.034
				c0.029-0.014,0.043-0.029,0.072-0.029v-1.322c-0.086,0-0.187-0.014-0.273-0.014c0.043-0.187,0.086-0.374,0.129-0.546
				c0.057-0.043,0.101-0.072,0.144-0.101V14.958L95.058,14.958z M76.942,12.86c0.718,0.244,1.451,0.488,2.184,0.747
				c-0.057,0.316-0.101,0.632-0.144,0.948c-0.158,0.805-0.316,1.595-0.474,2.385c0.402,0.072,0.819,0.144,1.221,0.215
				c-0.56,0.474-1.135,0.948-1.695,1.422c-0.417-0.014-0.819-0.043-1.236-0.072c0.187-1.379,0.374-2.758,0.546-4.152
				c-0.244-0.244-0.503-0.503-0.747-0.747C76.712,13.349,76.827,13.105,76.942,12.86L76.942,12.86z M78.034,9.585
				c0.33-0.086,0.661-0.158,0.991-0.244c0.115-0.014,0.23,0.043,0.259,0.158c0.057,0.259,0.115,0.532,0.187,0.79
				c0.029,0.115-0.043,0.23-0.158,0.244c-0.33,0.086-0.661,0.158-0.991,0.244c-0.101,0.029-0.215-0.043-0.244-0.144
				c-0.057-0.273-0.129-0.532-0.187-0.805C77.861,9.728,77.933,9.613,78.034,9.585L78.034,9.585z M81.439,12.86
				c0.733,0.014,1.451,0.043,2.184,0.057c0.56,0.273,1.135,0.546,1.695,0.819c-0.057,0.388-0.129,0.776-0.201,1.164
				c-0.244-0.029-0.503-0.043-0.747-0.072c-0.187-0.201-0.359-0.402-0.546-0.603c-0.23,0.057-0.46,0.129-0.675,0.201
				c-0.144,0.675-0.273,1.365-0.417,2.04c0.23,0.345,0.46,0.69,0.69,1.02c-0.345,0.316-0.69,0.646-1.034,0.963
				c-0.474-0.374-0.948-0.733-1.422-1.092c0.23-1.135,0.445-2.27,0.675-3.405C81.568,13.579,81.51,13.22,81.439,12.86z
				 M68.351,19.397c0.086-0.23,0.187-0.445,0.273-0.675c0.345,0.057,0.675,0.129,1.02,0.201c0.474-1.164,0.963-2.313,1.437-3.477
				c0.359-1.006,0.733-1.997,1.192-2.96v2.873c-0.201,0.374-0.388,0.733-0.589,1.106c0.201,0.043,0.388,0.072,0.589,0.101v1.724
				c-0.402-0.014-0.805-0.029-1.192-0.043c-0.302,0.905-0.589,1.81-0.891,2.715C69.572,20.446,68.968,19.929,68.351,19.397z"/>
		</g>
		<g>
			<path d="M136.851,23.621l3.663-2.557c0.445-0.474,0.718-0.905,0.776-1.35l-4.439,3.118V23.621L136.851,23.621z M136.851,22.026
				v-0.805l4.094-2.873c0.129,0.215,0.215,0.417,0.273,0.603L136.851,22.026L136.851,22.026z M136.851,20.432v-0.805l3.362-2.356
				l0.374,0.532L136.851,20.432L136.851,20.432z M136.851,18.823l2.974-2.083l-1.365-1.911c-0.488-0.445-1.006-0.675-1.609-0.618
				V18.823z M133.245,26.15l3.606-2.529v-0.79l-3.606,2.514V26.15L133.245,26.15z M136.851,14.211v4.612l-0.733,0.517l-0.546-0.819
				c-0.302-0.359-0.862-0.33-1.379,0.043l-0.948,0.675v-2.945l2.126-1.451C135.931,14.455,136.406,14.254,136.851,14.211
				L136.851,14.211z M136.851,19.627v0.805l-3.606,2.514v-0.805l1.35-0.934c0.187,0.101,0.402,0.158,0.603,0.129l0.934-0.661
				c0.215-0.187,0.287-0.474,0.259-0.733L136.851,19.627L136.851,19.627z M136.851,21.222v0.805l-3.606,2.514v-0.79L136.851,21.222
				L136.851,21.222z M133.245,21.351l0.79-0.56c-0.101-0.086-0.172-0.172-0.244-0.244l-0.546,0.374V21.351L133.245,21.351z
				 M133.245,14.656c0.014,0.014,0.014,0.014,0.014,0.014l3.074-2.198l-2.126-3.06l-0.963,0.69V14.656z M132.469,25.891l0.374,0.546
				l0.402-0.287v-0.805L132.469,25.891L132.469,25.891z M133.245,10.102v4.554c-0.402-0.129-0.805-0.532-1.192-0.402l-1.106,0.761
				c-0.23,0.33-0.287,0.417-0.029,0.848l0.589,0.848c0.359,0.302,0.891,0.215,1.336-0.129l0.402-0.287v2.945l-2.126,1.494
				c-0.948,0.517-1.724,0.704-2.873-0.431l-2.126-3.003c-0.215-0.33-0.33-0.661-0.345-0.977v-0.158
				c0.029-0.445,0.244-0.876,0.675-1.293L133.245,10.102L133.245,10.102z M133.245,20.92l-2.845,1.997l0.201,0.287l2.643-1.853
				V20.92L133.245,20.92z M133.245,22.141v0.805l-1.896,1.336l-0.374-0.546L133.245,22.141L133.245,22.141z M133.245,23.75v0.79
				l-1.149,0.819l-0.374-0.546L133.245,23.75z"/>
			<path d="M66.957,38.203c-0.273,0.259-0.575,0.474-0.905,0.661c-0.101,0.057-0.215,0.115-0.33,0.158v-0.819H66.957L66.957,38.203z
				 M65.722,37.557v-0.661h6.68v0.661H65.722L65.722,37.557z M65.722,36.235v-0.647h6.68v0.647H65.722L65.722,36.235z
				 M65.722,34.928v-0.345c0.546-0.029,1.006-0.273,1.35-0.747c0.359-0.46,0.532-1.092,0.532-1.896c0-0.79-0.172-1.422-0.532-1.896
				c-0.345-0.46-0.805-0.704-1.35-0.733v-3.563c0.057,0.029,0.115,0.043,0.158,0.072c0.546,0.23,1.077,0.69,1.58,1.379v-1.25h0.215
				h3.75v7.614c-0.043,1.02,0.503,1.02,0.977,1.02v0.345H65.722L65.722,34.928z M72.402,38.203v0.661h-0.23H67.46v-0.661H72.402z
				 M65.722,39.022c-0.474,0.201-0.991,0.287-1.566,0.287l-0.215,0.029c-1.192-0.014-2.169-0.388-2.945-1.135h4.727V39.022
				L65.722,39.022z M65.722,25.747v3.563h-0.014c-0.603,0.043-1.063,0.302-1.365,0.776c-0.302,0.488-0.474,1.02-0.517,1.609
				c0,0.043,0,0.086,0,0.115c0,0.043,0,0.086,0,0.129c0,0.675,0.158,1.264,0.46,1.796c0.302,0.532,0.776,0.819,1.422,0.848h0.014
				v0.345h-6.494c-0.201-0.79-0.302-1.638-0.302-2.543c0-0.201,0-0.431,0.014-0.661s0.043-0.46,0.072-0.69
				c0.158-1.394,0.632-2.672,1.408-3.836c0.79-1.149,1.954-1.724,3.52-1.724h0.215C64.702,25.474,65.233,25.56,65.722,25.747
				L65.722,25.747z M65.722,35.588v0.647h-6.034c-0.086-0.201-0.172-0.431-0.259-0.647H65.722L65.722,35.588z M65.722,36.896v0.661
				h-5.287c-0.072-0.115-0.144-0.215-0.215-0.33c-0.072-0.101-0.144-0.215-0.201-0.33H65.722z"/>
			<path d="M108.951,36.494v-0.79l1.322-0.345c0,0,0,0-0.014,0.014C109.899,35.804,109.454,36.177,108.951,36.494L108.951,36.494z
				 M108.951,35.028v-0.675l2.169-0.589c-0.072,0.273-0.172,0.517-0.287,0.761L108.951,35.028L108.951,35.028z M108.951,33.678
				v-0.675l2.284-0.618c0.029,0.23,0.029,0.46,0,0.675L108.951,33.678L108.951,33.678z M108.951,32.313v-1.437l1.853-0.488
				l0.259,1.006c0.043,0.115,0.057,0.23,0.086,0.33L108.951,32.313L108.951,32.313z M108.951,29.468v-5.143
				c0.259,0.417,0.46,0.891,0.603,1.437l0.891,3.304L108.951,29.468z M108.951,24.325v5.143l-2.356,0.632V22.63
				c0.086,0.029,0.187,0.057,0.273,0.086C107.773,23.032,108.462,23.564,108.951,24.325L108.951,24.325z M108.951,30.876v1.437
				l-1.882,0.503c-0.014-0.158-0.057-0.33-0.101-0.517l-0.23-0.833L108.951,30.876L108.951,30.876z M108.951,33.002v0.675
				l-2.356,0.632v-0.057c0.187-0.144,0.33-0.316,0.402-0.532c0.029-0.072,0.043-0.144,0.057-0.215L108.951,33.002L108.951,33.002z
				 M108.951,34.353v0.675l-2.356,0.632v-0.675L108.951,34.353L108.951,34.353z M108.951,35.703v0.79
				c-0.603,0.359-1.307,0.661-2.112,0.876c-0.086,0.014-0.172,0.043-0.244,0.057v-1.092L108.951,35.703z M104.31,28.003l1.408-0.374
				l-0.144-0.503c-0.187-0.733-0.417-1.221-0.675-1.465c-0.144-0.144-0.345-0.23-0.589-0.23v-2.988
				c0.819-0.086,1.58-0.014,2.284,0.187V30.1l-2.284,0.603V28.003L104.31,28.003z M106.595,34.252v0.057l-0.215,0.057
				C106.451,34.324,106.523,34.295,106.595,34.252L106.595,34.252z M106.595,34.985v0.675l-2.284,0.618v-0.69L106.595,34.985
				L106.595,34.985z M106.595,36.335v1.092c-0.805,0.187-1.566,0.259-2.284,0.201v-0.675L106.595,36.335L106.595,36.335z
				 M104.31,34.913v-0.675l0.402-0.101c0.043,0.057,0.101,0.115,0.158,0.172c0.23,0.187,0.503,0.259,0.862,0.23L104.31,34.913
				L104.31,34.913z M104.31,33.563V33.39c0.029,0.057,0.043,0.101,0.057,0.158L104.31,33.563z M102.946,28.362l1.365-0.359v2.701
				l-0.675,0.187l0.575,2.141c0.029,0.129,0.072,0.244,0.101,0.359v0.172l-4.008,1.077c-0.043-0.115-0.086-0.244-0.115-0.359
				l-1.508-5.66c-0.115-0.388-0.172-0.776-0.187-1.135v-0.33c0.043-0.905,0.374-1.724,1.006-2.457
				c0.79-0.934,1.939-1.595,3.419-1.997c0.474-0.129,0.948-0.215,1.394-0.259v2.988c-0.172-0.014-0.388,0.014-0.618,0.072
				c-0.934,0.259-1.221,1.049-0.876,2.37L102.946,28.362L102.946,28.362z M104.31,34.238l-3.764,1.006
				c0.101,0.215,0.215,0.402,0.345,0.589l3.419-0.919V34.238L104.31,34.238z M104.31,35.588v0.69l-2.313,0.618
				c-0.23-0.144-0.445-0.316-0.646-0.503L104.31,35.588L104.31,35.588z M104.31,36.953v0.675c-0.488-0.043-0.963-0.144-1.408-0.302
				L104.31,36.953z"/>
			<path d="M92.616,20.604l1.25-0.115l0.316,3.563c0.158,0.517,0.431,0.79,1.063,0.833l0.302,3.376l-0.862,0.402l-0.259,0.977
				l0.273,3.031c0.172,0.632,0.661,1.236,1.667,1.135l0.029,0.445l-3.778,0.33V20.604L92.616,20.604z M92.616,38.519v-0.646
				l4.066-0.359l0.057,0.646L92.616,38.519L92.616,38.519z M92.616,37.212v-0.661l3.951-0.345l0.057,0.646L92.616,37.212
				L92.616,37.212z M92.616,35.89v-0.646l3.836-0.345l0.057,0.661L92.616,35.89z M88.78,34.913l-0.043-0.431
				c0.991-0.086,1.379-0.761,1.437-1.422l-0.259-3.031l-0.417-0.919l-0.919-0.244l-0.287-3.376c0.603-0.144,0.833-0.474,0.891-1.006
				l-0.302-3.563l3.735-0.316v13.979L88.78,34.913L88.78,34.913z M92.616,35.244v0.646l-3.721,0.33l-0.057-0.646L92.616,35.244
				L92.616,35.244z M92.616,36.551v0.661l-3.606,0.316l-0.057-0.646L92.616,36.551L92.616,36.551z M92.616,37.873v0.646
				l-3.491,0.316l-0.057-0.661L92.616,37.873z"/>
			<path d="M125.975,30.258v-0.69l2.773-1.006l0.215,0.603L125.975,30.258L125.975,30.258z M125.975,28.865l2.543-0.919
				l-0.215-0.618l-2.327,0.848V28.865L125.975,28.865z M125.975,27.471v-0.69l1.868-0.69l0.23,0.618L125.975,27.471L125.975,27.471z
				 M125.975,26.078v-1.508l0,0c0.287,0.646,1.006,0.776,1.494,0.503l0.158,0.402L125.975,26.078z M121.967,31.02l0.23,0.618
				l-3.462,1.264v-0.704L121.967,31.02L121.967,31.02z M125.975,24.569v1.508l-3.678,1.336l-0.158-0.402l-1.609-4.439
				c-0.417-0.532-0.805-0.79-1.279-0.632c-0.273,0.101-0.431,0.316-0.517,0.589v-4.569c0.201-0.201,0.445-0.388,0.69-0.532
				c2.083-1.106,4.396,0.388,4.784,1.839l1.149,3.362l-0.086,0.029L125.975,24.569L125.975,24.569z M125.975,26.782l-3.448,1.25
				l0.215,0.618l3.233-1.178V26.782L125.975,26.782z M125.975,28.175v0.69l-2.787,1.02l-0.215-0.618L125.975,28.175L125.975,28.175z
				 M125.975,29.569l-2.557,0.934l0.23,0.603l2.327-0.848V29.569L125.975,29.569z M118.735,31.508l3.017-1.106l-0.23-0.603
				l-2.787,1.006V31.508L118.735,31.508z M118.735,30.115v-0.704l2.342-0.848l0.215,0.618L118.735,30.115L118.735,30.115z
				 M118.735,28.721l2.112-0.776l-0.144-0.417c-0.23,0.187-0.603-0.072-0.891-0.718l-0.876-2.414
				c-0.086-0.23-0.158-0.474-0.201-0.718V28.721z M118.735,32.902l-2.787,1.006l-0.23-0.603l3.017-1.106V32.902L118.735,32.902z
				 M118.735,17.961v4.569c-0.101,0.33-0.086,0.747,0,1.149v5.043l-4.138,1.494l-0.144-0.402c0.919-0.33,0.805-0.977,0.69-1.623
				l-1.049-2.859l-0.632-0.79h-0.934l-1.164-3.189l5.488-1.983l0.445,1.236C117.327,20.245,117.815,18.866,118.735,17.961
				L118.735,17.961z M118.735,29.411l-3.908,1.422l0.215,0.618l3.692-1.336V29.411L118.735,29.411z M118.735,30.804l-3.462,1.264
				l0.215,0.618l3.247-1.178V30.804z"/>
			<path d="M81.783,38.203v0.661h-7.313v-0.661H81.783L81.783,38.203z M81.783,36.896v0.661h-7.313v-0.661H81.783L81.783,36.896z
				 M81.783,35.588v0.647h-7.313v-0.647H81.783L81.783,35.588z M80.304,25.489v1.336c0.187-0.402,1.523-2.284,3.089-2.256
				c1.853,0.029,3.118,2.083,3.276,3.347l-0.072,3.549h-3.549c-0.287-1.623-0.532-2.701-1.365-2.715
				c-0.833-0.014-1.135,1.192-1.135,2.198v2.557c0.043,0.718,0.675,1.077,1.236,0.991v0.431h-7.313v-0.431
				c0.991,0,1.106-0.646,1.207-1.293v-3.046l-0.316-0.948l-0.891-0.33v-3.391H80.304z"/>
			<path d="M57.303,38.203v0.718h-8.649v-0.718H57.303L57.303,38.203z M57.303,36.896v0.661h-8.649v-0.661H57.303L57.303,36.896z
				 M57.303,35.588v0.647h-8.649v-0.647H57.303L57.303,35.588z M45.307,38.203v0.718h-8.563v-0.718H45.307L45.307,38.203z
				 M45.307,36.896v0.661h-8.563v-0.661H45.307L45.307,36.896z M45.307,35.588v0.647h-8.563v-0.647H45.307L45.307,35.588z
				 M43.654,33.448c0.115,0.776,0.302,0.632,0.848,1.106h0.805v0.374h-8.563v-0.374h1.092c0.991-0.273,1.25-0.919,1.221-1.695
				l0.014-6.896c-0.057-0.776-0.532-1.178-1.236-1.221h-1.092v-3.721h6.235l3.434,5.732l2.715-5.732h8.175v3.721h-1.092
				c-0.79,0.115-1.379,0.589-1.307,1.437v7.025c0.072,0.747,0.517,1.336,1.307,1.35h1.092v0.374h-8.649v-0.374
				c0.876-0.144,1.034-0.359,1.106-0.876l0.014-2.184l-3.017,2.572l-3.118-2.758L43.654,33.448z"/>
		</g>
	</g>
</g>
<g id="Layer_3" display="none">
	<g display="inline">
		<path fill-rule="evenodd" clip-rule="evenodd" fill="#D12027" d="M10.586,18.002c0-1.476,0.458-1.832,3.153-1.832
			c2.085,0,8.749,0.153,8.749,6.918c0,7.273-7.63,7.376-11.902,7.426l0,0V18.002L10.586,18.002L10.586,18.002z M33.729,46.995
			c-2.086-0.102-3.306-1.018-4.426-2.392l0,0l-10.478-12.87l0,0c2.594-0.509,9.206-1.728,9.206-8.544
			c0-7.833-8.393-8.901-12.918-8.901l0,0H1.074v0.966l0,0c3.561,0.356,4.323,0.814,4.323,4.579l0,0v22.025l0,0
			c0,3.812-0.203,4.882-4.323,5.137l0,0v0.964h14.089v-0.964l0,0c-4.07-0.205-4.578-1.171-4.578-4.579l0,0V32.395l2.848-0.102
			l12.105,15.667h8.189V46.995L33.729,46.995L33.729,46.995z M62.212,47.959H34.745v-0.964l0,0c3.256-0.205,4.426-0.662,4.426-4.579
			l0,0V19.832l0,0c0-4.018-1.221-4.324-4.426-4.579l0,0v-0.966h27.009l0.152,7.273h-1.272l0,0c-0.763-4.526-2.085-5.34-7.731-5.34
			l0,0h-6.867l0,0c-1.068,0-1.679,0-1.679,1.729l0,0v11.292h7.833l0,0c4.527,0,5.036-1.221,5.595-4.833l0,0h1.17v11.8h-1.17l0,0
			c-0.61-4.069-1.373-4.781-5.595-4.831l0,0l-7.833-0.102V43.89l0,0c0,2.086,0,2.137,7.579,2.137c6.359,0,8.901-1.527,11.14-6.664
			l0,0h1.424L62.212,47.959L62.212,47.959L62.212,47.959z M73.788,17.899c0-1.678,0.559-1.729,2.085-1.729
			c2.238,0,9.664,0.102,9.664,7.376c0,7.731-6.815,7.731-8.698,7.731c-1.068,0-2.085-0.052-3.051-0.151l0,0V17.899L73.788,17.899
			L73.788,17.899z M64.327,15.254c3.713,0.356,4.272,0.967,4.272,4.579l0,0v22.025l0,0c0,3.66,0,4.83-4.272,5.137l0,0v0.964h14.241
			v-0.964l0,0c-3.917-0.102-4.78-0.867-4.78-4.579l0,0v-9.258l0,0c1.221,0.102,2.186,0.153,3.407,0.153
			c5.341,0,8.596-0.915,10.783-3c0.865-0.814,3.102-2.9,3.102-6.867c0-6.46-6.306-9.155-13.326-9.155l0,0H64.327V15.254
			L64.327,15.254L64.327,15.254z M103.349,15.254c-3.459,0.204-4.73,0.56-4.73,4.579l0,0V43.89l0,0c0,2.034,0.915,2.086,5.137,2.086
			c7.63,0,10.884-0.205,13.783-6.869l0,0h1.272l-2.441,8.851H89.005v-0.964l0,0c3.255-0.205,4.426-0.662,4.426-4.579l0,0V19.832l0,0
			c0-4.018-1.221-4.324-4.426-4.579l0,0v-0.966h14.344V15.254L103.349,15.254L103.349,15.254z M127.916,34.888l5.849-13.988
			l5.9,13.988H127.916L127.916,34.888L127.916,34.888z M152.839,46.995c-2.238-0.153-2.95-0.714-4.578-4.427l0,0l-12.665-28.891
			h-1.018L124,38.652l0,0c-0.968,2.238-2.543,5.95-3.714,7.222c-0.915,0.968-1.779,1.068-2.594,1.121l0,0v0.964h10.071v-0.964l0,0
			c-1.068,0-3.459,0-3.459-2.138c0-0.559,0.153-1.27,0.407-1.932l0,0l2.34-5.952h13.327l2.085,4.885l0,0
			c0.306,0.711,0.968,2.389,0.968,3.204c0,1.881-1.68,1.934-3.56,1.934l0,0v0.964h12.969V46.995L152.839,46.995L152.839,46.995z
			 M178.971,15.254c-1.831,0.204-3.509,0.407-7.019,5.799l0,0l-7.528,11.495v9.868l0,0c0,3.664,0.66,4.527,5.238,4.579l0,0v0.964
			h-15.564v-0.964l0,0c4.984-0.102,5.137-1.273,5.137-5.137l0,0v-8.851l-6.662-9.767l0,0c-5.189-7.629-5.952-7.781-8.242-7.985l0,0
			v-0.966h14.244v0.966l0,0c-2.34,0.102-3.612,0.153-3.612,1.577c0,0.56,0.406,1.526,0.865,2.188l0,0l7.528,11.291l7.274-11.495l0,0
			c0.354-0.559,0.711-1.169,0.711-1.881c0-1.577-1.932-1.679-3.509-1.679l0,0v-0.966h11.139V15.254L178.971,15.254L178.971,15.254z"
			/>
	</g>
</g>
<g id="Layer_2" display="none">
	<g display="inline">
		<g>
			<g>
				<path fill-rule="evenodd" clip-rule="evenodd" fill="#EB0029" d="M104.061,20.689c-1.364,0-2.368,1.271-2.368,2.33l0.007,1.125
					c0,0-0.437-0.788-1.326-1.567c-1.067-0.936-2.804-1.455-3.647-1.671c-1.147-0.294-3.034-0.495-4.436-0.561
					c-1.402-0.067-3.46,0.013-3.673,0.013c-0.214,0-2.029,0.121-2.457,0.174c-0.428,0.053-2.551,0.374-3.687,0.802
					c-1.136,0.427-1.871,0.777-2.674,1.43c-0.802,0.653-1.561,1.521-1.962,2.697c-0.401,1.177-0.428,1.816-0.361,2.204
					c0.067,0.387,0.147,0.922,0.773,1.51c0,0-1.188,1.069-1.562,2.698l-4.85-5.917l4.048-3.286l2.738-2.259
					c0,0,0.846-0.683,0.802-1.831c-0.04-1.041-0.922-2.337-2.377-2.337h-6.641h-2.524c0,0-0.963,0.067-1.524,0.682l-2.684,2.364
					c0,0-0.005-0.586,0-0.8c0.013-0.575-0.602-2.259-2.392-2.232h-7.802c0,0,0.055,0.013-0.147,0.013
					c-0.962,0-2.083,1.136-2.097,2.165c0,0.014,0,8.684,0,8.684v10.138c0,0,0.002,0.04,0,0.134
					c-0.025,1.401,1.254,2.179,2.284,2.179h7.339c0,0,0.174,0.002,0.415,0.001c1.447-0.009,2.368-1.235,2.395-2.156l0.01-1.429
					v-1.52l1.225,1.604l1.927,2.543c0,0,0.429,0.506,0.894,0.719c0.442,0.203,0.857,0.239,0.986,0.23h1.19h7.999
					c0,0,0.195-0.009,0.269-0.019c0.074-0.009,0.857-0.009,1.668-0.912c0,0,1.058,0.516,1.999,0.802
					c1.125,0.341,2.656,0.496,3.687,0.552c1.179,0.065,2.855-0.099,3.3-0.147c1.188-0.129,2.424-0.488,2.811-0.645
					c0,0,0.47,0.387,1.253,0.451h4.654h3.585c0,0,0.461-0.055,0.572-0.101v2.176c0,0-0.002,0.165,0.009,0.313
					c0.092,1.188,1.314,2.199,2.292,2.199c0.009,0,8.14,0.021,8.288,0c1.199-0.166,2.102-1.508,2.093-2.264
					c0-0.009,0.009-0.23,0.009-0.378v-1.992c0,0,1.104,0.286,2.221,0.36c1.116,0.073,2.496,0.016,3.604-0.166
					c1.734-0.286,2.939-0.796,3.604-1.142c0.866-0.452,1.898-1.266,2.323-1.718c0.425-0.451,0.712-0.8,0.956-1.171
					c0.001-0.002,0.007,3.6,0.007,3.6v2.426c0,0,0,0.141,0.01,0.228c0.152,1.371,1.361,2.153,2.114,2.153
					c0.009,0,0.133,0.019,0.209,0.019c0.076,0,4.702,0,4.702,0h3.264c0,0,0.104-0.005,0.153-0.01
					c1.504-0.143,2.168-1.438,2.226-2.171l0.01-0.143v-2.264c0,0,1.029,0.267,1.885,0.333c0.857,0.067,1.998,0.057,2.483,0.029
					c0.486-0.029,1.73-0.204,2.171-0.295c0.552-0.114,1.632-0.456,2.121-0.657c0.857-0.352,1.632-0.887,1.905-1.048
					c0.372-0.219,1.39-1.228,1.514-1.371c0.059-0.068,0.248-0.305,0.248-0.305s0.292,0.543,0.854,1.124
					c0.562,0.581,1.309,1.04,1.391,1.086c0.218,0.124,1.148,0.617,1.895,0.838c1.416,0.419,1.98,0.471,2.426,0.524
					c1.457,0.171,2.607,0.171,3.35,0.124c0.743-0.048,2.26-0.209,3.133-0.419c0.873-0.209,1.236-0.371,1.236-0.371
					s0.438,0.371,1.142,0.438c0.105,0.01,0.381,0.019,0.381,0.019h4.359h3.626c0,0,1.24-0.084,1.923-1.114
					c0.562-0.848,0.391-1.667,0.343-1.867c-0.047-0.2-0.181-0.721-0.705-1.264c-0.197-0.205-0.19-1.248-0.19-1.295v-2.902V27.71
					c0,0-0.038-1.14-0.171-1.807c-0.096-0.482-0.419-1.885-1.6-3c-1.242-1.172-2.529-1.565-2.683-1.616
					c-0.2-0.067-1.543-0.562-3.474-0.724c-1.493-0.125-1.895-0.219-2.656-0.209c-0.763,0.01-2.941-0.048-3.617,0.019
					c-0.676,0.067-1.769,0.077-2.978,0.286c-1.209,0.209-2.288,0.438-3.181,0.8c-0.893,0.362-1.379,0.593-2.283,1.257
					c-0.904,0.664-1.419,1.493-1.609,1.807c-0.191,0.315-0.343,0.705-0.343,0.705s-0.731-1.03-1.093-1.438
					c-0.514-0.581-1.552-1.498-2.562-2.026c-1.13-0.59-2.581-1.181-4.473-1.362c-1.093-0.105-2.906-0.062-3.683,0.048
					c-0.81,0.114-1.864,0.302-2.55,0.602c0,0-0.536-0.357-1.198-0.36c-0.003,0-0.751,0-0.751,0h-1.871h-2.02h-1.392h-1.563
					c-0.036,0-0.059,0.003-0.093,0.003c-0.53,0-1.094,0.284-1.429,0.539c-0.364,0.277-0.635,0.708-0.751,1.019
					c-0.117,0.311-0.164,0.551-0.173,0.802c0,0.003,0,1.291,0,1.291v0.591c0,0-0.271-0.375-0.321-0.452
					c-0.089-0.139-0.475-0.579-0.526-0.641c-0.051-0.062-0.408-0.444-0.605-0.616c-0.065-0.056-0.49-0.442-0.717-0.612
					c-0.106-0.078-0.727-0.545-1.173-0.785c-0.248-0.134-0.659-0.361-1.146-0.561c-0.474-0.195-1.587-0.61-3.049-0.807
					c-0.235-0.032-1.455-0.161-2.374-0.117c-0.898,0.043-1.512,0.08-2.346,0.212c-0.833,0.131-1.672,0.402-1.869,0.497
					c0,0-0.46-0.322-1.155-0.366c0,0-3.857,0-3.864,0H104.061z"/>
			</g>
			<path fill-rule="evenodd" clip-rule="evenodd" fill="#FFFFFF" d="M53.635,37.183h7.67v-5.865l1.819-1.518l5.622,7.382h9.197
				l-9.457-11.55l8.547-6.971h-9.002l-6.727,5.994v-5.994h-7.67V37.183z M111.657,30.188c0-1.675,0.627-3.486,3.411-3.486
				s3.411,1.811,3.411,3.486c0,1.65-0.627,3.461-3.411,3.461S111.657,31.837,111.657,30.188z M137.067,30.17
				c0-1.676,0.627-3.487,3.411-3.487c2.784,0,3.412,1.811,3.412,3.487c0,1.65-0.628,3.461-3.412,3.461
				C137.694,33.631,137.067,31.819,137.067,30.17z M92.545,32.179c-0.118,1.46-1.49,2.19-3.255,2.19
				c-1.411,0-2.431-0.648-2.431-1.297c0-0.946,0.902-1.244,2.627-1.514c1.058-0.162,2.117-0.352,3.059-0.676V32.179z M99.994,28.286
				c0-2.704,0.078-5.488-9.646-5.488c-4.823,0-10.233,0.649-10.469,4.596h7.215c0.039-0.595,0.509-1.433,2.901-1.433
				c1.254,0,2.549,0.351,2.549,1.297c0,0.892-1.059,1.109-2.118,1.244c-3.96,0.514-11.488,0.351-11.488,4.785
				c0,2.947,3.254,4.244,7.175,4.244c2.51,0,4.901-0.379,6.548-1.677c0.039,0.379,0.157,0.946,0.353,1.325h7.92
				c-0.863-0.893-0.941-2.081-0.941-3.136V28.286z M167.372,32.189c-0.118,1.46-1.49,2.19-3.255,2.19
				c-1.411,0-2.431-0.649-2.431-1.297c0-0.946,0.902-1.244,2.627-1.514c1.059-0.163,2.117-0.352,3.059-0.676V32.189z
				 M174.821,28.296c0-2.703,0.078-5.488-9.646-5.488c-4.823,0-10.233,0.649-10.469,4.596h7.215
				c0.039-0.595,0.509-1.433,2.901-1.433c1.255,0,2.549,0.351,2.549,1.297c0,0.892-1.059,1.109-2.117,1.244
				c-3.96,0.514-11.488,0.351-11.488,4.785c0,2.947,3.254,4.245,7.175,4.245c2.509,0,4.901-0.379,6.548-1.677
				c0.039,0.379,0.156,0.946,0.353,1.325h7.92c-0.862-0.892-0.94-2.082-0.94-3.136V28.296z M129.612,23.075v18.601h7.76v-6.083
				c0.052,0,0.6,0.564,1.474,1.003c0.896,0.45,2.153,0.845,3.918,0.905c1.765,0.06,3.118-0.29,3.354-0.34
				c1.28-0.272,3.024-0.949,4.237-2.543c0.912-1.198,1.252-2.565,1.33-4.393c0.052-1.219-0.492-2.874-1.014-3.647
				c-0.524-0.778-1.383-1.97-2.687-2.633c-1.575-0.802-2.919-1.168-4.603-1.168c-2.457,0-2.356,0.126-2.65,0.166
				c-0.225,0.031-1.374,0.2-2.351,0.789c-0.975,0.588-1.203,0.936-1.203,0.936l-0.08-1.591L129.612,23.075z M104.157,23.103v18.601
				h7.759V35.62c0.051,0,0.601,0.564,1.474,1.003c0.896,0.45,2.153,0.846,3.918,0.905c1.765,0.06,3.118-0.29,3.354-0.34
				c1.28-0.272,3.024-0.949,4.237-2.543c0.912-1.199,1.251-2.565,1.33-4.394c0.052-1.218-0.492-2.874-1.014-3.647
				c-0.525-0.778-1.383-1.969-2.687-2.633c-1.575-0.802-2.919-1.169-4.603-1.169c-2.458,0-2.356,0.126-2.651,0.166
				c-0.225,0.03-1.375,0.201-2.35,0.789c-0.976,0.588-1.203,0.936-1.203,0.936l-0.08-1.591L104.157,23.103z"/>
		</g>
		<path fill="#EF3E42" d="M3.183,39.309c0.393,0.197,1.168,0.408,1.657,0.443c0.165,0.011,0.327,0.05,0.478,0.064l1.023-0.013
			l1.146-0.187c0.259-0.013,0.394-0.013,0.517,0l0.655,0.054l0.914,0.013c0.433-0.037,0.881-0.138,1.339-0.386
			c0.107-0.057,0.233-0.108,0.328-0.183c0.277-0.218,0.47-0.477,0.61-0.739l-9.775,0.002C2.431,38.789,2.857,39.146,3.183,39.309z"
			/>
		<path fill="#EB0029" d="M9.101,28.973c-0.053,0.081-0.095,0.147-0.117,0.181c-0.631,0.993-1.231,2.037-2.184,2.995
			c-0.281,0.283-0.619,0.501-0.885,0.65c-0.089,0.05-0.159,0.127-0.246,0.179c-0.494,0.301-1.024,0.552-1.499,0.758
			c-0.327,0.141-0.642,0.318-0.981,0.407c-0.506,0.132-1.395,0.637-1.619,1.269c-0.029,0.082-0.075,0.174-0.096,0.255
			c-0.02,0.081-0.05,0.161-0.063,0.229c0,0-0.219,0.709,0.03,1.455c0.111,0.333,0.35,0.697,0.632,1.022l9.775-0.001
			c0.127-0.241,0.21-0.485,0.269-0.706c0.036-0.137,0.092-0.326,0.106-0.456c0.027-0.239,0.027-0.463,0.027-0.497
			c0-0.033-0.015-0.271-0.032-0.39c-0.007-0.052-0.036-0.133-0.036-0.166c0-0.114,0.966-0.973,1.034-1.03
			c0.118-0.101,0.259-0.191,0.376-0.31c0.426,0.759,0.885,1.563,1.353,2.315c0.167,0.268,0.346,0.562,0.541,0.813
			c0.101,0.132,0.219,0.279,0.349,0.428l2.26,0.001l-2.26,0c0.392,0.456,0.887,0.942,1.342,1.109
			c0.042,0.015,0.095,0.055,0.136,0.072c0.187,0.075,0.386,0.121,0.574,0.169c0.164,0.044,0.327,0.077,0.491,0.117l0.914,0.08
			l1.064,0.013c0.651-0.049,0.783-0.034,1.146-0.104c0.174-0.034,0.376-0.041,0.546-0.089c0.196-0.057,0.39-0.15,0.574-0.255
			c0.14-0.079,0.292-0.194,0.423-0.282c0.286-0.189,0.383-0.447,0.564-0.666c0.044-0.054,0.089-0.109,0.134-0.165h0.002
			c0.076-0.092,0.155-0.184,0.237-0.275c0.054,0.088,0.112,0.179,0.172,0.273h0.001c0.056,0.086,0.114,0.173,0.171,0.26
			c0.418,0.645,1.142,1.068,1.74,1.257c0.17,0.054,0.37,0.071,0.547,0.081c0.041,0.002,0.091,0.018,0.125,0.018h1.88l0.866,0.027
			c0.034,0,0.419-0.044,0.621-0.072c0.07-0.01,0.135-0.044,0.205-0.059c0.209-0.046,0.441-0.099,0.642-0.174
			c0.315-0.121,0.706-0.301,1.038-0.564c0.167-0.132,0.37-0.26,0.519-0.406c0.121-0.119,0.241-0.242,0.359-0.367h0.001
			c0.289-0.307,0.564-0.623,0.803-0.906c0.588-0.699,1.018-1.451,1.492-2.141c0.227,0.173,0.458,0.375,0.69,0.556
			c0.389,0.302,0.801,0.544,1.17,0.913v0.428c0,0.034,0.02,0.079,0.022,0.119c0.023,0.309,0.117,0.683,0.28,1.03L41,38.374l-3.671,0
			c0.093,0.199,0.208,0.389,0.344,0.554c0.24,0.29,0.565,0.448,0.831,0.573c0.24,0.114,0.497,0.119,0.738,0.183
			c0.245,0.067,0.543,0.057,0.792,0.091l0.668,0.013c0.054,0.013,0.146,0.027,0.18,0.027h0.243l1.091,0.147h1.499
			c0.034,0,0.222-0.044,0.316-0.05c0.731-0.06,1.636-0.281,2.331-0.738c0.087-0.057,0.266-0.222,0.345-0.278
			c0.142-0.098,0.291-0.297,0.412-0.521h0.001c0.111-0.204,0.198-0.427,0.232-0.609c0.052-0.274,0.1-0.784-0.29-1.335
			c-0.165-0.233-0.451-0.467-0.93-0.725c-0.598-0.322-1.289-0.526-1.922-0.978c-0.325-0.232-0.645-0.476-0.982-0.684
			c-0.285-0.176-0.627-0.299-0.886-0.517c-0.545-0.457-0.982-1.012-1.327-1.507c-0.603-0.873-1.167-1.755-1.732-2.599
			c-0.025-0.038-0.202-0.284-0.304-0.451h-0.001c-0.042-0.068-0.071-0.122-0.071-0.142c0-0.034,0.043-0.234,0.055-0.354
			c0.027-0.253,0.027-0.369,0.027-0.403l-0.014-0.335c-0.003-0.08-0.031-0.176-0.037-0.255c-0.031-0.318-0.166-0.706-0.378-1.022
			c-0.155-0.231-0.504-0.534-0.719-0.73c-0.402-0.367-0.985-0.546-1.382-0.546c-0.204,0-0.414,0.04-0.615,0.071
			c-0.095,0.013-0.199,0.037-0.288,0.067c-0.142,0.049-0.275,0.183-0.423,0.246c-0.099,0.044-0.216,0.031-0.321,0.046
			c-0.345-0.677-0.759-1.346-1.166-2.034c-0.089-0.149-0.262-0.439-0.262-0.472c0-0.033,0.027-0.201,0.027-0.234
			c0-0.206-0.053-0.459-0.114-0.658c-0.02-0.069-0.106-0.103-0.114-0.147c-0.031-0.144-0.044-0.394-0.044-0.428
			s0.109-0.184,0.131-0.28c0.037-0.157,0.073-0.333,0.073-0.47c0-0.152,0.003-0.122-0.065-0.337
			c-0.024-0.077-0.029-0.171-0.064-0.229c-0.216-0.358-0.616-0.58-0.946-0.791c-0.002-0.011-0.338-0.456-0.367-0.521
			c-0.039-0.085-0.012-0.194-0.05-0.281c-0.044-0.104-0.126-0.185-0.169-0.268c-0.133-0.263-0.381-0.642-0.701-0.865
			c-0.075-0.052-0.58-0.389-0.75-0.483c-0.14-0.077-0.522-0.197-0.556-0.197c-0.034,0-0.183-0.062-0.279-0.077
			c-0.23-0.037-0.71-0.07-0.744-0.07c-0.034,0-0.314-0.013-0.423-0.013c-0.034,0-0.652,0.036-0.838,0.083
			c-0.128,0.032-0.568,0.145-0.763,0.22c-0.195,0.075-0.697,0.236-0.811,0.303c-0.022,0.013-0.361,0.062-0.527,0.16
			c-0.121,0.072-0.255,0.163-0.345,0.241c-0.312,0.268-0.639,0.814-0.721,0.98c-0.135,0.275-0.276,0.563-0.405,0.84
			c-0.088-0.542-0.197-1.141-0.633-1.699c-0.034-0.043-0.506-0.623-0.682-0.844c-0.015-0.02-0.332-0.269-0.346-0.28
			c-0.311-0.153-0.574-0.319-0.901-0.429c-0.193-0.065-0.378-0.147-0.669-0.201c-0.289-0.054-1.432-0.071-1.432-0.071
			c-0.034,0-0.291-0.022-0.616,0.013c-0.153,0.017-0.662,0.072-0.895,0.154c-0.275,0.097-0.712,0.346-0.879,0.431
			c-0.121,0.06-0.768,0.49-0.833,0.536c-0.341,0.248-0.635,0.544-0.898,0.864c-0.046,0.055-0.057,0.138-0.091,0.188
			c-0.194,0.28-0.352,0.623-0.383,0.901c-0.007,0.068-0.043,0.147-0.05,0.214c-0.02,0.201-0.014,0.269-0.014,0.302
			c0,0.033,0.021,0.429,0.072,0.625c0.015,0.06,0.092,0.112,0.092,0.146c0,0.033-0.469,0.614-0.677,0.934
			c-0.037,0.057-0.025,0.137-0.032,0.204c-0.019,0.174-0.027,0.282-0.027,0.316c0,0.033,0.019,0.266,0.044,0.383
			c0.027,0.122,0.065,0.25,0.124,0.35c0.065,0.114,0.241,0.271,0.241,0.305c0,0.08-0.308,0.895-0.405,1.079
			c-0.347-0.094-0.307-0.081-0.556-0.081l-0.451,0.013c-0.178,0.027-0.357,0.062-0.519,0.097c-0.082,0.017-0.196,0.077-0.23,0.077
			c-0.034,0-0.117-0.067-0.152-0.067h-0.501c-0.034,0-0.169,0.066-0.236,0.089c-0.794,0.283-1.516,1.331-1.76,2.019
			c-0.046,0.129-0.058,0.269-0.072,0.39l-0.041,0.959c0,0.033,0.034,0.127,0.036,0.195c0.005,0.161,0.028,0.323,0.101,0.522
			c0,0.055-0.279,0.488-0.451,0.751"/>
		<path fill="#FFFFFF" d="M23.59,26.439c-0.059-0.11-0.117-0.219-0.177-0.326c-0.179-0.323-0.365-0.65-0.545-0.965
			c-0.065-0.114-0.199-0.205-0.25-0.334c-0.085-0.214-0.543-0.558-0.78-0.802c0.081-0.116,0.177-0.314,0.177-0.348
			c0-0.174-0.205-0.095-0.205-0.221c0-0.079,0.038-0.075,0.136-0.207c-0.067-0.131-0.198-0.084-0.26-0.111v-0.116
			c0.001-0.033,0.055-0.147,0.082-0.223l-0.28-0.423c0.007-0.051,0.007-0.107-0.002-0.14h0.095c0.025,0.026,0.054,0.068,0.118,0.051
			c0.007-0.954-0.013-0.966-0.01-0.979c0.01-0.054,0.024-0.115,0.024-0.149c0-0.033-0.068-0.362-0.068-0.395
			c0-0.033-0.009-0.073,0.003-0.112c0.014-0.042,0.051-0.082,0.051-0.116c0-0.033-0.095-0.323-0.095-0.357V19.7
			c0-0.033-0.005-0.114-0.019-0.164c-0.025-0.095-0.06-0.211-0.11-0.297c-0.059-0.102-0.157-0.195-0.224-0.282
			c-0.015-0.02-0.016-0.057-0.036-0.081c-0.072-0.08-0.149-0.175-0.241-0.239c-0.046-0.032-0.122,0-0.163-0.035
			c-0.213-0.182-0.385-0.198-0.574-0.215c-0.105-0.121-0.375-0.21-0.515-0.21c-0.034,0-0.194,0.009-0.269,0.044
			c-0.16,0.074-0.19,0.117-0.331,0.117c-0.169,0-0.245-0.094-0.355-0.094c-0.034,0-0.124,0.08-0.158,0.08h-0.569
			c-0.034,0-0.139,0.054-0.193,0.058c-0.06,0.093-0.132,0.195-0.209,0.26c-0.032,0.029-0.1,0.05-0.136,0.075
			c-0.06,0.042-0.118,0.124-0.177,0.166c-0.036,0.025-0.091,0.033-0.107,0.049c-0.16,0.168-0.496,0.433-0.496,0.618
			c0,0.161-0.014,0.194-0.014,0.228c0,0.033-0.001,0.089,0.018,0.124c0.05,0.089,0.148,0.149,0.214,0.213l-0.218,0.603
			c0.036,0.03,0.082,0.203,0.078,0.315c-0.215,0.218-0.426,0.427-0.619,0.643c-0.039,0.045-0.073,0.132-0.073,0.165
			c0,0.169,0.395,0.26,0.396,0.387v0.339c0.077,0.068,0.082,0.088,0.082,0.131c0,0.033-0.041,0.35-0.073,0.508
			c-0.107,0.497-0.351,0.989-0.55,1.486c-0.121,0.303-0.141,0.652-0.308,0.91c-0.218,0.34-1.414,0.694-1.864,0.694
			c-0.131,0-0.288-0.025-0.428-0.059c-0.206-0.05-0.16-0.116-0.302-0.116c-0.323,0-0.638,0.275-0.823,0.317h-0.003
			c-0.014,0.003-0.027,0.005-0.04,0.005c-0.012,0-0.023-0.002-0.031-0.004l-0.19,0l0.19-0.001c-0.059-0.02-0.037-0.102-0.235-0.098
			c-0.03,0.036-0.077,0.058-0.105,0.098h-0.001c-0.002,0.003-0.003,0.005-0.005,0.008c-0.176,0.3-0.263,0.425-0.263,0.68
			c0,0.298,0.096,0.563,0.208,0.866c0.041,0.109,0.133,0.306,0.133,0.339c0,0.033-0.024,0.127-0.059,0.177
			c-0.229,0.339-0.457,0.721-0.653,1.073c-0.043,0.078-0.085,0.154-0.124,0.227c-0.072,0.134-0.176,0.273-0.251,0.415
			c-0.24,0.454-0.583,0.943-0.859,1.393l-0.286,0.469c-0.755,1.221-2.915,2.987-4.748,3.766c-0.058,0.025-0.116,0.049-0.174,0.072
			c-0.199,0.079-0.41,0.142-0.599,0.201c-0.107,0.034-0.24,0.042-0.342,0.089c-0.124,0.057-0.263,0.105-0.263,0.244
			c0,0.181,0.229,0.262,0.359,0.31c0.066,0.023,0.238-0.001,0.268,0.077c-0.137,0.095-0.259,0.179-0.259,0.297
			c0,0.033,0.084,0.152,0.143,0.215c0.295,0.071,0.639,0.175,0.94,0.197c0.041,0.002,0.091,0.037,0.125,0.037H5.33
			c0.034,0,0.081,0.013,0.123,0.027l0.71-0.013c0.535-0.04,1.058-0.241,1.602-0.241l1.247,0.134h0.503
			c0.034,0,0.285-0.073,0.401-0.14c0.104-0.06,0.177-0.22,0.181-0.295c0.01-0.174,0-0.262,0-0.295l-0.081-0.916l-0.014-0.163
			c0-0.033,0.044-0.098,0.063-0.152c0.295-0.807,1.42-1.605,2.144-2.302c0.419-0.404,0.935-0.832,1.236-1.247
			c0.182-0.251,0.319-0.521,0.499-0.764c0.037-0.05,0.114-0.078,0.148-0.078s0.118,0.024,0.145,0.09
			c0.259,0.633,0.529,1.299,0.868,1.93c0.385,0.717,0.783,1.441,1.274,2.158c0.12,0.176,0.237,0.352,0.353,0.529
			c0.294,0.446,0.588,0.898,0.951,1.361c0.245,0.315,0.649,0.476,0.942,0.525l2.292,0.013c0.255-0.057,0.538-0.03,0.767-0.194
			c0.073-0.052,0.125-0.141,0.182-0.196c0.516-0.511,0.856-1.009,1.169-1.51c0.153-0.246,0.301-0.493,0.459-0.742
			c0.114-0.178,0.201-0.382,0.322-0.562c0.205-0.31,0.324-0.627,0.442-0.912c0.082-0.196,0.178-0.398,0.232-0.59
			c0.036-0.126,0.035-0.278,0.145-0.385c0.207,0.301,0.213,0.619,0.3,0.907c0.114,0.375,0.235,0.767,0.354,1.139
			c0.084,0.256,0.215,0.499,0.278,0.763c0.028,0.116,0.049,0.247,0.068,0.385c0.113,0.813,0.177,1.911,1.348,2.032l2.183,0.013
			c0.333-0.062,0.699-0.104,1.011-0.22c0.14-0.051,0.286-0.116,0.411-0.202c0.463-0.318,1.016-0.941,1.546-1.626
			c0.433-0.562,0.851-1.166,1.192-1.68c0.077-0.116,0.133-0.248,0.199-0.348c0.494-0.742,0.89-1.474,1.383-2.209h0.079
			c0.33,0.674,0.829,1.386,1.497,2.03c0.297,0.287,0.601,0.486,0.901,0.711c0.06,0.044,0.146,0.062,0.19,0.102
			c0.331,0.297,0.652,0.515,0.944,0.835c0.104,0.114,0.336,0.344,0.505,0.561c0.113,0.145,0.199,0.284,0.199,0.378
			c0,0.033-0.041,0.131-0.051,0.186c-0.029,0.144-0.044,0.403-0.044,0.437c0,0.033-0.005,0.047,0.014,0.248
			c0.01,0.109,0.038,0.23,0.128,0.321c0.129,0.127,0.312,0.205,0.437,0.222l1.541,0.013l0.886,0.134h0.19
			c0.034,0,0.164,0.027,0.233,0.04l1.392,0.013c0.11-0.013,0.236-0.025,0.342-0.045c0.065-0.012,0.578-0.125,0.578-0.283
			c0-0.033-0.006-0.117-0.033-0.164c-0.031-0.054-0.132-0.111-0.166-0.111H44.48c-0.034,0-0.139-0.013-0.19-0.031
			c-0.237-0.088-0.493-0.21-0.708-0.347c-0.482-0.309-0.917-0.697-1.395-1.012c-0.012-0.008-0.025-0.016-0.037-0.024
			c-0.228-0.147-0.508-0.201-0.723-0.33c-0.291-0.176-0.55-0.325-0.813-0.65c-0.29-0.358-0.581-0.722-0.859-1.072
			c-0.806-1.015-1.413-2.024-2.141-3.054c-0.204-0.29-0.601-0.812-0.836-1.135c-0.113-0.155-0.188-0.264-0.188-0.281
			c0-0.033,0.061-0.146,0.077-0.213c0.112-0.454,0.196-0.71,0.196-1.127l-0.005-0.174c-0.003-0.107-0.251-0.333-0.413-0.421
			l-0.246,0.057c-0.057,0.301-0.198,0.304-0.393,0.304c-0.034,0-0.136-0.013-0.354-0.013c-0.109,0-0.237,0.059-0.343,0.084
			c-0.056,0.013-0.112,0.049-0.164,0.067c-0.055,0.02-0.126,0.06-0.178,0.08c-0.058,0.024-0.304,0.197-0.413,0.197
			c-0.218,0-0.907-0.267-0.993-0.373c-0.046-0.055-0.07-0.142-0.08-0.211c-0.026-0.168-0.057-0.31-0.132-0.471
			c-0.103-0.217-0.217-0.434-0.337-0.651l-1.478,0.001c-0.011,0.026-0.029,0.06,0.004,0.094h-0.167
			c-0.031,0.002-0.113-0.06-0.169-0.095h-0.001c-0.004-0.003-0.008-0.005-0.012-0.007c-0.297-0.179-0.619-0.372-0.914-0.571
			c-0.099-0.067-0.203-0.161-0.3-0.233c-0.033-0.024-0.466-0.277-0.466-0.411c0-0.034,0.196-0.503,0.29-0.739
			c0.027-0.07,0.07-0.146,0.124-0.2c0.109-0.109,0.191-0.153,0.315-0.153c0.034,0,0.096-0.007,0.127,0.018
			c0.169,0.137,0.254,0.328,0.346,0.481c0.159,0.261,0.275,0.502,0.387,0.764c0.14,0.328,0.442,0.994,0.442,1.028
			c0,0.007-0.003,0.015-0.007,0.023l1.478-0.001c-0.348-0.63-0.747-1.259-1.087-1.867c-0.155-0.278-0.346-0.57-0.504-0.857
			c-0.019-0.035-0.003-0.08-0.068-0.174c-0.016-0.092-0.071-0.232-0.071-0.265c0-0.201,0.177-0.03,0.177-0.302
			c0-0.084-0.015-0.135-0.093-0.291c-0.041-0.084-0.007-0.196-0.05-0.281c-0.027-0.055-0.106-0.083-0.158-0.12
			C30.973,22.191,31,22.03,31,21.996c0-0.033-0.123-0.308-0.123-0.341c0-0.034,0.164-0.275,0.164-0.308
			c0-0.034-0.041-0.095-0.072-0.11c-0.104-0.049-0.212-0.081-0.326-0.16c-0.075-0.052-0.181-0.093-0.227-0.149
			c-0.063-0.077-0.055-0.198-0.062-0.265c-0.024-0.196-0.302-0.419-0.387-0.592c-0.112-0.228-0.076-0.495-0.255-0.725
			c-0.046-0.059-0.525-0.418-0.771-0.418c-0.034,0-0.293,0.067-0.327,0.067c-0.034,0-0.237-0.054-0.363-0.094h-0.228
			c-0.053,0-0.221,0.215-0.277,0.237c-0.09,0.035-0.192,0.02-0.272,0.035c-0.031,0.005-0.167,0.077-0.237,0.077
			c-0.034,0-0.22-0.054-0.254-0.054h-0.215c-0.034,0-0.093,0.016-0.115,0.031c-0.131,0.094-0.266,0.212-0.353,0.323
			c-0.05,0.064-0.067,0.161-0.104,0.225c-0.056,0.095-0.143,0.183-0.196,0.282c-0.041,0.074-0.068,0.165-0.104,0.241
			c-0.031,0.069-0.087,0.142-0.101,0.216c-0.068,0.37-0.14,1.1-0.14,1.133c0,0.085,0.03,0.048,0.091,0.17
			c0.024,0.049,0.008,0.109,0.022,0.16c0.012,0.043,0.077,0.057,0.087,0.107c0.051,0.231,0.116,0.495,0.219,0.711
			c0.044,0.094,0.074,0.212,0.132,0.296c0.094,0.132,0.145,0.231,0.145,0.365c0,0.249-0.036,0.17-0.334,0.353
			c-0.034,0.02-0.046,0.078-0.075,0.109c0.05,0.081,0.218,0.319,0.218,0.416c0,0.086-0.314,0.261-0.314,0.315
			c0,0.117,0.109,0.266,0.109,0.442c0,0.033,0.009,0.104-0.018,0.151c-0.025,0.045-0.088,0.058-0.114,0.097
			c-0.244,0.364-0.501,0.73-0.732,1.102 M25.091,26.441c-0.114,0.184-0.222,0.369-0.318,0.556c-0.167,0.323-0.304,0.682-0.393,1.014
			c-0.109,0-0.173-0.294-0.203-0.371c-0.025-0.065-0.073-0.146-0.101-0.214c-0.025-0.064-0.043-0.136-0.077-0.202
			c-0.137-0.263-0.272-0.528-0.409-0.784 M17.656,23.782c0.025-0.028,0.071-0.057,0.105-0.057c0.211,0,0.37,0.062,0.548,0.311
			c0.036,0.05,0.148,0.185,0.148,0.245c0,0.06,0.002,0.106-0.14,0.188c-0.118,0.067-0.263,0.113-0.396,0.17
			c-0.015,0.007-0.385,0.185-0.453,0.185c-0.054,0-0.102-0.015-0.102-0.087C17.365,24.702,17.556,24.104,17.656,23.782z
			 M16.956,28.782c0-0.114,0.146-0.137,0.209-0.164c0.191-0.082,0.393-0.184,0.6-0.294c0.09-0.049,0.205-0.102,0.3-0.148
			c0.322-0.154,0.711-0.397,1.041-0.513c0.031,0.028,0.058,0.069,0.068,0.112c0.044,0.184,0.087,0.546,0.087,0.579v0.198
			c0,0.114,0.213,0.927,0.235,0.991c0.004,0.013,0.01,0.026,0.015,0.04c0.067,0.164,0.213,0.399,0.213,0.565
			c0,0.136-0.045,0.27-0.095,0.403l-0.027,1.312c-0.009,0.052-0.068,0.636-0.252,0.636c-0.147,0-0.403-0.5-0.461-0.593
			c-0.142-0.228-0.93-1.478-1.454-2.327C17.159,29.136,16.956,28.801,16.956,28.782z M31.952,30.06
			c-0.791,0.777-1.575,1.589-2.386,2.34c-0.128,0.119-0.206,0.154-0.325,0.154c-0.227,0-0.205-0.378-0.205-0.502l0.014-0.39
			c0.049-0.262,0.038-0.622,0.344-0.845c0.02-0.015,0.06,0.005,0.082-0.009c0.136-0.084,0.897-0.332,0.897-0.699
			c0-0.144-0.093-0.344-0.174-0.523c-0.037-0.082-0.072-0.159-0.095-0.225c-0.082-0.238-0.208-0.717-0.207-0.751v-0.074
			c0.826,0.294,1.663,0.592,2.476,0.9c0.032,0.012,0.045,0.05,0.045,0.083c0,0.019-0.007,0.042-0.02,0.064
			C32.321,29.737,32.042,29.972,31.952,30.06z"/>
	</g>
	<g display="inline">
		<path fill-rule="evenodd" clip-rule="evenodd" fill="#FFFFFF" d=""/>
	</g>
</g>
</svg>
