<?xml version="1.0" encoding="utf-8"?>
<!-- Generator: Adobe Illustrator 17.0.0, SVG Export Plug-In . SVG Version: 6.00 Build 0)  -->
<!DOCTYPE svg PUBLIC "-//W3C//DTD SVG 1.1//EN" "http://www.w3.org/Graphics/SVG/1.1/DTD/svg11.dtd">
<svg version="1.1" id="Layer_1" xmlns="http://www.w3.org/2000/svg" xmlns:xlink="http://www.w3.org/1999/xlink" x="0px" y="0px"
	 width="164px" height="50px" viewBox="0 0 164 50" enable-background="new 0 0 164 50" xml:space="preserve">
<g id="Layer_1_1_" display="none">
	<g display="inline">
		<path d="M81.164,11.015c9.529,0,17.316,7.436,17.316,16.544s-7.787,16.544-17.316,16.544c-9.541,0-17.316-7.436-17.316-16.544
			S71.623,11.015,81.164,11.015z"/>
		<path fill="#FFF200" d="M81.164,11.576c9.225,0,16.743,7.179,16.743,15.983s-7.518,15.983-16.743,15.983
			S64.41,36.363,64.41,27.559S71.939,11.576,81.164,11.576z"/>
		<path d="M102.49,29.968c-0.889,10.499-10.254,18.8-21.607,18.8c-10.219,0-18.824-6.723-21.092-15.702l2.502-0.187
			c2.935,7.565,10.172,12.931,18.59,12.931c9.412,0,17.339-6.711,19.444-15.679L102.49,29.968z"/>
		<path d="M58.599,15.914v-1.602h1.263v1.602H58.599L58.599,15.914z M58.599,11.787V9.483c0.21,0.14,0.398,0.362,0.398,0.713v1.59
			L58.599,11.787L58.599,11.787z M46.077,12.862h0.094c1.847,0.047,1.426-1.368,1.426-4.104c0-2.701,0.374-4.057-1.52-4.069V1.72
			h1.777c2.42,0,4.092,1.649,4.092,2.479l-0.047,9.283c0,1.368-1.461,2.432-3.776,2.432h-2.046L46.077,12.862L46.077,12.862z
			 M58.599,9.483v2.303l-1.017,0.012c-0.012-1.052-0.269-1.134-0.62-1.134c-0.351,0.012-0.62,0.257-0.62,1.122v2.596h0.585v1.532
			h-3.414v-1.532h0.409v-3.414h-0.409V9.425h2.724v0.795c0.129-0.316,0.818-0.935,1.707-0.97C58.014,9.25,58.33,9.308,58.599,9.483
			L58.599,9.483z M58.599,14.312h-0.398v1.602h0.398V14.312z M44.51,12.827l1.567,0.035v3.052h-6.945v-2.841h0.456
			c0.421,0.023,0.585-0.246,0.585-0.538V5.099c0.012-0.374-0.234-0.479-0.643-0.514l-0.398-0.023V1.72h6.945v2.97
			c-0.012,0-0.023,0-0.023,0H44.51V12.827z"/>
		<path d="M97.661,30.365c-1.368,7.237-8.032,12.767-15.994,12.767c-5.881,0-11.049-3.005-13.902-7.483
			c2.584,2.023,7.214,7.565,17.058,5.904c-3.8-0.97-8.465-1.45-13.142-6.127C82.696,35.556,90.669,33.007,97.661,30.365z"/>
		<g>
			<path fill="#FFF200" d="M89.559,9.916h0.058c-0.023,0.129-0.035,0.246-0.058,0.374V9.916L89.559,9.916z M89.559,10.945
				l0.62,0.631c-0.164,1.239-0.327,2.467-0.491,3.706l1.836,0.105c0.491-0.409,0.982-0.83,1.473-1.239l1.695,1.286
				c0.514-0.468,1.017-0.947,1.532-1.426c-0.222-0.351-0.456-0.69-0.69-1.041c0.058-0.316,0.129-0.643,0.199-0.959L95.99,12.3
				l1.356,0.117c0.105-0.62,0.222-1.251,0.327-1.871c-0.631-0.304-1.251-0.596-1.882-0.9c-0.865-0.023-1.73-0.058-2.596-0.082
				c0.082,0.456,0.164,0.9,0.257,1.356l0.012,0.117l-0.409,2.093c-0.222-0.035-0.444-0.082-0.666-0.117
				c0.094-0.456,0.175-0.924,0.269-1.38l0.187-1.251l-2.701-0.935c-0.199,0.433-0.398,0.854-0.585,1.286L89.559,10.945
				L89.559,10.945z M91.301,6.911l0.737-0.175l0.117-0.012l0.14,0.012l0.14,0.035l0.129,0.058l0.117,0.082l0.094,0.105l0.07,0.129
				c0.058,0.152,0.094,0.304,0.129,0.468l0.094,0.468v0.14l-0.047,0.14l-0.06,0.129l-0.082,0.105l-0.105,0.094L92.645,8.77
				c-0.316,0.105-0.655,0.164-0.97,0.246l-0.117,0.012h-0.152l-0.14-0.047l-0.117-0.058L91.032,8.84l-0.094-0.105l-0.082-0.129
				c-0.082-0.257-0.14-0.538-0.199-0.818l-0.023-0.105l0.012-0.152l0.035-0.14l0.07-0.129l0.082-0.105l0.105-0.094l0.117-0.082
				L91.301,6.911z M72.676,10.98c0.327,0.117,0.655,0.234,0.982,0.339l-0.175,1.251c-0.094,0.468-0.187,0.935-0.281,1.391
				l0.889,0.14l0.421-2.128l-0.023-0.105L74.243,10.5l2.596,0.082c0.62,0.304,1.239,0.608,1.871,0.9l-0.082-1.637L77.89,8.291
				c0.912-0.818,1.836-1.637,2.748-2.455l0.164,3.075c0.865-0.538,1.742-1.087,2.596-1.625c0.07,0.97,0.129,1.929,0.199,2.9
				l1.801-3.391l2.444,0.094V8.35l-1.017,0.655c-0.234,0.175-0.456,0.339-0.69,0.503l-1.309,3.437
				c0.631-0.444,1.263-0.889,1.894-1.333l-0.374-0.14l0.14-1.555h3.075v0.374c-0.199,1.052-0.386,2.105-0.585,3.145l0.433,0.795
				c-0.386,0.854-0.783,1.695-1.181,2.549l-1.146-1.146l-1.239,0.491c-0.468-0.386-0.935-0.783-1.403-1.169l-0.187-0.818
				l-2.046,1.988l-0.479-1.976l-0.082,0.058v0.783l-1.286,0.643c-0.514-0.666-1.041-1.333-1.555-1.999l-0.094-2.105l-0.327,1.836
				l-1.356-0.117l-0.257-0.304c-0.07,0.327-0.129,0.655-0.199,0.97l0.702,1.041l-1.532,1.426l-1.812-1.38l-1.251,1.052V10.98H72.676
				z M89.559,10.734c-0.023,0.047-0.047,0.094-0.07,0.152l0.07,0.058V10.734L89.559,10.734z M72.676,9.916l0.795-0.199l0.117-0.082
				l0.105-0.094l0.094-0.117l0.058-0.129l0.035-0.129l0.012-0.14l-0.105-0.479c-0.035-0.152-0.07-0.316-0.129-0.468l-0.07-0.117
				l-0.094-0.105l-0.105-0.082l-0.129-0.07L73.12,7.67l-0.14-0.012l-0.117,0.023L72.676,7.73V9.916z M70.548,15.961
				c0.14-1.146,0.292-2.292,0.444-3.437l-0.69-0.702l0.655-1.426c0.573,0.199,1.146,0.386,1.719,0.585v5.074l-0.339,0.281
				l-1.438-0.082l0.187,0.152c-0.982,0.666-1.964,1.333-2.935,1.999c-0.281-0.772-0.561-1.555-0.842-2.327
				c-0.14,0-0.281-0.012-0.421-0.012l-0.842,2.607l-2.455-2.081l0.55-1.38l0.842,0.175l0.982-2.385l0.83-2.128l0.678-1.309
				l0.643-0.959l1.543-0.129v6.734L70.548,15.961L70.548,15.961z M72.676,7.73l-0.55,0.129l-0.246,0.07l-0.129,0.07l-0.105,0.094
				L71.564,8.21l-0.058,0.129l-0.047,0.14v0.14l0.012,0.117c0.058,0.269,0.117,0.561,0.21,0.818l0.07,0.129l0.094,0.105l0.117,0.082
				l0.129,0.058l0.14,0.035l0.14,0.012l0.117-0.012l0.187-0.047V7.73H72.676z"/>
			<path d="M86.004,15.458v-1.076c0.187,0.012,0.362,0.023,0.55,0.035c0.187-0.316,0.374-0.62,0.561-0.935
				c-0.094-0.082-0.187-0.152-0.281-0.222c-0.281,0.187-0.55,0.386-0.83,0.585v-1.041c0.444-0.316,0.889-0.62,1.333-0.935
				c0.012-0.199,0.035-0.409,0.047-0.608c-0.14-0.058-0.292-0.117-0.444-0.164c0.023-0.21,0.047-0.409,0.058-0.608
				c0.655,0,1.298,0,1.941,0c-0.187,1.005-0.362,2.023-0.55,3.04c0.129,0.246,0.257,0.491,0.386,0.725
				c-0.246,0.514-0.479,1.041-0.725,1.555c-0.269-0.281-0.55-0.55-0.83-0.83C86.811,15.131,86.414,15.294,86.004,15.458
				L86.004,15.458z M86.004,8.911v-1.52c0.421,0.012,0.854,0.023,1.274,0.047c0,0.199,0,0.398,0,0.608
				c-0.257,0.164-0.514,0.327-0.772,0.491C86.332,8.665,86.168,8.782,86.004,8.911L86.004,8.911z M90.436,10.15
				c0.596,0.199,1.193,0.409,1.777,0.608c-0.035,0.257-0.07,0.526-0.105,0.783c-0.129,0.643-0.257,1.286-0.386,1.941
				c0.327,0.047,0.655,0.105,0.994,0.164c-0.468,0.386-0.924,0.772-1.391,1.169c-0.327-0.023-0.666-0.047-0.994-0.058
				c0.152-1.134,0.292-2.257,0.444-3.391c-0.21-0.199-0.409-0.398-0.608-0.608C90.26,10.559,90.342,10.349,90.436,10.15
				L90.436,10.15z M91.336,7.484c0.269-0.058,0.538-0.129,0.807-0.187c0.094-0.023,0.175,0.035,0.199,0.117
				c0.058,0.222,0.105,0.433,0.152,0.655c0.023,0.082-0.023,0.175-0.117,0.199c-0.269,0.058-0.538,0.129-0.807,0.187
				c-0.094,0.023-0.187-0.035-0.199-0.117c-0.058-0.222-0.105-0.433-0.164-0.643C91.184,7.601,91.242,7.507,91.336,7.484
				L91.336,7.484z M93.885,10.15c0.585,0.023,1.181,0.035,1.765,0.058c0.468,0.222,0.924,0.444,1.391,0.666
				c-0.058,0.316-0.117,0.62-0.164,0.935c-0.21-0.012-0.409-0.035-0.608-0.047c-0.152-0.175-0.304-0.339-0.444-0.503
				c-0.187,0.058-0.374,0.105-0.561,0.164c-0.105,0.561-0.222,1.111-0.327,1.672c0.187,0.269,0.362,0.55,0.55,0.83
				c-0.281,0.257-0.55,0.514-0.83,0.772c-0.386-0.292-0.772-0.596-1.169-0.889c0.187-0.924,0.374-1.847,0.561-2.771
				C93.99,10.746,93.931,10.442,93.885,10.15z M67.461,10.793c0.281-0.573,0.596-1.122,0.97-1.637
				c0.222-0.023,0.444-0.047,0.666-0.058c0,2.128,0,4.256,0,6.384c0.351,0.292,0.702,0.585,1.052,0.877
				c-0.573,0.398-1.146,0.783-1.719,1.169c-0.246-0.666-0.479-1.333-0.725-1.999c-0.082,0-0.164,0-0.246-0.012v-1.403
				c0.152,0.035,0.316,0.058,0.468,0.082c-0.094-0.479-0.187-0.959-0.281-1.438c-0.058,0.129-0.129,0.246-0.187,0.374v-2.339H67.461
				z M86.004,7.391v1.52c-0.117,0.082-0.222,0.164-0.339,0.246c-0.573,1.497-1.146,2.993-1.719,4.49
				c-0.479,0.456-0.947,0.924-1.426,1.391c-0.152-0.62-0.292-1.228-0.444-1.836c-0.327,0.246-0.666,0.479-0.994,0.725
				c0,0.234,0,0.479,0,0.713c-0.187,0.094-0.374,0.187-0.561,0.281c-0.386-0.503-0.772-0.994-1.169-1.497
				c-0.047-1.239-0.105-2.479-0.164-3.718c-0.199-0.421-0.409-0.854-0.608-1.274c0.514-0.468,1.041-0.924,1.555-1.391
				c0.07,1.391,0.152,2.783,0.222,4.162c0.129,0,0.257,0,0.386,0c0.222-0.292,0.444-0.585,0.666-0.889
				c-0.094-0.316-0.187-0.62-0.281-0.935c0.596-0.374,1.193-0.748,1.777-1.111c0.07,1.087,0.14,2.175,0.21,3.274
				c0.094,0.07,0.187,0.14,0.281,0.222c0.772-1.461,1.555-2.923,2.327-4.384C85.817,7.379,85.911,7.379,86.004,7.391L86.004,7.391z
				 M86.004,12.804c-0.433,0.304-0.854,0.596-1.274,0.9c0.07,0.316,0.14,0.62,0.222,0.935c0.327,0.281,0.666,0.561,0.994,0.842
				c0.023-0.012,0.035-0.023,0.058-0.023v-1.076c-0.07,0-0.152-0.012-0.222-0.012c0.035-0.152,0.07-0.304,0.105-0.444
				c0.047-0.035,0.082-0.058,0.117-0.082V12.804L86.004,12.804z M71.261,11.097c0.585,0.199,1.181,0.398,1.777,0.608
				c-0.047,0.257-0.082,0.514-0.117,0.772c-0.129,0.655-0.257,1.298-0.386,1.941c0.327,0.058,0.666,0.117,0.994,0.175
				c-0.456,0.386-0.924,0.772-1.38,1.157c-0.339-0.012-0.666-0.035-1.006-0.058c0.152-1.122,0.304-2.245,0.444-3.379
				c-0.199-0.199-0.409-0.409-0.608-0.608C71.074,11.494,71.167,11.296,71.261,11.097L71.261,11.097z M72.15,8.431
				c0.269-0.07,0.538-0.129,0.807-0.199c0.094-0.012,0.187,0.035,0.21,0.129c0.047,0.21,0.094,0.433,0.152,0.643
				c0.023,0.094-0.035,0.187-0.129,0.199c-0.269,0.07-0.538,0.129-0.807,0.199c-0.082,0.023-0.175-0.035-0.199-0.117
				c-0.047-0.222-0.105-0.433-0.152-0.655C72.009,8.548,72.068,8.455,72.15,8.431L72.15,8.431z M74.921,11.097
				c0.596,0.012,1.181,0.035,1.777,0.047c0.456,0.222,0.924,0.444,1.38,0.666c-0.047,0.316-0.105,0.631-0.164,0.947
				c-0.199-0.023-0.409-0.035-0.608-0.058c-0.152-0.164-0.292-0.327-0.444-0.491c-0.187,0.047-0.374,0.105-0.55,0.164
				c-0.117,0.55-0.222,1.111-0.339,1.66c0.187,0.281,0.374,0.561,0.561,0.83c-0.281,0.257-0.561,0.526-0.842,0.783
				c-0.386-0.304-0.772-0.596-1.157-0.889c0.187-0.924,0.362-1.847,0.55-2.771C75.026,11.681,74.979,11.389,74.921,11.097z
				 M64.269,16.417c0.07-0.187,0.152-0.362,0.222-0.55c0.281,0.047,0.55,0.105,0.83,0.164c0.386-0.947,0.783-1.882,1.169-2.829
				c0.292-0.818,0.596-1.625,0.97-2.409v2.338c-0.164,0.304-0.316,0.596-0.479,0.9c0.164,0.035,0.316,0.058,0.479,0.082v1.403
				c-0.327-0.012-0.655-0.023-0.97-0.035c-0.246,0.737-0.479,1.473-0.725,2.21C65.263,17.27,64.772,16.849,64.269,16.417z"/>
		</g>
		<g>
			<path d="M120.016,19.854l2.981-2.081c0.362-0.386,0.585-0.737,0.631-1.099l-3.613,2.537L120.016,19.854L120.016,19.854z
				 M120.016,18.556v-0.655l3.332-2.338c0.105,0.175,0.175,0.339,0.222,0.491L120.016,18.556L120.016,18.556z M120.016,17.258
				v-0.655l2.736-1.917l0.304,0.433L120.016,17.258L120.016,17.258z M120.016,15.949l2.42-1.695l-1.111-1.555
				c-0.398-0.362-0.818-0.55-1.309-0.503V15.949z M117.081,21.912l2.935-2.058v-0.643l-2.935,2.046V21.912L117.081,21.912z
				 M120.016,12.196v3.753l-0.596,0.421l-0.444-0.666c-0.246-0.292-0.702-0.269-1.122,0.035l-0.772,0.55v-2.397l1.73-1.181
				C119.268,12.395,119.654,12.231,120.016,12.196L120.016,12.196z M120.016,16.604v0.655l-2.935,2.046V18.65l1.099-0.76
				c0.152,0.082,0.327,0.129,0.491,0.105l0.76-0.538c0.175-0.152,0.234-0.386,0.21-0.596L120.016,16.604L120.016,16.604z
				 M120.016,17.902v0.655l-2.935,2.046V19.96L120.016,17.902L120.016,17.902z M117.081,18.007l0.643-0.456
				c-0.082-0.07-0.14-0.14-0.199-0.199l-0.444,0.304V18.007L117.081,18.007z M117.081,12.558c0.012,0.012,0.012,0.012,0.012,0.012
				l2.502-1.789l-1.73-2.49l-0.783,0.561L117.081,12.558L117.081,12.558z M116.45,21.701l0.304,0.444l0.327-0.234v-0.655
				L116.45,21.701L116.45,21.701z M117.081,8.852v3.706c-0.327-0.105-0.655-0.433-0.97-0.327l-0.9,0.62
				c-0.187,0.269-0.234,0.339-0.023,0.69l0.479,0.69c0.292,0.246,0.725,0.175,1.087-0.105l0.327-0.234v2.397l-1.73,1.216
				c-0.772,0.421-1.403,0.573-2.338-0.351l-1.73-2.444c-0.175-0.269-0.269-0.538-0.281-0.795v-0.129
				c0.023-0.362,0.199-0.713,0.55-1.052L117.081,8.852L117.081,8.852z M117.081,17.656l-2.315,1.625l0.164,0.234l2.151-1.508V17.656
				L117.081,17.656z M117.081,18.65v0.655l-1.543,1.087l-0.304-0.444L117.081,18.65L117.081,18.65z M117.081,19.959v0.643
				l-0.935,0.666l-0.304-0.444L117.081,19.959z"/>
			<path d="M63.135,31.721c-0.222,0.21-0.468,0.386-0.737,0.538c-0.082,0.047-0.175,0.094-0.269,0.129v-0.666L63.135,31.721
				L63.135,31.721z M62.13,31.195v-0.538h5.437v0.538H62.13L62.13,31.195z M62.13,30.12v-0.526h5.437v0.526L62.13,30.12L62.13,30.12
				z M62.13,29.056v-0.281c0.444-0.023,0.818-0.222,1.099-0.608c0.292-0.374,0.433-0.889,0.433-1.543
				c0-0.643-0.14-1.157-0.433-1.543c-0.281-0.374-0.655-0.573-1.099-0.596v-2.9c0.047,0.023,0.094,0.035,0.129,0.058
				c0.444,0.187,0.877,0.561,1.286,1.122v-1.017h0.175h3.052v6.197c-0.035,0.83,0.409,0.83,0.795,0.83v0.281L62.13,29.056
				L62.13,29.056z M67.566,31.721v0.538h-0.187h-3.835v-0.538C63.544,31.721,67.566,31.721,67.566,31.721z M62.13,32.388
				c-0.386,0.164-0.807,0.234-1.274,0.234l-0.175,0.023c-0.97-0.012-1.765-0.316-2.397-0.924h3.847v0.667H62.13z M62.13,21.584v2.9
				h-0.012c-0.491,0.035-0.865,0.246-1.111,0.631c-0.246,0.398-0.386,0.83-0.421,1.309c0,0.035,0,0.07,0,0.094
				c0,0.035,0,0.07,0,0.105c0,0.55,0.129,1.029,0.374,1.461c0.246,0.433,0.631,0.666,1.157,0.69h0.012v0.281h-5.285
				c-0.164-0.643-0.246-1.333-0.246-2.069c0-0.164,0-0.351,0.012-0.538s0.035-0.374,0.058-0.561
				c0.129-1.134,0.514-2.175,1.146-3.122c0.643-0.935,1.59-1.403,2.865-1.403h0.175C61.3,21.362,61.732,21.432,62.13,21.584
				L62.13,21.584z M62.13,29.593v0.526h-4.911c-0.07-0.164-0.14-0.351-0.21-0.526L62.13,29.593L62.13,29.593z M62.13,30.657v0.538
				h-4.303c-0.058-0.094-0.117-0.175-0.175-0.269c-0.058-0.082-0.117-0.175-0.164-0.269C57.488,30.657,62.13,30.657,62.13,30.657z"
				/>
			<path d="M97.31,30.33v-0.643l1.076-0.281c0,0,0,0-0.012,0.012C98.082,29.769,97.72,30.073,97.31,30.33L97.31,30.33z
				 M97.31,29.137v-0.55l1.765-0.479c-0.058,0.222-0.14,0.421-0.234,0.62L97.31,29.137L97.31,29.137z M97.31,28.038v-0.55
				l1.859-0.503c0.023,0.187,0.023,0.374,0,0.55L97.31,28.038L97.31,28.038z M97.31,26.928v-1.169l1.508-0.398l0.21,0.818
				c0.035,0.094,0.047,0.187,0.07,0.269L97.31,26.928L97.31,26.928z M97.31,24.613v-4.186c0.21,0.339,0.374,0.725,0.491,1.169
				l0.725,2.689L97.31,24.613z M97.31,20.427v4.186l-1.917,0.514v-6.08c0.07,0.023,0.152,0.047,0.222,0.07
				C96.352,19.375,96.913,19.807,97.31,20.427L97.31,20.427z M97.31,25.758v1.169l-1.532,0.409
				c-0.012-0.129-0.047-0.269-0.082-0.421l-0.187-0.678L97.31,25.758L97.31,25.758z M97.31,27.489v0.55l-1.917,0.514v-0.047
				c0.152-0.117,0.269-0.257,0.327-0.433c0.023-0.058,0.035-0.117,0.047-0.175L97.31,27.489L97.31,27.489z M97.31,28.588v0.55
				l-1.917,0.514v-0.55L97.31,28.588L97.31,28.588z M97.31,29.687v0.643c-0.491,0.292-1.064,0.538-1.719,0.713
				c-0.07,0.012-0.14,0.035-0.199,0.047v-0.889L97.31,29.687z M93.534,23.42l1.146-0.304l-0.117-0.409
				c-0.152-0.596-0.339-0.994-0.55-1.193c-0.117-0.117-0.281-0.187-0.479-0.187v-2.432c0.666-0.07,1.286-0.012,1.859,0.152v6.08
				l-1.859,0.491L93.534,23.42L93.534,23.42z M95.393,28.506v0.047L95.218,28.6C95.276,28.564,95.334,28.541,95.393,28.506
				L95.393,28.506z M95.393,29.102v0.55l-1.859,0.503v-0.561L95.393,29.102L95.393,29.102z M95.393,30.201v0.889
				c-0.655,0.152-1.274,0.21-1.859,0.164v-0.55L95.393,30.201L95.393,30.201z M93.534,29.044v-0.55l0.327-0.082
				c0.035,0.047,0.082,0.094,0.129,0.14c0.187,0.152,0.409,0.21,0.702,0.187L93.534,29.044L93.534,29.044z M93.534,27.945v-0.14
				c0.023,0.047,0.035,0.082,0.047,0.129L93.534,27.945z M92.423,23.712l1.111-0.292v2.198l-0.55,0.152l0.468,1.742
				c0.023,0.105,0.058,0.199,0.082,0.292v0.14l-3.262,0.877c-0.035-0.094-0.07-0.199-0.094-0.292l-1.228-4.607
				c-0.094-0.316-0.14-0.631-0.152-0.924V22.73c0.035-0.737,0.304-1.403,0.818-1.999c0.643-0.76,1.578-1.298,2.783-1.625
				c0.386-0.105,0.772-0.175,1.134-0.21v2.432c-0.14-0.012-0.316,0.012-0.503,0.058c-0.76,0.21-0.994,0.854-0.713,1.929
				L92.423,23.712L92.423,23.712z M93.534,28.494l-3.063,0.818c0.082,0.175,0.175,0.327,0.281,0.479l2.783-0.748L93.534,28.494
				L93.534,28.494z M93.534,29.593v0.561l-1.882,0.503c-0.187-0.117-0.362-0.257-0.526-0.409L93.534,29.593L93.534,29.593z
				 M93.534,30.704v0.55c-0.398-0.035-0.783-0.117-1.146-0.246L93.534,30.704z"/>
			<path d="M84.017,17.399l1.017-0.094l0.257,2.9c0.129,0.421,0.351,0.643,0.865,0.678l0.246,2.748L85.7,23.958l-0.21,0.795
				l0.222,2.467c0.14,0.514,0.538,1.005,1.356,0.924l0.023,0.362l-3.075,0.269L84.017,17.399L84.017,17.399z M84.017,31.979v-0.526
				l3.309-0.292l0.047,0.526L84.017,31.979L84.017,31.979z M84.017,30.915v-0.538l3.215-0.281l0.047,0.526L84.017,30.915
				L84.017,30.915z M84.017,29.839v-0.526l3.122-0.281l0.047,0.538L84.017,29.839z M80.895,29.044l-0.035-0.351
				c0.807-0.07,1.122-0.62,1.169-1.157l-0.21-2.467L81.48,24.32l-0.748-0.199l-0.234-2.748c0.491-0.117,0.678-0.386,0.725-0.818
				l-0.246-2.9l3.04-0.257v11.376L80.895,29.044L80.895,29.044z M84.017,29.313v0.526l-3.028,0.269l-0.047-0.526L84.017,29.313
				L84.017,29.313z M84.017,30.377v0.538l-2.935,0.257l-0.047-0.526L84.017,30.377L84.017,30.377z M84.017,31.452v0.526
				l-2.841,0.257l-0.047-0.538L84.017,31.452z"/>
			<path d="M111.165,25.256v-0.561l2.257-0.818l0.175,0.491L111.165,25.256L111.165,25.256z M111.165,24.122l2.069-0.748
				l-0.175-0.503l-1.894,0.69V24.122L111.165,24.122z M111.165,22.987v-0.561l1.52-0.561l0.187,0.503L111.165,22.987L111.165,22.987
				z M111.165,21.853v-1.228l0,0c0.234,0.526,0.818,0.631,1.216,0.409l0.129,0.327L111.165,21.853z M107.903,25.875l0.187,0.503
				l-2.818,1.029v-0.573L107.903,25.875L107.903,25.875z M111.165,20.626v1.228l-2.993,1.087l-0.129-0.327l-1.309-3.613
				c-0.339-0.433-0.655-0.643-1.041-0.514c-0.222,0.082-0.351,0.257-0.421,0.479v-3.718c0.164-0.164,0.362-0.316,0.561-0.433
				c1.695-0.9,3.578,0.316,3.893,1.497l0.935,2.736l-0.07,0.023L111.165,20.626L111.165,20.626z M111.165,22.426l-2.806,1.017
				l0.175,0.503l2.631-0.959V22.426L111.165,22.426z M111.165,23.56v0.561l-2.268,0.83l-0.175-0.503L111.165,23.56L111.165,23.56z
				 M111.165,24.694l-2.081,0.76l0.187,0.491l1.894-0.69L111.165,24.694L111.165,24.694z M105.273,26.273l2.455-0.9l-0.187-0.491
				l-2.268,0.818L105.273,26.273L105.273,26.273z M105.273,25.139v-0.573l1.906-0.69l0.175,0.503L105.273,25.139L105.273,25.139z
				 M105.273,24.005l1.719-0.631l-0.117-0.339c-0.187,0.152-0.491-0.058-0.725-0.585l-0.713-1.964
				c-0.07-0.187-0.129-0.386-0.164-0.585C105.273,19.901,105.273,24.005,105.273,24.005z M105.273,27.407l-2.268,0.818l-0.187-0.491
				l2.455-0.9L105.273,27.407L105.273,27.407z M105.273,15.247v3.718c-0.082,0.269-0.07,0.608,0,0.935v4.104l-3.367,1.216
				l-0.117-0.327c0.748-0.269,0.655-0.795,0.561-1.321l-0.854-2.327l-0.514-0.643h-0.76l-0.947-2.596l4.466-1.613l0.362,1.005
				C104.127,17.106,104.524,15.984,105.273,15.247L105.273,15.247z M105.273,24.566l-3.18,1.157l0.175,0.503l3.005-1.087V24.566
				L105.273,24.566z M105.273,25.7l-2.818,1.029l0.175,0.503l2.642-0.959L105.273,25.7L105.273,25.7z"/>
			<path d="M75.201,31.721v0.538H69.25v-0.538L75.201,31.721L75.201,31.721z M75.201,30.657v0.538H69.25v-0.538H75.201
				L75.201,30.657z M75.201,29.593v0.526H69.25v-0.526L75.201,29.593L75.201,29.593z M73.997,21.374v1.087
				c0.152-0.327,1.239-1.859,2.514-1.836c1.508,0.023,2.537,1.695,2.666,2.724l-0.058,2.888H76.23
				c-0.234-1.321-0.433-2.198-1.111-2.21s-0.924,0.97-0.924,1.789v2.081c0.035,0.585,0.55,0.877,1.005,0.807v0.351h-5.95v-0.351
				c0.807,0,0.9-0.526,0.982-1.052v-2.479l-0.257-0.772l-0.725-0.269v-2.759h4.747V21.374z"/>
			<path d="M55.278,31.721v0.585H48.24v-0.585H55.278L55.278,31.721z M55.278,30.657v0.538H48.24v-0.538H55.278L55.278,30.657z
				 M55.278,29.593v0.526H48.24v-0.526L55.278,29.593L55.278,29.593z M45.516,31.721v0.585h-6.968v-0.585H45.516L45.516,31.721z
				 M45.516,30.657v0.538h-6.968v-0.538H45.516L45.516,30.657z M45.516,29.593v0.526h-6.968v-0.526L45.516,29.593L45.516,29.593z
				 M44.171,27.851c0.094,0.631,0.246,0.514,0.69,0.9h0.655v0.304h-6.968v-0.304h0.889c0.807-0.222,1.017-0.748,0.994-1.38
				l0.012-5.612c-0.047-0.631-0.433-0.959-1.006-0.994h-0.889v-3.028h5.074l2.794,4.665l2.21-4.665h6.653v3.028H54.39
				c-0.643,0.094-1.122,0.479-1.064,1.169v5.717c0.058,0.608,0.421,1.087,1.064,1.099h0.889v0.304H48.24V28.75
				c0.713-0.117,0.842-0.292,0.9-0.713l0.012-1.777l-2.455,2.093l-2.537-2.245L44.171,27.851z"/>
		</g>
	</g>
</g>
<g id="Layer_3" display="none">
	<polygon display="inline" fill="#E13A3E" points="2.199,14.429 33.34,14.429 33.34,36.091 2.199,36.091 	"/>
	<path display="inline" fill="#FFFFFF" d="M15.661,27.572c0.028,0.143-0.037,0.248-0.105,0.349c-0.127,0.11-0.248,0.221-0.437,0.174
		c-0.078-0.043-0.158-0.127-0.127-0.236c0.148-0.207,0.375-0.303,0.607-0.35L15.661,27.572L15.661,27.572z"/>
	<path display="inline" fill="#FFFFFF" d="M22.676,26.38c0.254,0.18,0.08,0.506,0.068,0.739c-0.232,0.381-0.859,0.502-0.738,1.067
		c-0.279,0.402-0.871,0.148-1.262,0.127c-0.127-0.043-0.317-0.068-0.326-0.238c0.041-0.285,0.4-0.301,0.521-0.565
		c0.221-0.338-0.099-0.922,0.285-1.17C21.721,26.321,22.195,26.363,22.676,26.38L22.676,26.38z"/>
	<path display="inline" fill="#FFFFFF" d="M15.878,26.228c0.037,0.252,0.133,0.547,0,0.779c-0.047,0.042-0.115,0.016-0.168,0.047
		c-0.143-0.299-0.291-0.6-0.502-0.869c-0.022-0.1,0.021-0.183,0.105-0.217C15.534,25.978,15.772,25.995,15.878,26.228L15.878,26.228
		z"/>
	<path display="inline" fill="#FFFFFF" d="M26.237,24.079c0.455,0.422,0.836,0.881,0.824,1.498c0.27,0.401-0.227,0.655-0.41,0.955
		c-0.207,0.207-0.586,0.133-0.846,0.084c-0.105-0.063-0.137-0.184-0.09-0.277c0.254-0.536,1.315-0.836,0.781-1.522
		c-0.115-0.274-0.537-0.385-0.453-0.717C26.106,24.095,26.174,24.02,26.237,24.079L26.237,24.079z"/>
	<path display="inline" fill="#FFFFFF" d="M19.789,21.778c1.098-0.364,2.586-0.561,3.606,0.105c0.726,0.379,1.393,0.913,2.041,1.498
		c0.434,0.344,0.317,0.912,0.369,1.414c-0.152,0.555-0.58,0.992-0.633,1.584c-0.403,0.354,0.1,0.955-0.279,1.325
		c-0.207,0.381,0.338,0.766-0.133,1.019c-0.4,0.227-1.035,0.42-1.451,0.09c-0.094-0.077-0.11-0.207-0.069-0.309
		c0.162-0.172,0.328-0.353,0.348-0.584c-0.047-0.586-0.385-1.051-0.41-1.653c-0.117-0.344-0.434-0.147-0.676-0.17
		c-0.629,0.027-1.42-0.205-1.889,0.281c-0.697,0.322-1.653,0.342-2.344-0.021c-0.125,0.011-0.211,0.152-0.28,0.239
		c-0.264,0.615-0.707,1.16-0.719,1.889c-0.078,0.211-0.301,0.252-0.5,0.258c-0.359-0.078-0.703-0.115-1.088-0.063
		c-0.096-0.033-0.158-0.094-0.196-0.195c0.159-0.449,0.546-0.813,0.614-1.305c0.1-0.379,0.1-0.875-0.09-1.213
		c-0.213-0.232-0.539-0.185-0.803-0.285c-0.189-0.059-0.369-0.143-0.565-0.196c-0.291,0.142-0.295,0.576-0.648,0.635
		c-0.217,0.116-0.233,0.432-0.502,0.41c-0.813-0.341-1.33,0.555-2.065,0.67c-0.881-0.078-1.592,0.242-2.258,0.698
		c-0.09,0.041-0.217,0.017-0.301-0.021c-0.164-0.127-0.253-0.285-0.242-0.481c0.004-0.285,0.17-0.533,0.109-0.822
		c-0.33-0.355-0.463-0.871-0.304-1.346c0.069-0.142,0.115-0.349,0.285-0.393c0.264-0.008,0.201,0.308,0.301,0.455
		c0.09,0.111,0.196,0.264,0.348,0.264c0.491-0.109,0.787-0.637,0.871-1.086c-0.037-0.465,0.596-0.598,0.605-1.045
		c0.022-0.371,0.176-0.749,0.477-0.956c0.246,0.037,0.422,0.444,0.696,0.196c0.17-0.133,0.322,0.084,0.502-0.022
		c1.076-0.875,2.28-1.467,3.669-1.604C17.499,21.012,18.411,22.221,19.789,21.778L19.789,21.778z"/>
	<path display="inline" fill="#FFFFFF" d="M30.234,25.488c0.058-0.031,0.158-0.031,0.217,0c0.274,0.105,0.121,0.449,0.131,0.655
		c-0.236,2.561-2.011,5.046-4.407,6.165c-1.029,0.506-2.18,0.723-3.409,0.74l-4.475-0.023l-0.133-0.152
		c0.005-0.822-0.014-1.579,0.027-2.386c0.078-0.099,0.168-0.169,0.301-0.152l4.54,0.02c1.814-0.075,3.54-1.139,4.364-2.825
		c0.307-0.574,0.426-1.223,0.522-1.887c0.047-0.102,0.155-0.127,0.238-0.176L30.234,25.488L30.234,25.488z"/>
	<path display="inline" fill="#FFFFFF" d="M7.302,25.488c0.084-0.025,0.152-0.015,0.215,0.047c0.233,0.185,0.102,0.517,0.196,0.761
		c0.275,1.713,1.848,3.393,3.522,3.841c0.364,0.096,0.739,0.164,1.127,0.197l4.995,0.02c0.084-0.032,0.199-0.032,0.286,0
		l0.152,0.174l-0.028,1.695c-0.016,0.257,0.161,0.674-0.146,0.824l-5.648-0.023c-2.766-0.211-5.474-2.199-6.493-4.817
		c-0.301-0.819-0.528-1.69-0.522-2.608c0.053-0.064,0.121-0.111,0.195-0.133L7.302,25.488L7.302,25.488z"/>
	<path display="inline" fill="#FFFFFF" d="M23.525,17.498c2.835,0.184,5.642,2.311,6.597,5.019c0.254,0.787,0.502,1.594,0.459,2.475
		l-0.174,0.127L28.301,25.1c-0.063,0.031-0.158,0.031-0.217,0c-0.311-0.166-0.158-0.555-0.264-0.824
		c-0.295-1.715-1.831-3.442-3.536-3.889c-0.369-0.096-0.754-0.16-1.151-0.195l-3.8-0.024l-0.982,0.024
		c-0.084-0.055-0.137-0.108-0.195-0.195V17.65l0.174-0.174L23.525,17.498L23.525,17.498z"/>
	<path display="inline" fill="#FFFFFF" d="M17.642,17.498c0.262,0.11,0.105,0.432,0.152,0.655c-0.043,0.615-0.022,1.287-0.028,1.889
		c-0.137,0.248-0.443,0.111-0.67,0.149l-4.497-0.024c-1.873,0.037-3.641,1.141-4.469,2.868c-0.295,0.602-0.438,1.256-0.524,1.936
		c-0.068,0.08-0.153,0.148-0.258,0.148L5.391,25.1c-0.084,0.031-0.217,0.031-0.303,0c-0.274-0.117-0.121-0.477-0.131-0.694
		c0.207-2.807,2.455-5.632,5.145-6.497c0.707-0.211,1.426-0.385,2.196-0.432L17.642,17.498L17.642,17.498z"/>
	<path display="inline" d="M83.812,25.091c0.004-3.653,1.43-6.189,5.392-6.187c3.963,0.008,5.394,2.547,5.386,6.204l-0.008,4.896
		c-0.004,3.657-1.436,6.196-5.398,6.192c-3.967-0.008-5.386-2.549-5.38-6.208L83.812,25.091L83.812,25.091z M91.118,24.485
		c0.004-1.922-0.676-2.729-1.918-2.731c-1.237-0.002-1.919,0.805-1.923,2.727l-0.006,6.132c-0.004,1.92,0.676,2.727,1.916,2.727
		c1.237,0.002,1.917-0.801,1.92-2.722L91.118,24.485L91.118,24.485z"/>
	<polygon display="inline" points="93.701,17.39 84.974,17.382 84.974,14.55 93.702,14.564 	"/>
	<polygon display="inline" points="45.867,18.263 43.968,18.297 45.702,19.455 46.217,20.139 44.873,21.28 44.278,20.516 
		43.376,18.754 42.365,20.542 41.894,21.245 40.456,20.133 41.007,19.371 42.75,18.463 40.81,18.156 39.823,17.799 40.611,16.154 
		41.672,16.566 43.046,17.617 42.357,15.347 42.359,14.473 44.297,14.476 44.295,15.325 43.631,17.65 45.373,16.468 46.194,16.175 
		46.819,17.949 	"/>
	<polygon display="inline" points="83.214,35.876 79.341,24.192 82.834,19.205 79.116,19.201 75.299,25.081 75.234,25.081 
		75.252,14.515 71.784,14.511 71.753,35.859 75.221,35.866 75.228,30.037 77.055,27.449 79.762,35.876 	"/>
	<path display="inline" d="M57.223,28.158l-7.318-0.008l-0.002,2.416c-0.002,1.924,0.679,2.733,1.914,2.735
		c1.247,0,1.926-0.805,1.926-2.725v-0.373l3.479,0.004c-0.066,3.536-1.526,5.954-5.407,5.951c-3.971-0.008-5.394-2.553-5.387-6.212
		l0.006-4.903c0.006-3.661,1.436-6.203,5.407-6.199c3.974,0.006,5.396,2.551,5.388,6.212L57.223,28.158L57.223,28.158z
		 M53.752,25.302l0.002-0.869c0-1.924-0.676-2.731-1.917-2.735c-1.238,0-1.924,0.805-1.926,2.731l-0.002,0.867L53.752,25.302
		L53.752,25.302z"/>
	<path display="inline" d="M66.326,25.329l3.464,0.004V24.89c-0.053-3.563-1.481-6.015-5.38-6.017
		c-3.965-0.008-5.392,2.53-5.397,6.185l-0.01,4.897c-0.004,3.655,1.417,6.2,5.38,6.204c3.887,0.004,5.333-2.43,5.393-5.964
		l-3.46-0.004v0.394c0,1.92-0.686,2.723-1.926,2.719c-1.24,0-1.92-0.805-1.92-2.725l0.01-6.136c0.004-1.92,0.687-2.725,1.924-2.725
		c1.246,0.002,1.924,0.811,1.924,2.731v0.435L66.326,25.329L66.326,25.329z"/>
	<polygon display="inline" points="160.557,36.354 157.651,36.353 157.705,33.452 160.557,33.453 	"/>
	<path display="inline" d="M113.026,19.045l-0.051,16.951l-3.44-0.014l0.004-1.695c-1.532,1.252-2.307,2.004-4.419,2
		c-1.917-0.008-3.051-1.366-3.04-3.571l0.039-13.706l3.638,0.011l-0.043,13.139c-0.004,0.852,0.518,1.23,1.293,1.23
		c0.781,0.004,1.496-0.465,2.344-1.063l0.039-13.293L113.026,19.045L113.026,19.045z"/>
	<path display="inline" d="M115.726,36.005l0.045-16.952l3.444,0.012l-0.004,1.7c1.529-1.256,2.311-2.008,4.419-2.005
		c1.918,0.006,3.051,1.368,3.041,3.571l-0.041,13.706l-3.635-0.012l0.041-13.139c0-0.852-0.518-1.229-1.293-1.233
		c-0.784-0.002-1.496,0.467-2.345,1.064l-0.039,13.294L115.726,36.005L115.726,36.005z"/>
	<polygon display="inline" points="129.41,36.042 129.476,14.337 133.11,14.349 133.047,36.056 	"/>
	<path display="inline" d="M135.089,22.01l0.012-2.9l2.012,0.008l0.016-4.569l3.637,0.012l-0.017,4.569l2.438,0.008l-0.012,2.897
		l-2.434-0.008l-0.029,9.768c-0.005,0.882,0.386,1.386,1.229,1.386l1.199,0.004l-0.012,3.03c-0.482,0.123-0.906,0.183-1.815,0.179
		c-2.725-0.008-4.249-1.238-4.241-3.825l0.029-10.553L135.089,22.01L135.089,22.01z"/>
	<path display="inline" d="M152.133,32.649c-0.715,0.5-1.367,0.875-2.078,0.875c-0.975-0.002-1.747-0.51-1.744-2.747l0.016-6.304
		c0.006-2.235,0.791-2.735,1.764-2.735c0.715,0.002,1.362,0.383,2.075,0.889L152.133,32.649L152.133,32.649z M155.759,36.125
		l0.066-21.706l-3.635-0.012l-0.018,6.206c-1.426-1.139-2.17-1.772-3.764-1.777c-2.272-0.006-3.704,1.627-3.712,4.716l-0.022,8.128
		c-0.013,3.088,1.41,4.727,3.681,4.739c1.821,0.002,2.698-0.594,3.899-2.069h0.07l-0.005,1.764L155.759,36.125L155.759,36.125z"/>
</g>
<g id="Layer_2">
	<g>
		<path fill="#D12027" d="M25.02,16.572c0-1.059,0.328-1.314,2.262-1.314c1.496,0,6.276,0.109,6.276,4.962
			c0,5.217-5.473,5.29-8.537,5.326l0,0L25.02,16.572L25.02,16.572L25.02,16.572z M41.621,37.369
			c-1.496-0.073-2.371-0.73-3.174-1.716l0,0l-7.516-9.232l0,0c1.861-0.365,6.604-1.24,6.604-6.129c0-5.618-6.02-6.385-9.266-6.385
			l0,0H18.197V14.6l0,0c2.554,0.256,3.101,0.584,3.101,3.284l0,0v15.798l0,0c0,2.734-0.146,3.502-3.101,3.685l0,0v0.691h10.106
			v-0.69l0,0c-2.919-0.147-3.284-0.84-3.284-3.285l0,0v-7.187l2.043-0.073l8.683,11.238h5.875V37.369L41.621,37.369L41.621,37.369z
			 M62.052,38.06H42.349v-0.691l0,0c2.335-0.147,3.174-0.475,3.174-3.285l0,0v-16.2l0,0c0-2.882-0.875-3.101-3.174-3.284l0,0v-0.693
			h19.374l0.109,5.217H60.92l0,0c-0.547-3.247-1.495-3.83-5.545-3.83l0,0H50.45l0,0c-0.766,0-1.204,0-1.204,1.24l0,0v8.1h5.619l0,0
			c3.248,0,3.612-0.876,4.013-3.467l0,0h0.839v8.465h-0.839l0,0c-0.437-2.919-0.985-3.429-4.013-3.465l0,0l-5.619-0.073v9.048l0,0
			c0,1.497,0,1.533,5.437,1.533c4.561,0,6.385-1.096,7.99-4.781l0,0h1.022L62.052,38.06L62.052,38.06L62.052,38.06z M70.355,16.498
			c0-1.203,0.4-1.24,1.495-1.24c1.605,0,6.932,0.073,6.932,5.29c0,5.545-4.888,5.545-6.239,5.545c-0.766,0-1.495-0.038-2.188-0.109
			l0,0V16.498L70.355,16.498L70.355,16.498z M63.569,14.601c2.663,0.256,3.064,0.694,3.064,3.284l0,0v15.798l0,0
			c0,2.625,0,3.465-3.064,3.685l0,0v0.691h10.216v-0.691l0,0c-2.81-0.073-3.429-0.622-3.429-3.285l0,0v-6.641l0,0
			c0.875,0.073,1.568,0.109,2.444,0.109c3.831,0,6.166-0.657,7.735-2.152c0.621-0.584,2.225-2.08,2.225-4.925
			c0-4.634-4.523-6.568-9.559-6.568l0,0h-9.632V14.601L63.569,14.601L63.569,14.601z M91.559,14.601
			c-2.481,0.146-3.393,0.402-3.393,3.284l0,0v17.257l0,0c0,1.459,0.657,1.497,3.685,1.497c5.473,0,7.807-0.147,9.887-4.927l0,0
			h0.912l-1.751,6.349H81.27v-0.691l0,0c2.334-0.147,3.174-0.475,3.174-3.285l0,0v-16.2l0,0c0-2.882-0.876-3.101-3.174-3.284l0,0
			v-0.693h10.289L91.559,14.601L91.559,14.601L91.559,14.601z M109.181,28.684l4.196-10.033l4.232,10.033H109.181L109.181,28.684
			L109.181,28.684z M127.059,37.369c-1.605-0.109-2.116-0.512-3.284-3.175l0,0L114.69,13.47h-0.73l-7.588,17.914l0,0
			c-0.694,1.605-1.824,4.268-2.664,5.18c-0.657,0.695-1.276,0.766-1.86,0.804l0,0v0.691h7.224v-0.691l0,0
			c-0.766,0-2.482,0-2.482-1.534c0-0.401,0.11-0.911,0.292-1.386l0,0l1.678-4.269h9.559l1.495,3.504l0,0
			c0.219,0.51,0.694,1.714,0.694,2.298c0,1.35-1.205,1.387-2.553,1.387l0,0v0.691h9.302L127.059,37.369L127.059,37.369
			L127.059,37.369z M145.803,14.601c-1.314,0.146-2.517,0.293-5.035,4.16l0,0l-5.4,8.245v7.078l0,0c0,2.628,0.473,3.248,3.757,3.285
			l0,0v0.691h-11.164v-0.691l0,0c3.575-0.073,3.685-0.913,3.685-3.685l0,0v-6.349l-4.779-7.006l0,0
			c-3.722-5.473-4.269-5.581-5.912-5.728l0,0v-0.693h10.217v0.693l0,0c-1.678,0.073-2.591,0.11-2.591,1.131
			c0,0.402,0.292,1.095,0.621,1.569l0,0l5.4,8.099l5.218-8.246l0,0c0.254-0.401,0.51-0.838,0.51-1.35
			c0-1.131-1.386-1.204-2.517-1.204l0,0v-0.693h7.99L145.803,14.601L145.803,14.601L145.803,14.601z"/>
	</g>
</g>
<g id="Layer_4" display="none">
	<g display="inline">
		<g>
			<g>
				<path fill="#EB0029" d="M94.738,18.389c-1.237,0-2.148,1.154-2.148,2.114l0.006,1.021c0,0-0.396-0.715-1.203-1.422
					c-0.968-0.849-2.544-1.32-3.309-1.516c-1.041-0.267-2.753-0.449-4.024-0.509c-1.272-0.061-3.139,0.012-3.333,0.012
					s-1.841,0.109-2.23,0.158c-0.388,0.048-2.314,0.34-3.345,0.728s-1.698,0.705-2.426,1.298c-0.727,0.592-1.417,1.38-1.78,2.447
					c-0.364,1.068-0.388,1.648-0.328,2c0.061,0.351,0.133,0.837,0.701,1.37c0,0-1.077,0.97-1.417,2.448l-4.4-5.369l3.673-2.981
					l2.484-2.05c0,0,0.768-0.62,0.727-1.661c-0.036-0.944-0.837-2.121-2.157-2.121h-6.025h-2.29c0,0-0.873,0.061-1.383,0.619
					l-2.436,2.145c0,0-0.005-0.532,0-0.726c0.012-0.521-0.546-2.049-2.17-2.025h-7.079c0,0,0.05,0.012-0.133,0.012
					c-0.873,0-1.89,1.031-1.902,1.965c0,0.012,0,7.879,0,7.879v9.199c0,0,0.002,0.036,0,0.121c-0.023,1.271,1.138,1.977,2.072,1.977
					h6.659c0,0,0.158,0.002,0.376,0.001c1.313-0.008,2.148-1.12,2.173-1.956L58.1,32.27v-1.379l1.112,1.456l1.748,2.307
					c0,0,0.389,0.459,0.811,0.652c0.401,0.184,0.777,0.217,0.894,0.209h1.08h7.257c0,0,0.177-0.008,0.244-0.017
					c0.067-0.008,0.777-0.008,1.513-0.827c0,0,0.96,0.468,1.814,0.727c1.021,0.309,2.41,0.45,3.345,0.501
					c1.07,0.059,2.591-0.09,2.994-0.134c1.078-0.117,2.199-0.443,2.551-0.585c0,0,0.426,0.351,1.137,0.409h4.223h3.253
					c0,0,0.418-0.05,0.519-0.092v1.974c0,0-0.002,0.15,0.008,0.284c0.084,1.078,1.192,1.995,2.08,1.995c0.008,0,7.385,0.019,7.52,0
					c1.088-0.15,1.907-1.369,1.899-2.054c0-0.008,0.008-0.209,0.008-0.343v-1.807c0,0,1.002,0.259,2.015,0.326
					s2.265,0.015,3.27-0.151c1.573-0.259,2.666-0.722,3.27-1.036c0.786-0.41,1.722-1.149,2.108-1.559
					c0.386-0.41,0.646-0.726,0.867-1.063c0.001-0.002,0.006,3.266,0.006,3.266v2.201c0,0,0,0.128,0.009,0.207
					c0.138,1.244,1.235,1.953,1.918,1.953c0.008,0,0.121,0.017,0.19,0.017s4.266,0,4.266,0h2.961c0,0,0.094-0.005,0.139-0.009
					c1.365-0.129,1.967-1.305,2.019-1.97l0.009-0.13v-2.054c0,0,0.933,0.242,1.711,0.303s1.812,0.052,2.253,0.026
					c0.441-0.026,1.57-0.185,1.97-0.268c0.501-0.104,1.481-0.414,1.925-0.596c0.778-0.32,1.481-0.804,1.728-0.95
					c0.337-0.199,1.262-1.114,1.374-1.244c0.053-0.061,0.225-0.276,0.225-0.276s0.265,0.492,0.775,1.02
					c0.51,0.527,1.188,0.943,1.262,0.985c0.198,0.112,1.042,0.56,1.719,0.76c1.285,0.38,1.796,0.428,2.201,0.475
					c1.322,0.156,2.365,0.156,3.039,0.112c0.674-0.043,2.051-0.19,2.843-0.38c0.793-0.19,1.121-0.337,1.121-0.337
					s0.397,0.337,1.037,0.397c0.095,0.009,0.346,0.017,0.346,0.017h3.955h3.289c0,0,1.125-0.076,1.745-1.011
					c0.51-0.769,0.354-1.512,0.311-1.693c-0.043-0.182-0.164-0.654-0.639-1.147c-0.179-0.186-0.173-1.132-0.173-1.175V27.93v-3.171
					c0,0-0.035-1.034-0.156-1.64c-0.087-0.437-0.38-1.711-1.452-2.722c-1.127-1.063-2.294-1.42-2.434-1.466
					c-0.181-0.06-1.4-0.51-3.152-0.657c-1.354-0.114-1.719-0.199-2.41-0.19c-0.692,0.009-2.668-0.043-3.281,0.017
					c-0.613,0.061-1.605,0.069-2.702,0.259s-2.076,0.397-2.886,0.726c-0.81,0.328-1.251,0.538-2.072,1.14
					c-0.821,0.603-1.287,1.354-1.46,1.639s-0.311,0.64-0.311,0.64s-0.663-0.934-0.991-1.305c-0.467-0.527-1.408-1.359-2.324-1.838
					c-1.025-0.535-2.342-1.071-4.058-1.236c-0.991-0.095-2.637-0.056-3.342,0.044c-0.735,0.103-1.691,0.274-2.314,0.546
					c0,0-0.487-0.324-1.087-0.327c-0.003,0-0.682,0-0.682,0h-1.698h-1.833h-1.263h-1.418c-0.033,0-0.053,0.003-0.084,0.003
					c-0.48,0-0.992,0.257-1.296,0.489c-0.33,0.251-0.576,0.643-0.682,0.925c-0.107,0.282-0.149,0.5-0.157,0.728
					c0,0.003,0,1.171,0,1.171v0.536c0,0-0.245-0.34-0.291-0.41c-0.081-0.126-0.431-0.525-0.478-0.581
					c-0.046-0.056-0.37-0.402-0.549-0.559c-0.059-0.051-0.444-0.401-0.651-0.555c-0.096-0.071-0.66-0.494-1.065-0.712
					c-0.225-0.121-0.598-0.327-1.039-0.509c-0.43-0.177-1.44-0.553-2.767-0.732c-0.213-0.029-1.32-0.146-2.154-0.106
					c-0.815,0.039-1.372,0.073-2.128,0.192s-1.517,0.365-1.696,0.451c0,0-0.418-0.292-1.048-0.332c0,0-3.499,0-3.506,0h-3.519
					V18.389z"/>
			</g>
			<path fill="#FFFFFF" d="M48.986,33.354h6.959v-5.321l1.651-1.377l5.101,6.698h8.344l-8.58-10.479l7.754-6.325h-8.167
				l-6.103,5.438V16.55h-6.959C48.986,16.55,48.986,33.354,48.986,33.354z M101.629,27.007c0-1.52,0.569-3.163,3.094-3.163
				c2.526,0,3.095,1.643,3.095,3.163c0,1.497-0.569,3.14-3.095,3.14C102.198,30.148,101.629,28.504,101.629,27.007z M124.684,26.991
				c0-1.52,0.569-3.163,3.094-3.163c2.526,0,3.095,1.643,3.095,3.163c0,1.497-0.57,3.14-3.095,3.14
				C125.253,30.131,124.684,28.488,124.684,26.991z M84.289,28.814c-0.107,1.325-1.352,1.987-2.953,1.987
				c-1.281,0-2.206-0.588-2.206-1.177c0-0.858,0.819-1.128,2.384-1.374c0.96-0.147,1.92-0.319,2.775-0.613V28.814z M91.048,25.283
				c0-2.453,0.071-4.98-8.751-4.98c-4.376,0-9.284,0.589-9.498,4.17h6.546c0.035-0.54,0.462-1.3,2.632-1.3
				c1.138,0,2.313,0.318,2.313,1.177c0,0.81-0.961,1.006-1.922,1.129c-3.593,0.466-10.423,0.319-10.423,4.342
				c0,2.673,2.953,3.851,6.51,3.851c2.277,0,4.447-0.344,5.941-1.521c0.035,0.344,0.142,0.858,0.32,1.202h7.186
				c-0.783-0.81-0.854-1.888-0.854-2.846V25.283z M152.179,28.823c-0.107,1.325-1.352,1.987-2.953,1.987
				c-1.28,0-2.205-0.589-2.205-1.177c0-0.859,0.819-1.128,2.383-1.373c0.961-0.148,1.921-0.319,2.775-0.613L152.179,28.823
				L152.179,28.823z M158.938,25.291c0-2.453,0.071-4.98-8.751-4.98c-4.376,0-9.285,0.589-9.498,4.17h6.546
				c0.035-0.54,0.462-1.3,2.632-1.3c1.138,0,2.313,0.319,2.313,1.177c0,0.809-0.961,1.006-1.921,1.129
				c-3.593,0.466-10.423,0.319-10.423,4.342c0,2.674,2.952,3.851,6.51,3.851c2.277,0,4.446-0.344,5.941-1.521
				c0.035,0.344,0.142,0.858,0.32,1.202h7.186c-0.782-0.81-0.853-1.889-0.853-2.845v-5.225H158.938z M117.919,20.554v16.877h7.04
				v-5.519c0.047,0,0.545,0.512,1.337,0.91c0.813,0.408,1.953,0.767,3.555,0.821c1.601,0.054,2.829-0.263,3.043-0.309
				c1.161-0.247,2.743-0.861,3.844-2.308c0.827-1.087,1.136-2.327,1.206-3.986c0.047-1.106-0.447-2.608-0.92-3.309
				c-0.476-0.706-1.255-1.787-2.438-2.389c-1.429-0.728-2.648-1.06-4.176-1.06c-2.229,0-2.138,0.115-2.405,0.151
				c-0.204,0.028-1.247,0.182-2.133,0.715c-0.885,0.534-1.091,0.849-1.091,0.849l-0.073-1.443L117.919,20.554z M94.824,20.579
				v16.877h7.04v-5.519c0.047,0,0.545,0.512,1.338,0.91c0.813,0.408,1.953,0.767,3.554,0.822c1.602,0.055,2.829-0.263,3.043-0.308
				c1.161-0.247,2.743-0.861,3.844-2.308c0.828-1.088,1.135-2.327,1.206-3.987c0.047-1.105-0.446-2.607-0.92-3.309
				c-0.476-0.706-1.255-1.787-2.438-2.389c-1.429-0.728-2.648-1.06-4.176-1.06c-2.23,0-2.138,0.114-2.405,0.151
				c-0.204,0.028-1.247,0.182-2.132,0.716c-0.885,0.534-1.092,0.849-1.092,0.849l-0.072-1.444L94.824,20.579z"/>
		</g>
		<path fill="#EF3E42" d="M3.212,35.283c0.357,0.178,1.06,0.37,1.504,0.402c0.15,0.01,0.297,0.045,0.433,0.058l0.929-0.012
			l1.039-0.17c0.235-0.012,0.357-0.012,0.469,0L8.18,35.61l0.829,0.012c0.393-0.033,0.799-0.125,1.215-0.35
			c0.097-0.052,0.211-0.098,0.298-0.166c0.251-0.198,0.427-0.433,0.553-0.67l-8.869,0.002C2.529,34.812,2.915,35.135,3.212,35.283z"
			/>
		<path fill="#EB0029" d="M8.581,25.905c-0.048,0.074-0.087,0.133-0.106,0.164c-0.572,0.901-1.117,1.848-1.981,2.717
			c-0.255,0.257-0.562,0.455-0.803,0.59c-0.081,0.046-0.144,0.116-0.223,0.163c-0.449,0.274-0.929,0.501-1.36,0.688
			c-0.297,0.128-0.582,0.288-0.89,0.369c-0.459,0.12-1.266,0.578-1.469,1.151c-0.026,0.074-0.068,0.158-0.087,0.231
			s-0.045,0.146-0.057,0.208c0,0-0.199,0.643,0.028,1.32c0.101,0.302,0.318,0.632,0.573,0.928l8.869-0.001
			c0.116-0.218,0.19-0.44,0.244-0.64c0.032-0.125,0.084-0.296,0.096-0.414c0.025-0.217,0.025-0.42,0.025-0.451
			c0-0.03-0.014-0.245-0.029-0.353c-0.006-0.047-0.032-0.12-0.032-0.151c0-0.103,0.876-0.883,0.938-0.934
			c0.107-0.091,0.235-0.174,0.342-0.281c0.387,0.688,0.803,1.418,1.228,2.1c0.152,0.243,0.314,0.51,0.491,0.737
			c0.092,0.119,0.199,0.253,0.316,0.388l2.051,0.001h-2.051c0.355,0.413,0.805,0.854,1.218,1.006
			c0.039,0.014,0.086,0.05,0.123,0.065c0.17,0.068,0.35,0.11,0.52,0.154c0.148,0.04,0.297,0.07,0.446,0.107l0.83,0.073l0.965,0.012
			c0.591-0.044,0.711-0.031,1.04-0.094c0.158-0.031,0.341-0.037,0.495-0.081c0.178-0.052,0.354-0.136,0.521-0.232
			c0.127-0.071,0.265-0.176,0.384-0.255c0.26-0.171,0.348-0.405,0.512-0.604c0.04-0.049,0.081-0.099,0.122-0.15h0.001
			c0.069-0.083,0.141-0.167,0.215-0.249c0.049,0.08,0.102,0.162,0.156,0.248h0.001c0.051,0.078,0.103,0.157,0.155,0.236
			c0.379,0.585,1.036,0.969,1.579,1.141c0.155,0.049,0.336,0.064,0.496,0.073c0.037,0.002,0.082,0.017,0.113,0.017h1.705
			l0.786,0.024c0.031,0,0.38-0.04,0.564-0.065c0.063-0.009,0.123-0.04,0.186-0.053c0.19-0.041,0.4-0.09,0.582-0.158
			c0.286-0.11,0.64-0.273,0.942-0.512c0.152-0.12,0.336-0.236,0.471-0.368c0.11-0.108,0.219-0.219,0.326-0.333h0.001
			c0.263-0.278,0.512-0.565,0.728-0.822c0.533-0.634,0.924-1.317,1.354-1.943c0.206,0.157,0.416,0.341,0.626,0.505
			c0.353,0.274,0.726,0.493,1.062,0.829v0.388c0,0.031,0.018,0.072,0.02,0.108c0.021,0.28,0.106,0.619,0.254,0.934l3.331,0.001
			h-3.331c0.084,0.18,0.188,0.353,0.312,0.503c0.218,0.263,0.513,0.406,0.754,0.52c0.218,0.103,0.451,0.108,0.669,0.166
			c0.223,0.061,0.493,0.052,0.719,0.082l0.606,0.012c0.049,0.012,0.132,0.024,0.163,0.024h0.221l0.99,0.134h1.36
			c0.031,0,0.202-0.04,0.287-0.045c0.663-0.055,1.484-0.255,2.115-0.67c0.079-0.052,0.241-0.202,0.313-0.252
			c0.129-0.089,0.264-0.27,0.374-0.473h0.001c0.1-0.185,0.179-0.387,0.211-0.552c0.047-0.249,0.091-0.712-0.263-1.211
			c-0.15-0.212-0.409-0.424-0.844-0.658c-0.542-0.292-1.17-0.477-1.743-0.887c-0.295-0.211-0.585-0.432-0.891-0.62
			c-0.258-0.159-0.568-0.271-0.803-0.469c-0.495-0.415-0.891-0.918-1.204-1.368c-0.547-0.792-1.059-1.592-1.571-2.358
			c-0.023-0.034-0.184-0.258-0.276-0.409h-0.001c-0.038-0.061-0.064-0.11-0.064-0.128c0-0.031,0.039-0.212,0.049-0.322
			c0.025-0.229,0.025-0.335,0.025-0.365l-0.012-0.304c-0.003-0.073-0.028-0.16-0.034-0.231c-0.028-0.289-0.151-0.641-0.343-0.927
			c-0.141-0.21-0.457-0.484-0.652-0.662c-0.365-0.333-0.893-0.496-1.254-0.496c-0.186,0-0.375,0.037-0.558,0.064
			c-0.087,0.012-0.181,0.033-0.261,0.061c-0.128,0.044-0.249,0.166-0.384,0.224c-0.09,0.04-0.196,0.028-0.292,0.041
			c-0.313-0.614-0.689-1.221-1.058-1.846c-0.081-0.135-0.237-0.398-0.237-0.429c0-0.03,0.025-0.182,0.025-0.213
			c0-0.187-0.048-0.417-0.104-0.597c-0.019-0.062-0.096-0.094-0.103-0.133c-0.028-0.131-0.04-0.358-0.04-0.388
			s0.099-0.167,0.119-0.254c0.034-0.143,0.067-0.302,0.067-0.427c0-0.138,0.003-0.111-0.059-0.306
			c-0.022-0.07-0.027-0.155-0.058-0.208c-0.196-0.325-0.559-0.526-0.858-0.718c-0.002-0.01-0.307-0.414-0.333-0.473
			c-0.036-0.078-0.011-0.176-0.045-0.255c-0.04-0.094-0.115-0.167-0.153-0.244c-0.121-0.238-0.345-0.583-0.636-0.785
			c-0.068-0.047-0.526-0.353-0.681-0.438c-0.127-0.07-0.473-0.179-0.504-0.179s-0.166-0.056-0.253-0.07
			c-0.209-0.033-0.644-0.064-0.675-0.064s-0.284-0.012-0.383-0.012c-0.031,0-0.591,0.032-0.76,0.075
			c-0.116,0.029-0.516,0.132-0.692,0.2c-0.177,0.068-0.632,0.215-0.736,0.275c-0.02,0.012-0.328,0.056-0.478,0.145
			c-0.11,0.065-0.231,0.148-0.313,0.218c-0.283,0.243-0.58,0.739-0.654,0.889c-0.122,0.249-0.251,0.511-0.368,0.762
			c-0.08-0.492-0.179-1.036-0.574-1.542c-0.031-0.039-0.459-0.565-0.619-0.766c-0.014-0.018-0.301-0.244-0.314-0.254
			c-0.282-0.138-0.521-0.289-0.818-0.389c-0.175-0.059-0.343-0.133-0.607-0.182c-0.262-0.049-1.299-0.064-1.299-0.064
			c-0.031,0-0.264-0.02-0.559,0.012c-0.139,0.015-0.6,0.065-0.812,0.14c-0.249,0.088-0.646,0.314-0.798,0.391
			c-0.11,0.055-0.697,0.444-0.756,0.487c-0.309,0.225-0.576,0.493-0.814,0.784c-0.042,0.05-0.051,0.125-0.082,0.17
			c-0.176,0.254-0.32,0.565-0.347,0.817c-0.006,0.062-0.039,0.134-0.045,0.194c-0.019,0.182-0.012,0.244-0.012,0.274
			s0.019,0.389,0.065,0.567c0.014,0.055,0.083,0.102,0.083,0.132s-0.426,0.557-0.615,0.848c-0.034,0.052-0.023,0.124-0.029,0.185
			c-0.017,0.158-0.025,0.256-0.025,0.286c0,0.03,0.017,0.241,0.04,0.348c0.025,0.111,0.059,0.227,0.112,0.318
			c0.059,0.103,0.219,0.246,0.219,0.277c0,0.073-0.279,0.812-0.367,0.979c-0.314-0.085-0.279-0.073-0.505-0.073l-0.409,0.012
			c-0.161,0.024-0.324,0.056-0.471,0.088c-0.074,0.015-0.178,0.07-0.209,0.07c-0.031,0-0.107-0.061-0.138-0.061h-0.455
			c-0.031,0-0.154,0.06-0.214,0.081c-0.72,0.257-1.375,1.207-1.597,1.832c-0.042,0.117-0.053,0.244-0.065,0.354l-0.037,0.87
			c0,0.03,0.031,0.116,0.032,0.177c0.005,0.146,0.025,0.293,0.091,0.474c0,0.05-0.253,0.443-0.409,0.682"/>
		<path fill="#FFFFFF" d="M21.726,23.606c-0.053-0.1-0.107-0.199-0.161-0.296c-0.162-0.293-0.331-0.59-0.495-0.875
			c-0.059-0.103-0.181-0.186-0.227-0.303c-0.077-0.195-0.493-0.507-0.708-0.728c0.073-0.106,0.161-0.285,0.161-0.316
			c0-0.158-0.186-0.087-0.186-0.201c0-0.071,0.034-0.068,0.124-0.188c-0.061-0.119-0.18-0.076-0.236-0.101v-0.105
			c0-0.03,0.05-0.133,0.075-0.203l-0.254-0.384c0.006-0.046,0.006-0.097-0.001-0.127h0.086c0.023,0.024,0.049,0.061,0.107,0.046
			c0.007-0.865-0.012-0.876-0.009-0.889c0.009-0.049,0.022-0.105,0.022-0.135s-0.062-0.328-0.062-0.359
			c0-0.03-0.008-0.067,0.003-0.102c0.012-0.038,0.047-0.075,0.047-0.105c0-0.03-0.086-0.293-0.086-0.324v-0.422
			c0-0.03-0.005-0.103-0.017-0.149c-0.023-0.087-0.055-0.191-0.1-0.269c-0.054-0.093-0.143-0.177-0.203-0.256
			c-0.014-0.018-0.014-0.052-0.033-0.073c-0.065-0.073-0.136-0.159-0.219-0.217c-0.042-0.029-0.111,0-0.148-0.032
			c-0.193-0.166-0.35-0.179-0.521-0.195c-0.096-0.11-0.34-0.191-0.467-0.191c-0.031,0-0.176,0.008-0.244,0.04
			c-0.145,0.067-0.172,0.106-0.3,0.106c-0.153,0-0.223-0.085-0.322-0.085c-0.031,0-0.113,0.073-0.144,0.073h-0.517
			c-0.031,0-0.126,0.049-0.175,0.053c-0.055,0.084-0.12,0.177-0.19,0.236c-0.029,0.026-0.091,0.045-0.123,0.068
			c-0.054,0.038-0.107,0.112-0.161,0.15c-0.032,0.023-0.083,0.03-0.097,0.045c-0.145,0.152-0.45,0.393-0.45,0.56
			c0,0.146-0.012,0.176-0.012,0.207c0,0.03-0.001,0.08,0.016,0.112c0.045,0.081,0.134,0.135,0.194,0.193l-0.198,0.547
			c0.033,0.027,0.074,0.184,0.071,0.286c-0.195,0.198-0.387,0.388-0.561,0.584c-0.036,0.041-0.066,0.12-0.066,0.15
			c0,0.153,0.359,0.236,0.359,0.351v0.308c0.07,0.061,0.074,0.08,0.074,0.119c0,0.03-0.037,0.318-0.066,0.461
			c-0.097,0.451-0.318,0.897-0.499,1.348c-0.11,0.275-0.128,0.592-0.279,0.826c-0.198,0.308-1.283,0.629-1.691,0.629
			c-0.119,0-0.261-0.023-0.388-0.053c-0.187-0.046-0.145-0.105-0.274-0.105c-0.293,0-0.578,0.249-0.747,0.288h-0.003
			c-0.013,0.003-0.025,0.004-0.036,0.004c-0.011,0-0.02-0.002-0.028-0.003h-0.172l0.172-0.001c-0.053-0.019-0.033-0.092-0.213-0.089
			c-0.027,0.032-0.07,0.053-0.095,0.089h-0.001c-0.002,0.002-0.003,0.005-0.005,0.007c-0.159,0.272-0.239,0.386-0.239,0.617
			c0,0.27,0.087,0.511,0.189,0.786c0.037,0.099,0.12,0.278,0.12,0.308s-0.022,0.115-0.053,0.161
			c-0.208,0.308-0.414,0.654-0.593,0.973c-0.039,0.071-0.077,0.14-0.113,0.206c-0.065,0.122-0.159,0.248-0.227,0.377
			c-0.218,0.412-0.529,0.855-0.779,1.264l-0.26,0.426c-0.685,1.107-2.645,2.71-4.308,3.417c-0.053,0.023-0.106,0.044-0.158,0.065
			c-0.181,0.072-0.372,0.129-0.544,0.182c-0.097,0.031-0.217,0.039-0.31,0.081c-0.113,0.052-0.239,0.095-0.239,0.221
			c0,0.164,0.208,0.238,0.326,0.281c0.06,0.021,0.216-0.001,0.243,0.07c-0.124,0.086-0.235,0.163-0.235,0.269
			c0,0.03,0.076,0.138,0.13,0.195c0.268,0.065,0.58,0.159,0.853,0.179c0.037,0.001,0.082,0.033,0.113,0.033h0.195
			c0.031,0,0.074,0.012,0.112,0.024l0.645-0.012c0.486-0.036,0.96-0.219,1.453-0.219l1.131,0.121h0.457
			c0.031,0,0.258-0.066,0.363-0.127c0.094-0.054,0.161-0.199,0.164-0.268c0.009-0.158,0-0.237,0-0.268l-0.074-0.831l-0.013-0.148
			c0-0.03,0.04-0.089,0.057-0.137c0.267-0.732,1.288-1.457,1.945-2.089c0.38-0.366,0.848-0.755,1.122-1.131
			c0.165-0.228,0.289-0.472,0.453-0.693c0.034-0.045,0.103-0.07,0.134-0.07s0.107,0.022,0.132,0.081
			c0.235,0.575,0.48,1.178,0.787,1.751c0.35,0.651,0.71,1.308,1.156,1.958c0.109,0.16,0.215,0.319,0.32,0.48
			c0.267,0.405,0.534,0.814,0.863,1.234c0.223,0.285,0.588,0.432,0.855,0.476l2.08,0.012c0.231-0.052,0.488-0.027,0.696-0.176
			c0.066-0.047,0.114-0.128,0.165-0.178c0.468-0.463,0.777-0.915,1.061-1.37c0.139-0.224,0.273-0.447,0.417-0.673
			c0.104-0.161,0.182-0.346,0.292-0.51c0.186-0.281,0.294-0.569,0.401-0.828c0.074-0.178,0.161-0.361,0.211-0.536
			c0.033-0.114,0.032-0.252,0.132-0.349c0.188,0.273,0.193,0.562,0.272,0.823c0.104,0.34,0.213,0.696,0.322,1.033
			c0.076,0.232,0.195,0.452,0.252,0.692c0.025,0.106,0.044,0.224,0.061,0.35c0.102,0.738,0.161,1.734,1.223,1.843l1.98,0.012
			c0.302-0.056,0.634-0.094,0.917-0.199c0.127-0.046,0.26-0.106,0.372-0.183c0.42-0.288,0.921-0.854,1.402-1.475
			c0.393-0.51,0.772-1.058,1.081-1.524c0.07-0.105,0.121-0.225,0.181-0.316c0.448-0.673,0.807-1.337,1.255-2.004h0.071
			c0.299,0.611,0.752,1.257,1.358,1.842c0.269,0.26,0.545,0.441,0.817,0.645c0.054,0.04,0.132,0.056,0.173,0.092
			c0.3,0.269,0.592,0.468,0.856,0.758c0.095,0.104,0.305,0.312,0.458,0.509c0.103,0.132,0.18,0.258,0.18,0.343
			c0,0.03-0.037,0.119-0.046,0.169c-0.026,0.131-0.04,0.366-0.04,0.396s-0.005,0.043,0.012,0.225
			c0.009,0.099,0.034,0.209,0.116,0.291c0.117,0.116,0.283,0.186,0.397,0.201l1.398,0.012l0.804,0.122h0.172
			c0.031,0,0.149,0.024,0.211,0.036l1.263,0.012c0.099-0.012,0.214-0.023,0.31-0.041c0.059-0.011,0.525-0.114,0.525-0.257
			c0-0.03-0.005-0.106-0.03-0.149c-0.028-0.049-0.12-0.101-0.151-0.101h-0.17c-0.031,0-0.126-0.011-0.173-0.028
			c-0.215-0.08-0.447-0.191-0.642-0.315c-0.437-0.28-0.832-0.632-1.265-0.919c-0.011-0.008-0.022-0.015-0.034-0.022
			c-0.207-0.134-0.461-0.182-0.656-0.3c-0.264-0.159-0.499-0.295-0.737-0.589c-0.263-0.325-0.527-0.655-0.779-0.973
			c-0.731-0.921-1.282-1.837-1.942-2.771c-0.185-0.263-0.545-0.736-0.759-1.03c-0.102-0.14-0.171-0.24-0.171-0.255
			c0-0.03,0.056-0.132,0.069-0.193c0.102-0.412,0.178-0.644,0.178-1.023l-0.005-0.158c-0.003-0.097-0.228-0.302-0.374-0.382
			l-0.224,0.052c-0.052,0.273-0.18,0.276-0.356,0.276c-0.031,0-0.124-0.012-0.322-0.012c-0.099,0-0.215,0.053-0.311,0.076
			c-0.051,0.012-0.101,0.044-0.149,0.061c-0.049,0.018-0.115,0.055-0.161,0.073c-0.053,0.021-0.276,0.179-0.375,0.179
			c-0.198,0-0.823-0.242-0.901-0.338c-0.042-0.05-0.064-0.129-0.073-0.191c-0.023-0.152-0.052-0.281-0.12-0.427
			c-0.093-0.197-0.197-0.394-0.305-0.59l-1.341,0.001c-0.01,0.024-0.026,0.054,0.004,0.086h-0.151
			c-0.028,0.002-0.103-0.054-0.153-0.086h-0.001c-0.004-0.002-0.007-0.005-0.011-0.007c-0.269-0.163-0.561-0.338-0.829-0.518
			c-0.09-0.061-0.184-0.146-0.272-0.211c-0.03-0.021-0.423-0.251-0.423-0.372c0-0.031,0.178-0.457,0.263-0.671
			c0.025-0.064,0.063-0.133,0.113-0.181c0.099-0.099,0.173-0.139,0.286-0.139c0.031,0,0.087-0.006,0.115,0.017
			c0.153,0.125,0.23,0.298,0.314,0.436c0.144,0.237,0.249,0.455,0.351,0.694c0.127,0.298,0.401,0.902,0.401,0.932
			c0,0.006-0.003,0.014-0.006,0.021l1.341-0.001c-0.315-0.571-0.678-1.142-0.986-1.694c-0.141-0.252-0.314-0.517-0.458-0.778
			c-0.017-0.032-0.003-0.073-0.062-0.158c-0.015-0.084-0.064-0.21-0.064-0.241c0-0.182,0.161-0.027,0.161-0.274
			c0-0.076-0.013-0.123-0.084-0.264c-0.037-0.076-0.006-0.178-0.045-0.255c-0.025-0.05-0.096-0.075-0.144-0.109
			c0.013-0.082,0.038-0.229,0.038-0.259s-0.111-0.279-0.111-0.31s0.148-0.249,0.148-0.28s-0.038-0.086-0.065-0.1
			c-0.094-0.044-0.192-0.074-0.296-0.145c-0.068-0.047-0.164-0.084-0.206-0.136c-0.057-0.07-0.05-0.179-0.056-0.24
			c-0.022-0.178-0.274-0.38-0.351-0.537c-0.102-0.207-0.069-0.449-0.231-0.657c-0.042-0.053-0.477-0.379-0.699-0.379
			c-0.031,0-0.266,0.061-0.297,0.061s-0.215-0.049-0.329-0.085h-0.207c-0.048,0-0.2,0.195-0.251,0.215
			c-0.082,0.032-0.174,0.018-0.246,0.032c-0.028,0.005-0.152,0.07-0.215,0.07c-0.031,0-0.2-0.049-0.23-0.049H24.61
			c-0.031,0-0.084,0.015-0.104,0.028c-0.119,0.085-0.241,0.193-0.32,0.293c-0.045,0.058-0.061,0.146-0.095,0.204
			c-0.051,0.087-0.13,0.166-0.178,0.255c-0.037,0.067-0.062,0.149-0.094,0.219c-0.028,0.062-0.079,0.129-0.092,0.196
			c-0.062,0.336-0.127,0.998-0.127,1.028c0,0.077,0.027,0.044,0.083,0.154c0.022,0.044,0.007,0.099,0.02,0.145
			c0.011,0.039,0.07,0.051,0.079,0.097c0.046,0.21,0.106,0.45,0.198,0.645c0.04,0.085,0.067,0.192,0.12,0.268
			c0.085,0.12,0.132,0.209,0.132,0.331c0,0.226-0.033,0.154-0.303,0.32c-0.031,0.018-0.041,0.071-0.068,0.099
			c0.046,0.074,0.198,0.289,0.198,0.378c0,0.078-0.284,0.237-0.284,0.286c0,0.106,0.099,0.242,0.099,0.401
			c0,0.03,0.008,0.094-0.016,0.137c-0.023,0.041-0.08,0.053-0.103,0.088c-0.221,0.33-0.455,0.663-0.664,1 M23.088,23.608
			c-0.103,0.167-0.201,0.335-0.288,0.505c-0.152,0.293-0.276,0.619-0.356,0.92c-0.099,0-0.157-0.267-0.185-0.336
			c-0.023-0.059-0.066-0.132-0.091-0.195c-0.023-0.058-0.039-0.124-0.07-0.183c-0.125-0.239-0.247-0.479-0.371-0.712 M16.342,21.195
			c0.022-0.025,0.064-0.052,0.095-0.052c0.192,0,0.336,0.056,0.497,0.282c0.032,0.046,0.134,0.167,0.134,0.222
			s0.002,0.096-0.127,0.171c-0.107,0.061-0.239,0.102-0.359,0.154c-0.014,0.006-0.349,0.167-0.411,0.167
			c-0.049,0-0.093-0.014-0.093-0.079C16.078,22.031,16.252,21.488,16.342,21.195z M15.707,25.732c0-0.103,0.132-0.124,0.189-0.148
			c0.173-0.074,0.357-0.167,0.544-0.267c0.082-0.044,0.186-0.093,0.272-0.134c0.292-0.14,0.645-0.36,0.944-0.465
			c0.028,0.026,0.053,0.062,0.062,0.102c0.04,0.167,0.079,0.495,0.079,0.526v0.179c0,0.103,0.193,0.841,0.213,0.899
			c0.004,0.012,0.009,0.024,0.014,0.036c0.061,0.149,0.194,0.362,0.194,0.513c0,0.123-0.041,0.245-0.087,0.366l-0.025,1.191
			c-0.008,0.048-0.062,0.577-0.229,0.577c-0.133,0-0.366-0.454-0.418-0.538c-0.129-0.207-0.843-1.341-1.319-2.111
			C15.891,26.053,15.707,25.75,15.707,25.732z M29.314,26.892c-0.718,0.705-1.429,1.442-2.165,2.123
			c-0.116,0.108-0.187,0.14-0.295,0.14c-0.206,0-0.186-0.343-0.186-0.456l0.013-0.353c0.045-0.237,0.035-0.565,0.312-0.767
			c0.018-0.014,0.054,0.004,0.075-0.008c0.124-0.076,0.814-0.302,0.814-0.634c0-0.131-0.084-0.312-0.158-0.475
			c-0.034-0.074-0.065-0.144-0.086-0.204c-0.074-0.216-0.189-0.651-0.188-0.681V25.51c0.749,0.267,1.509,0.537,2.246,0.817
			c0.029,0.011,0.041,0.045,0.041,0.076c0,0.017-0.007,0.038-0.018,0.058C29.648,26.599,29.395,26.812,29.314,26.892z"/>
	</g>
</g>
</svg>
